<svg id="Layer_1" data-name="Layer 1" xmlns="http://www.w3.org/2000/svg" viewBox="0 0 512 512"><defs><style>.cls-1{fill:#aeb8c2;opacity:0.25;}.cls-2{fill:#8e8e8e;}.cls-3{fill:#ccc;}.cls-4{fill:#ffca00;}.cls-5{fill:#ffad00;}.cls-6{fill:#161616;}.cls-7{fill:#777;}.cls-8{fill:#fff;}.cls-9{fill:#dad9d9;}.cls-10{fill:#5b5b5b;}.cls-11{fill:#696969;}.cls-12{fill:#00b258;}.cls-13{fill:#00e46c;}.cls-14{fill:#fefdfd;}.cls-15{fill:#e0e0e0;}.cls-16{fill:#858585;}.cls-17{fill:#545454;}</style></defs><title>box-icons</title><ellipse class="cls-1" cx="252.919" cy="406.445" rx="177.919" ry="34.055"/><path class="cls-2" d="M380.334,242.08a50.044,50.044,0,0,0-5.571-.926l.915,7.562-6.66,25.822,5.334,4.5c1.593-.269,2.42,2.233,6.271-2.266,1.086-1.269,4.512-17.645,7.068-20.532,4.947-2.586,37.5-21.453,37.5-21.453l-5.91-.9s-18.576,7.825-23.66,8.145C389.961,242.388,385.815,243.418,380.334,242.08Z"/><path class="cls-3" d="M397.7,249.28c8.413-2.856,23.641-9.021,26.81-13.9l-10.254,4.643c-6.6,2.289-12.957,4.49-18.04,4.808-5.659.358-10.466-1.9-15.947-3.236a50.009,50.009,0,0,0-5.571-.925l.915,7.561-6.659,25.822,5.334,4.5c.568-.1,2.656-3.1,5.157-6.933-.6-3.274,1.328,6.279,2.191,3.067.031-.115-1.129-17.12,2.762-21.417"/><path class="cls-4" d="M434.222,208.863c-1.99-3.37-4.3-9.042-6.649-11.912-13.129-16-30.727-20.982-47.008-22.6-5.247-.524-13.238.095-18.508.045a17.038,17.038,0,0,0-12.925,6.444,20.086,20.086,0,0,0-4.4,10.981,139.5,139.5,0,0,0,.531,19.436c.148,1.651-2.359,1.23-2.2,2.778.082.786-.423,1.692.306,2.612.631.792,2.513,1.61,2.582,2.211.556,4.8,1.4,8.744,1.416,8.906,1.434,11.261,11.7,11.815,20.972,13.027a52.73,52.73,0,0,1,6.145,1.072c6.046,1.552,12.3,4.52,18.539,4.1,5.607-.369,13.238-2.356,20.519-5.011,6.988-2.55,12.46-5.32,14.363-7.8,2.568-3.345,6.011-12.838,6.558-18.139,2.095-.771,2.509-1.6,2.534-2.052C436.618,209.329,436.383,208.68,434.222,208.863Z"/><path class="cls-5" d="M389.818,238.789c-4.516-5.158-7.72-11.608-7.716-18.762a27.889,27.889,0,0,1,1.945-9.715,33.331,33.331,0,0,1,3.424-8.934c.115-.413.26-.815.34-1.242.008-.134.01-.152.025-.376a15.432,15.432,0,0,0-.025-1.68,6.536,6.536,0,0,1,.228-1.277c-5.572-6.339-12.783-10.758-21.237-11.817-6.766-.85-13.612-.111-20.38,1.2a18.86,18.86,0,0,0-1.5,6.08,139.492,139.492,0,0,0,.531,19.435c.148,1.651-2.359,1.23-2.2,2.778.082.787-.423,1.692.307,2.612.63.793,2.513,1.61,2.581,2.212.556,4.8,1.4,8.743,1.416,8.905,1.434,11.261,11.7,11.816,20.972,13.027a52.785,52.785,0,0,1,6.146,1.072c6.046,1.552,11.349,4.168,17.592,3.754a41.7,41.7,0,0,0,4.77-.659A47.844,47.844,0,0,1,389.818,238.789Z"/><path class="cls-5" d="M346.962,211.8c-1.52-3.52-2.657-15.446-2.3-20.265a20.085,20.085,0,0,1,4.4-10.98,17.038,17.038,0,0,1,12.926-6.444c5.269.048,13.261-.57,18.506-.047,5.145.513,7.8,1.417,13.159,4.565,0,0,3.252,2.456,3.49,4.133.72,5.089-3.989,7.733-8.638,16.931-2.785,5.511-4.424,12.053-5.4,16.054a6.01,6.01,0,0,1-6.668,4.715C367.233,219.105,348.257,214.819,346.962,211.8Z"/><path class="cls-6" d="M142.924,277.448c1,.464-4.322,5.709-3.451,6.584,9.062,9.088,18.787,18.174,24.851,30.731,6.762,14,6.818,32.744,6.861,48.583.018,6.493-.546,14.685,4.029,19.272,3.171,3.179,7.488,4.109,11.454,4.481.874.082,48.289,4.168,50.014,2.3,1.968-2.129,11.14-9.819,10.942-13.031a167.364,167.364,0,0,0-16.631-63.564c-4.063-8.2-8.917-16.035-15.362-21.462-6.034-5.081-13.161-7.805-20.259-9.978a165.44,165.44,0,0,0-47.225-7.3C146.4,275.183,144.623,276.252,142.924,277.448Z"/><ellipse class="cls-6" cx="137.245" cy="367.782" rx="33.079" ry="51.121"/><path class="cls-7" d="M279.3,221.85a8.328,8.328,0,0,1-6.912-3.305c0,.9,0,2.33,0,2.33-3.889,0-24.337,5.486-29.866,8.963A28.91,28.91,0,0,0,232,241.312c-2.925,5.861-1.271,12.235-1.144,18.33.183,8.872-.023,17.755-.023,26.629v35.438h32.671c0-18.875-.771-42.446,3.338-61.138.707-3.225,1.455-6.437,5.291-8.244,2.7-1.277,8.273-.381,11.409-.381,14.274,0,25.849-9.127,25.849-20.387v-9.633Z"/><rect class="cls-6" x="135.053" y="407.128" width="29.086" height="11.685"/><ellipse class="cls-6" cx="166.29" cy="367.782" rx="33.079" ry="51.121"/><ellipse class="cls-8" cx="165.875" cy="368.18" rx="24.58" ry="37.987"/><path class="cls-9" d="M182.581,340.323a53.489,53.489,0,0,1,4.132,21.081c0,20.98-11,37.987-24.58,37.987-6.452,0-12.32-3.846-16.705-10.13,4.408,10.192,11.919,16.906,20.447,16.906,13.576,0,24.58-17.008,24.58-37.988C190.455,357.171,187.422,347.262,182.581,340.323Z"/><ellipse class="cls-6" cx="342.667" cy="370.329" rx="21.109" ry="40.427"/><rect class="cls-6" x="341.968" y="401.425" width="23.297" height="9.24"/><ellipse class="cls-6" cx="365.28" cy="370.329" rx="21.109" ry="40.427"/><ellipse class="cls-8" cx="365.016" cy="370.643" rx="15.685" ry="30.04"/><path class="cls-9" d="M375.676,348.615a51.192,51.192,0,0,1,2.637,16.671c0,16.59-7.023,30.04-15.685,30.04-4.118,0-7.862-3.042-10.661-8.012,2.813,8.06,7.607,13.37,13.049,13.37,8.663,0,15.685-13.45,15.685-30.041C380.7,361.938,378.766,354.1,375.676,348.615Z"/><rect class="cls-6" x="145.402" y="339.01" width="46.02" height="11.127" rx="5.564" transform="translate(-205.4 430.356) rotate(-76.877)"/><rect class="cls-6" x="151.486" y="157.26" width="7.704" height="34.638" rx="3.852" transform="translate(-26.649 321.167) rotate(-87.189)"/><path class="cls-6" d="M376.572,261.968c1.36-1.155.655-11.683-.63-17.08-2.076-8.69-9.3-12.48-17.177-12.887-15.528-.8-31.028,2.779-46.556,2.089-5-.223-10.305-.579-15.218.414-4.824.974-7.69,6.017-11.708,6.155-11.032.379-26.512-3.091-37.312-3.031-3.836.021-9.209,1.779-10.3,5.2a60.382,60.382,0,0,0-2.294,14.017c-.944,12.7-1.551,25.441-.028,38.127,1.017,8.46,1.372,17.032,4.359,25.273,4.506,3.074,5.735,10.158,7.37,7.279,3.27-5.753,5.2-17.376,6.243-23.51s2.242-11.24,10.4-12.8c2.763-.526,20.607-6.973,23.085-8.3,15.562-5.918,31.167-11.756,46.67-17.778,10.65-4.137,26.125-6.959,38.724-4.792C373.5,258.017,375.766,262.653,376.572,261.968Z"/><path class="cls-10" d="M278.082,132.184c-12.622,8.364-15.86,21.494-24.748,31.247-3.782,4.149-10.15,5.17-15.8,6.268-7.365,1.431-14.567,3.546-21.8,5.405-4.439,1.141-8.349,3.6-7.434,8.09a6.976,6.976,0,0,0,5.54,5.247,19.4,19.4,0,0,0,5.475-.042c11.715-1.2,23.553-2.433,34.631-5.909,4.1-1.287,8.256-2.961,11.357-5.665,3.476-3.031,7.17-6.2,9.649-9.831,2.909-4.258,4.976-11.667,8.2-15.751,1.46-1.847,2.639-1.044,4.1-2.891s2.743-4.606,4.574-6.172l.755-1.089c2.019-2.908,1.18-6.648-1.954-8.711l-.357-.235c-1.873-1.233-2.646-4.065-5.091-3.56C283.391,128.955,279.537,131.219,278.082,132.184Z"/><path class="cls-6" d="M401.182,341.876c-.759-4.225-1.625-8.433-2.444-12.648l-18.664,7.484c-6.894,2.056-14.013,2.865-21.171,3.456,8.743,2.782,33.712,8.217,36.337,8.289C400.205,348.594,401.975,346.288,401.182,341.876Z"/><path class="cls-11" d="M344.3,222.012l-65.3-.156c-4.424,0-8.01-2.676-8.01-5.978,1.548-8.3,4.073-16.519,4.862-24.884,1.236-13.073-2.084-26.1-3.79-39.07-.666-5.058-1.236-9.5,1.548-14.279,4.544-7.793,15.112-12.963,26.5-12.963h11.14c12.158,0,24,4.762,31.1,12.077,6.008,6.191,6.411,13.3,7.692,20.615,2.942,16.8,6.136,33.286,5.109,50.289C354.8,213.307,354.438,222.036,344.3,222.012Z"/><rect class="cls-6" x="269.595" y="165.344" width="7.934" height="35.671" rx="3.967" transform="translate(77.185 447.427) rotate(-87.189)"/><path class="cls-12" d="M207.16,311.164c-5.672-18.906-15.8-29.557-39.456-32.257a42.655,42.655,0,0,0-6.944-.252c-4.1.2-3.961,6.217.146,6.349l.214.007c33.708,1.2,45.612,30.324,39.449,57.871-.4,1.793-1.055,1.946-2.759,1.991l.646.321a39.208,39.208,0,0,0,11.941,1.79,7.962,7.962,0,0,0,4.551-1.054C212.567,334.3,210.588,322.59,207.16,311.164Z"/><path class="cls-13" d="M401.552,322.763c-3.29-14.639-6.915-29.2-15.958-41.651-9.172-12.787-5.153-18.364-5.645-18.638-23.782-13.246-65.56,6.729-87.466,17.284-4.59,2.211-22.179,4.56-26,7.818-1.817,1.547-4.739,3.465-5.029,6.074-1.008,9.065,2.115,16.863.967,25.916-1.356,10.7-3.328,21.3-4.937,31.96-.436,2.894-1.1,4.8-3.87,1.51-5.23-5.685-5.794-13.186-7.35-20.168a256.423,256.423,0,0,1-5.711-39.3c-.552-8.5-1.353-17.009-.615-25.427,1.539-17.538,5.394-34.862,4.822-52.6,1.016-4.363-.406-7.877-2.9-11.575-3.936-5.847-9.42-9.29-15.523-12.091,4.466-2.375,9.09-4.292,14.1-4.649,10.621-.758,14.482-.15,24.233-5.437,1.876-1.018,4.071-2.885,3.189-4.829-.793-1.746-3.231-1.639-5.147-1.667-8.9-.131-14.881-5.462-21.342-11.45-6.253-5.795-10.33-10.563-19.173-12.422-7.138-1.5-24.194-1.584-31.041.932-4.426,1.625-8.25,4.527-12,7.388l-6.491,4.952c-2.453,1.872-4.492,4.171-7.722,4.639-1.513.219-3.891.22-3.972,2.337a3.7,3.7,0,0,0,.84,2.173c2.587,3.7,6.424,5.57,10.664,6.751.492.137.986.265,1.482.388,4.619,1.146,9.64,2.235,12.781,5.815.332.378.616.795.909,1.2-.08.139-.224.173-.348.278-1.118.946-8.57,1.917-10.275,2.471a50.65,50.65,0,0,0-25.7,18.295c-7.565,10.468-13.42,23.907-18.494,35.763-6.469,15.118-13.25,32.571-8.584,49.107a2.091,2.091,0,0,1,.118.876,2.187,2.187,0,0,1-1.066,1.281c-12.3,8.776-26.338,28-23.266,44.061.387,2.028,2.234,3.89,4.421,3.45,21.291-4.289,61.811-6.723,92.957,1.1,2.113.531,2.7.081,3.143-1.9,6.118-27.547-6.081-62.941-39.54-64.138-.07,0-.581-.11.024-.088,2.121.076,4.406-.034,6.893.251,23.485,2.7,33.535,13.351,39.166,32.258,4.176,14.024,6.176,28.482,9.421,42.685,2.226,9.75,4.351,19.564,10.133,28.036,4.7,6.885,11.23,9.683,21.222,8,16.372-2.753,31.506-5.6,63.026-.219a24.471,24.471,0,0,0,8.145-.059,30.187,30.187,0,0,0,7.59-1.943c9.363-4.325,10.54-23.156,11.194-27.42,1.094-7.129,4.112-12.3,11.547-13.593.644-.111,32.545.727,49.509-16.723C400.827,327.823,402.183,325.568,401.552,322.763Z"/><ellipse class="cls-14" cx="180.515" cy="240.899" rx="23.695" ry="17.574" transform="translate(-76.789 397.144) rotate(-84.422)"/><ellipse class="cls-8" cx="202.542" cy="171.856" rx="13.495" ry="10.009" transform="translate(11.812 356.734) rotate(-84.422)"/><path class="cls-12" d="M259.392,288.858c-2.836,1.541-4.992,2.848-5.458,6.134-.865,6.1-3.073,28.2-8.542,31.253-.071-.569-.155-1.133-.217-1.7-1.993-18.412-3.592-36.9-3.547-55.437.022-8.647.161-17.416,1.442-25.978,1.047-7,2.529-13.978,2.692-21.075.193-8.418-.419-19.4-11.735-25.623,10.046,8.017,6.984,19.7,4.994,30.686-4.962,27.39-4.953,55.885-1.944,83.508,1.654,15.149,1.935,43.881,17.374,52.158.961.515,18.09.583,19.037.043a2.76,2.76,0,0,0,1.335-2.06c1.981-8.879,2.816-17.964,3.53-27.017.488-6.181.891-12.373.895-18.575,0-5.925-.9-12.054.737-17.847,1.5-5.32,2.519-13.231,9.163-16.255C284.737,282.327,263.925,286.4,259.392,288.858Z"/><path class="cls-12" d="M401.87,322.763c-3.3-14.638-6.927-29.2-15.987-41.651a36.534,36.534,0,0,1-6-13.019c1.964,12.365,6.039,29-1.925,41.419-4.384,6.836-10.966,12.008-17.98,16.105-9.7,5.667-21.555,8.685-29.161,17.346-7.279,8.288-10.759,19.688-18.339,27.677-11.645,12.275-44.473,13.063-60.231,11.174-6.663-.8-13.059-2.127-19.143-5.056-4.935-2.377-12.513-8.27-14.552-14.384a80.746,80.746,0,0,0,2.791,9.824c6.525,17.632,16.4,19.785,26.334,17.691a160.52,160.52,0,0,1,63.135-.219,22.341,22.341,0,0,0,8.16-.058,30.351,30.351,0,0,0,7.6-1.944c9.378-4.325,10.558-23.156,11.213-27.42,1.1-7.129,4.12-12.3,11.568-13.592.644-.112,32.6.727,49.593-16.724C400.9,327.926,402.5,325.569,401.87,322.763Z"/><path class="cls-12" d="M176.194,161.924c-2.452,1.871-8.266,7.046-11.5,7.514-1.513.219-3.891.219-3.972,2.337a3.709,3.709,0,0,0,.84,2.173c2.587,3.7,6.425,5.569,10.664,6.75q.738.206,1.482.389c4.619,1.145,9.641,2.235,12.781,5.814.332.379.617.795.91,1.2a1.458,1.458,0,0,1-.349.279c-4.622,1.853-9.694,2.1-14.35,3.835a46.149,46.149,0,0,0-16,10.354c-4.746,4.631-7.651,10-11.3,15.4,11.5-17.026,32.687-23.777,51.781-27.862a.165.165,0,0,0,.059-.309C185.8,182.717,177.075,176.586,176.194,161.924Z"/><rect class="cls-3" x="275.036" y="188.105" width="10.436" height="2.139" rx="0.055"/><path class="cls-13" d="M283.651,114.21h0a3.412,3.412,0,0,0,3.412-3.412V94.291a3.412,3.412,0,0,0-3.412-3.412h-.178a3.412,3.412,0,0,0-3.412,3.412v16.33A3.589,3.589,0,0,0,283.651,114.21Z"/><rect class="cls-15" x="296.205" y="111.759" width="15.363" height="23.161" rx="7.682"/><path class="cls-15" d="M266.741,187.923a2.23,2.23,0,0,0,.925.486,5.387,5.387,0,0,0,1.469.1c2.59-.063,5.472.081,7.824-1.121,1.554-.794,2.406-2.245,3.578-3.424a7.228,7.228,0,0,1,4.959-1.943,3.3,3.3,0,0,0,.952-.1c1.03-.338.579-1.555.23-2.21a2.733,2.733,0,0,0-2.56-1.693l-5.155-.108c-3.427-.072-7.831-.656-10.233,2.174q-1.056,1.231-2.112,2.464C265.541,183.8,265.34,186.692,266.741,187.923Z"/><rect class="cls-15" x="274.767" y="330.9" width="17.629" height="12.426"/><path class="cls-15" d="M304.864,125.388h-5.435a16.149,16.149,0,0,1-16.165-16.132V97.893a16.148,16.148,0,0,1,16.165-16.131h5.435a16.148,16.148,0,0,1,16.165,16.131v11.363A16.148,16.148,0,0,1,304.864,125.388Z"/><path class="cls-13" d="M329.523,97.183c0,5.627-1.642,12.758-4.861,16.986-1.537,2.017-6.154,1.973-7.94.206-1.257-1.242-1.053-3.447-.94-5.056.326-4.638,1.3-9.444.362-14.072a2.062,2.062,0,0,0-2.065-1.924c-6.164-.115-12.327-.256-18.493-.264-5.985-.007-11.966.451-17.943.421-2.151-.011-.212-4.611.233-5.79a23.212,23.212,0,0,1,3.318-5.939,25.976,25.976,0,0,1,10.992-8.157A30.3,30.3,0,0,1,303.355,71.5C318.179,71.5,329.523,83.028,329.523,97.183Z"/><path class="cls-16" d="M346.078,221.975s-19.132.017-36.749-.033v.488c-4,0-24.672,6.4-30.362,10.451a32.562,32.562,0,0,0-10.815,13.382c-3.008,6.833-1.307,14.268-1.178,21.372.19,10.346-.024,20.7-.024,31.052v41.327h33.61c0-22.01-.793-49.5,3.432-71.293.728-3.764,1.5-7.509,5.444-9.616,2.779-1.486,8.51-.441,11.735-.441,14.684,0,27.605-10.645,27.605-23.775V221.384C348.213,221.461,346.713,221.975,346.078,221.975Z"/><path class="cls-7" d="M325.581,147.616A19.842,19.842,0,0,0,327.16,152c3.247,6.484,19.334,21.465,3.82,24.882-14.275,3.145-27.163,2.52-41.773,1.955-3.753-.145-7.207,1.538-8.573,4.177-7.906,15.273,45.367,11.022,54.528,9.893,9.316-1.147,21.854-2.708,26.32-9.91,3.635-5.86,2.528-13.163.3-19.2-3.391-9.213-10.694-17.212-17.627-25.083-2.462-2.795-7.744-4.906-11.682-3.335A10.966,10.966,0,0,0,325.581,147.616Z"/><path class="cls-5" d="M434.774,215.087s-8.166,6.755-35.255,10.557c8.6-.115,25.684.109,33.672-3.932C433.939,220.342,434.774,215.087,434.774,215.087Z"/><path class="cls-17" d="M263.316,363.115h33.24a3.612,3.612,0,0,0,3.615-3.608V346.388a3.612,3.612,0,0,0-3.615-3.608H270.205a10.493,10.493,0,0,0-10.5,10.483v6.244A3.612,3.612,0,0,0,263.316,363.115Z"/></svg>