<svg id="Layer_1" data-name="Layer 1" xmlns="http://www.w3.org/2000/svg" viewBox="0 0 512 512"><defs><style>.cls-1{fill:#b8b8b8;opacity:0.25;}.cls-2{fill:#161616;}.cls-3{fill:#777;}.cls-4{fill:#fff;}.cls-5{fill:#dad9d9;}.cls-6{fill:#3f3f3f;}.cls-7{fill:#5b5b5b;}.cls-8{fill:#696969;}.cls-9{fill:#00b258;}.cls-10{fill:#00e46c;}.cls-11{fill:#fefdfd;}.cls-12{fill:#e3e3e3;}.cls-13{fill:#e0e0e0;}.cls-14{fill:#f2f2f2;}.cls-15{fill:#545454;}.cls-16{fill:#858585;}</style></defs><title>box-icons</title><ellipse class="cls-1" cx="256" cy="406.445" rx="178.5" ry="34.055"/><path class="cls-2" d="M145.646,277.448c1,.464-4.336,5.709-3.462,6.584,9.091,9.088,18.848,18.174,24.932,30.731,6.784,14,6.84,32.744,6.883,48.583.018,6.493-.548,14.685,4.042,19.272,3.181,3.179,7.513,4.109,11.492,4.481.877.082,48.447,4.168,50.177,2.3,1.975-2.129,11.176-9.819,10.978-13.031A166.962,166.962,0,0,0,234,312.807c-4.076-8.2-8.947-16.035-15.413-21.462-6.054-5.081-13.2-7.805-20.325-9.978a166.48,166.48,0,0,0-47.379-7.3C149.137,275.183,147.351,276.252,145.646,277.448Z"/><ellipse class="cls-2" cx="139.948" cy="367.782" rx="33.187" ry="51.121"/><path class="cls-3" d="M290.187,221.85a8.363,8.363,0,0,1-6.935-3.305c0,.9,0,2.33,0,2.33-3.9,0-24.417,5.486-29.964,8.963a28.946,28.946,0,0,0-10.549,11.474c-2.934,5.861-1.275,12.235-1.148,18.33.184,8.872-.023,17.755-.023,26.629v35.438h32.778c0-18.875-.774-42.446,3.349-61.138.71-3.225,1.46-6.437,5.308-8.244,2.71-1.277,8.3-.381,11.446-.381,14.322,0,25.934-9.127,25.934-20.387v-9.633Z"/><rect class="cls-2" x="137.749" y="407.128" width="29.181" height="11.685"/><ellipse class="cls-2" cx="169.088" cy="367.782" rx="33.187" ry="51.121"/><ellipse class="cls-4" cx="168.672" cy="368.18" rx="24.66" ry="37.987"/><path class="cls-5" d="M185.432,340.323a53.329,53.329,0,0,1,4.146,21.081c0,20.98-11.041,37.987-24.66,37.987-6.473,0-12.361-3.846-16.76-10.13,4.422,10.192,11.958,16.906,20.514,16.906,13.62,0,24.661-17.008,24.661-37.988C193.333,357.171,190.289,347.262,185.432,340.323Z"/><ellipse class="cls-2" cx="346.042" cy="370.329" rx="21.178" ry="40.427"/><rect class="cls-2" x="345.34" y="401.425" width="23.373" height="9.24"/><ellipse class="cls-2" cx="368.729" cy="370.329" rx="21.178" ry="40.427"/><ellipse class="cls-4" cx="368.463" cy="370.643" rx="15.737" ry="30.04"/><path class="cls-5" d="M379.158,348.615a51.025,51.025,0,0,1,2.646,16.671c0,16.59-7.046,30.04-15.737,30.04-4.13,0-7.887-3.042-10.695-8.012,2.822,8.06,7.631,13.37,13.091,13.37,8.691,0,15.737-13.45,15.737-30.041C384.2,361.938,382.258,354.1,379.158,348.615Z"/><path class="cls-2" d="M161.809,360.292l7.945-33.969a5.582,5.582,0,0,1,6.7-4.158h0a5.57,5.57,0,0,1,4.167,6.69l-7.945,33.969a5.582,5.582,0,0,1-6.7,4.159h0A5.57,5.57,0,0,1,161.809,360.292Z"/><path class="cls-6" d="M158.1,157.2h0a3.851,3.851,0,0,1,3.851,3.851V188.1a3.853,3.853,0,0,1-3.853,3.853h0a3.851,3.851,0,0,1-3.851-3.851V161.056A3.853,3.853,0,0,1,158.1,157.2Z" transform="translate(-23.998 323.955) rotate(-87.198)"/><path class="cls-2" d="M383.445,262.474c1.364-1.155-1.812-12.308-4.02-17.586-3.448-8.246-9.334-12.48-17.233-12.887-15.579-.8-31.129,2.779-46.708,2.089-5.012-.223-10.339-.579-15.268.414-4.84.974-7.714,6.017-11.746,6.155-11.068.379-26.6-3.091-37.434-3.031-3.849.021-9.239,1.779-10.336,5.2a60.235,60.235,0,0,0-2.3,14.017c-.948,12.7-1.556,25.441-.029,38.127,1.021,8.46,1.377,17.032,4.374,25.273,4.521,3.074,5.754,10.158,7.394,7.279,3.281-5.753,5.216-17.376,6.263-23.51s2.25-11.24,10.437-12.8c2.771-.526,20.674-6.973,23.16-8.3,15.612-5.918,31.269-11.756,46.823-17.778,10.685-4.137,26.21-6.959,38.85-4.792C377.633,261.843,382.636,263.158,383.445,262.474Z"/><path class="cls-7" d="M288.967,132.184c-12.664,8.364-15.912,21.494-24.83,31.247-3.793,4.149-10.183,5.17-15.854,6.268-7.389,1.431-14.614,3.546-21.868,5.405-4.453,1.141-8.377,3.6-7.459,8.09a6.991,6.991,0,0,0,5.559,5.247,19.523,19.523,0,0,0,5.493-.042c11.753-1.2,23.63-2.433,34.744-5.909,4.117-1.287,8.283-2.961,11.394-5.665,3.488-3.031,7.193-6.2,9.68-9.831,2.919-4.258,4.993-11.667,8.231-15.751,1.464-1.847,2.648-1.044,4.111-2.891s2.752-4.606,4.588-6.172l.758-1.089c2.025-2.908,1.183-6.648-1.96-8.711l-.358-.235c-1.88-1.233-2.655-4.065-5.109-3.56C294.293,128.955,290.427,131.219,288.967,132.184Z"/><path class="cls-2" d="M404.748,341.876c-.761-4.225-1.631-8.433-2.452-12.648l-18.726,7.484c-6.916,2.056-14.058,2.865-21.239,3.456,8.771,2.782,33.821,8.217,36.456,8.289C403.767,348.594,405.543,346.288,404.748,341.876Z"/><path class="cls-8" d="M355.4,222.012l-65.518-.156c-4.438,0-8.035-2.676-8.035-5.978,1.553-8.3,4.086-16.519,4.878-24.884,1.239-13.073-2.091-26.1-3.8-39.07-.668-5.058-1.24-9.5,1.553-14.279,4.559-7.793,15.162-12.963,26.583-12.963h11.177c12.2,0,24.08,4.762,31.2,12.077,6.027,6.191,6.432,13.3,7.717,20.615,2.951,16.8,6.156,33.286,5.125,50.289C365.936,213.307,365.572,222.036,355.4,222.012Z"/><path class="cls-6" d="M276.711,165.286h0a3.966,3.966,0,0,1,3.966,3.966v27.854a3.968,3.968,0,0,1-3.968,3.968h0a3.966,3.966,0,0,1-3.966-3.966V169.253a3.968,3.968,0,0,1,3.968-3.968Z" transform="translate(80.222 450.603) rotate(-87.198)"/><path class="cls-9" d="M210.113,310.834c-5.7-19.019-15.875-29.733-39.653-32.449a42.869,42.869,0,0,0-6.979-.253c-4.125.2-3.981,6.254.147,6.386l.215.007c33.876,1.2,45.841,30.5,39.646,58.215-.4,1.8-1.06,1.958-2.772,2l.649.322a39.377,39.377,0,0,0,12,1.8,8,8,0,0,0,4.574-1.06C215.548,334.109,213.559,322.328,210.113,310.834Z"/><path class="cls-10" d="M405.119,322.763c-3.3-14.639-6.937-29.2-16.011-41.651-9.2-12.787-5.169-18.364-5.663-18.638-23.859-13.246-65.774,6.729-87.752,17.284-4.6,2.211-22.251,4.56-26.089,7.818-1.822,1.547-4.754,3.465-5.045,6.074-1.011,9.065,2.122,16.863.971,25.916-1.361,10.7-3.34,21.3-4.953,31.96-.439,2.894-1.1,4.8-3.884,1.51-5.246-5.685-5.812-13.186-7.374-20.168a255.836,255.836,0,0,1-5.729-39.3c-.554-8.5-1.358-17.009-.617-25.427,1.544-17.538,5.411-34.862,4.838-52.6,1.019-4.363-.407-7.877-2.906-11.575-3.95-5.847-9.451-9.29-15.575-12.091,4.481-2.375,9.12-4.292,14.141-4.649,10.657-.758,14.53-.15,24.313-5.437,1.881-1.018,4.084-2.885,3.2-4.829-.8-1.746-3.242-1.639-5.164-1.667-8.924-.131-14.929-5.462-21.411-11.45-6.274-5.795-10.365-10.563-19.236-12.422-7.161-1.5-24.273-1.584-31.143.932-4.44,1.625-8.277,4.527-12.039,7.388l-6.512,4.952c-2.46,1.872-4.507,4.171-7.748,4.639-1.518.219-3.9.22-3.984,2.337a3.686,3.686,0,0,0,.842,2.173c2.6,3.7,6.446,5.57,10.7,6.751.494.137.99.265,1.487.388,4.634,1.146,9.672,2.235,12.823,5.815.333.378.618.795.912,1.2-.08.139-.224.173-.349.278-1.122.946-8.6,1.917-10.309,2.471a50.81,50.81,0,0,0-25.783,18.295c-7.59,10.468-13.464,23.907-18.554,35.763-6.49,15.118-13.293,32.571-8.612,49.107a2.091,2.091,0,0,1,.118.876,2.189,2.189,0,0,1-1.069,1.281c-12.336,8.776-26.424,28-23.343,44.061.389,2.028,2.242,3.89,4.437,3.45,21.36-4.289,62.012-6.723,93.26,1.1,2.12.531,2.71.081,3.153-1.9,6.138-27.547-6.1-62.941-39.669-64.138-.071,0-.583-.11.024-.088,2.128.076,4.42-.034,6.916.251,23.562,2.7,33.644,13.351,39.293,32.258,4.191,14.024,6.2,28.482,9.452,42.685,2.234,9.75,4.366,19.564,10.166,28.036,4.715,6.885,11.267,9.683,21.292,8,16.425-2.753,31.608-5.6,63.231-.219a24.638,24.638,0,0,0,8.173-.059,30.377,30.377,0,0,0,7.614-1.943c9.393-4.325,10.575-23.156,11.231-27.42,1.1-7.129,4.126-12.3,11.585-13.593.646-.111,32.651.727,49.67-16.723C404.392,327.823,405.751,325.568,405.119,322.763Z"/><ellipse class="cls-11" cx="183.36" cy="240.899" rx="23.695" ry="17.631" transform="matrix(0.098, -0.995, 0.995, 0.098, -74.395, 399.692)"/><ellipse class="cls-4" cx="205.458" cy="171.856" rx="13.495" ry="10.041" transform="translate(14.239 359.427) rotate(-84.359)"/><path class="cls-9" d="M262.494,288.858c-2.845,1.541-5.008,2.848-5.475,6.134-.868,6.1-3.083,28.2-8.57,31.253-.072-.569-.156-1.133-.218-1.7-2-18.412-3.6-36.9-3.558-55.437.021-8.647.161-17.416,1.446-25.978,1.05-7,2.538-13.978,2.7-21.075.193-8.418-.421-19.4-11.774-25.623,10.08,8.017,7.008,19.7,5.011,30.686-4.978,27.39-4.969,55.885-1.951,83.508,1.66,15.149,1.942,43.881,17.432,52.158.963.515,18.148.583,19.1.043a2.757,2.757,0,0,0,1.34-2.06c1.988-8.879,2.825-17.964,3.541-27.017.49-6.181.894-12.373.9-18.575,0-5.925-.9-12.054.739-17.847,1.505-5.32,2.527-13.231,9.193-16.255C287.922,282.327,267.042,286.4,262.494,288.858Z"/><path class="cls-9" d="M405.119,322.763c-3.3-14.638-6.937-29.2-16.011-41.651a36.5,36.5,0,0,1-6.008-13.019c1.967,12.365,6.048,29-1.928,41.419-4.391,6.836-10.982,12.008-18.008,16.105-9.717,5.667-21.588,8.685-29.2,17.346-7.29,8.288-10.776,19.688-18.368,27.677-11.662,12.275-44.54,13.063-60.323,11.174-6.672-.8-13.079-2.127-19.172-5.056-4.943-2.377-12.532-8.27-14.574-14.384a80.982,80.982,0,0,0,2.8,9.824c6.535,17.632,16.429,19.785,26.375,17.691a161,161,0,0,1,63.231-.219,22.406,22.406,0,0,0,8.172-.058,30.419,30.419,0,0,0,7.615-1.944c9.393-4.325,10.574-23.156,11.231-27.42,1.1-7.129,4.125-12.3,11.585-13.592.646-.112,32.651.727,49.669-16.724C404.152,327.926,405.751,325.569,405.119,322.763Z"/><path class="cls-9" d="M179.025,161.924c-2.46,1.871-8.294,7.046-11.535,7.514-1.518.219-3.9.219-3.985,2.337a3.7,3.7,0,0,0,.843,2.173c2.6,3.7,6.445,5.569,10.7,6.75q.739.206,1.487.389c4.634,1.145,9.672,2.235,12.822,5.814.334.379.619.795.913,1.2a1.443,1.443,0,0,1-.35.279c-4.638,1.853-9.726,2.1-14.4,3.835a46.321,46.321,0,0,0-16.049,10.354c-4.762,4.631-7.676,10-11.339,15.4,11.54-17.026,32.794-23.777,51.95-27.862a.165.165,0,0,0,.059-.309C188.657,182.717,179.909,176.586,179.025,161.924Z"/><rect class="cls-12" x="278.71" y="187.678" width="10.47" height="2.139" rx="1.069"/><path class="cls-10" d="M293.893,114.21h1.321a2.76,2.76,0,0,0,2.763-2.757V93.636a2.76,2.76,0,0,0-2.763-2.757h-1.5a2.76,2.76,0,0,0-2.764,2.757v17.64A2.937,2.937,0,0,0,293.893,114.21Z"/><path class="cls-13" d="M315.886,125.321h-5.434a16.149,16.149,0,0,1-16.165-16.132V97.826a16.149,16.149,0,0,1,16.165-16.132h5.434a16.149,16.149,0,0,1,16.165,16.132v11.363A16.149,16.149,0,0,1,315.886,125.321Z"/><rect class="cls-13" x="307.149" y="111.759" width="15.413" height="23.161" rx="7.707"/><path class="cls-14" d="M269.867,187.923a2.246,2.246,0,0,0,.929.486,5.418,5.418,0,0,0,1.474.1c2.6-.063,5.489.081,7.849-1.121,1.559-.794,2.414-2.245,3.589-3.424a7.268,7.268,0,0,1,4.976-1.943,3.305,3.305,0,0,0,.954-.1c1.034-.338.582-1.555.232-2.21a2.744,2.744,0,0,0-2.568-1.693l-5.173-.108c-3.438-.072-7.856-.656-10.267,2.174q-1.059,1.231-2.118,2.464C268.664,183.8,268.462,186.692,269.867,187.923Z"/><rect class="cls-14" x="277.92" y="330.9" width="17.687" height="12.426"/><path class="cls-15" d="M263.086,363.115h33.24a3.612,3.612,0,0,0,3.615-3.608V346.388a3.612,3.612,0,0,0-3.615-3.608H269.975a10.493,10.493,0,0,0-10.5,10.483v6.244A3.612,3.612,0,0,0,263.086,363.115Z"/><path class="cls-10" d="M340.576,97.183c0,5.627-1.648,12.758-4.878,16.986-1.541,2.017-6.173,1.973-7.965.206-1.261-1.242-1.056-3.447-.943-5.056.327-4.638,1.3-9.444.363-14.072a2.067,2.067,0,0,0-2.071-1.924c-6.184-.115-12.369-.256-18.554-.264-6-.007-12,.451-18,.421-2.159-.011-.214-4.611.233-5.79a23.189,23.189,0,0,1,3.329-5.939,26.051,26.051,0,0,1,11.027-8.157A30.492,30.492,0,0,1,314.322,71.5C329.2,71.5,340.576,83.028,340.576,97.183Z"/><path class="cls-3" d="M336.62,147.616A19.846,19.846,0,0,0,338.205,152c3.257,6.484,19.4,21.465,3.833,24.882-14.323,3.145-27.252,2.52-41.91,1.955-3.765-.145-7.23,1.538-8.6,4.177-7.932,15.273,45.515,11.022,54.706,9.893,9.347-1.147,21.925-2.708,26.406-9.91,3.647-5.86,2.537-13.163.306-19.2-3.4-9.213-10.729-17.212-17.685-25.083-2.469-2.795-7.769-4.906-11.719-3.335A10.962,10.962,0,0,0,336.62,147.616Z"/><path class="cls-16" d="M357.04,221.975s-20.218.017-38.835-.033v.488c-4.229,0-26.074,6.4-32.086,10.451a32.97,32.97,0,0,0-11.429,13.382c-3.18,6.833-1.382,14.268-1.245,21.372.2,10.346-.026,20.7-.026,31.052v41.327h32.629c.6-12.64.759-25.3,1.034-37.948.142-6.5.311-13,.574-19.5.384-9.506-.861-18.811,9.953-22.75,4.288-1.562,8.657-1.153,13.11-1.153,15.518,0,29.172-10.645,29.172-23.775V221.384C359.3,221.461,357.711,221.975,357.04,221.975Z"/></svg>