<svg width="129" height="128" viewBox="0 0 129 128" fill="none" xmlns="http://www.w3.org/2000/svg">
<path opacity="0.25" d="M64.5 89.0859C94.3234 89.0859 118.5 85.9156 118.5 82.0048C118.5 78.0941 94.3234 74.9238 64.5 74.9238C34.6766 74.9238 10.5 78.0941 10.5 82.0048C10.5 85.9156 34.6766 89.0859 64.5 89.0859Z" fill="#B8B8B8"/>
<path d="M36.8277 76.7146C36.8277 80.9274 35.0646 84.3428 31.7313 84.3428C28.3979 84.3428 26.6816 80.9274 26.6816 76.7146C26.6816 72.5017 28.3979 69.8672 31.7313 69.8672C35.0646 69.8672 36.8277 72.5017 36.8277 76.7146Z" fill="#161616"/>
<path d="M42.3108 76.7154C42.3108 80.9283 39.6087 84.3436 36.2753 84.3436C32.942 84.3436 31.1787 80.9283 31.1787 76.7154C31.1787 72.5026 32.942 69.8672 36.2753 69.8672C39.6087 69.8672 42.3108 72.5026 42.3108 76.7154Z" fill="#161616"/>
<path d="M80.4023 75.1007C80.4023 80.7308 77.7197 84.515 74.4106 84.515C71.1015 84.515 68.4189 80.7308 68.4189 75.1007C68.4189 69.4707 71.1015 65.2188 74.4106 65.2188C77.7197 65.2188 80.4023 69.4707 80.4023 75.1007Z" fill="#161616"/>
<path d="M104.096 72.4071C104.096 77.532 101.751 80.9068 98.8577 80.9068C95.9649 80.9068 94.0303 77.532 94.0303 72.4071C94.0303 67.2822 95.9649 63.4395 98.8573 63.4395C101.75 63.4395 104.096 67.2822 104.096 72.4071Z" fill="#161616"/>
<path d="M18.3987 76.5159C18.5401 77.4129 18.7587 77.5692 19.3718 78.2327C20.0885 79.0082 21.1904 79.2531 22.2227 79.4445C39.0578 82.5582 51.2025 81.698 68.2928 80.7907C69.0731 80.7481 69.8873 80.6984 70.5644 80.3059C71.8368 79.5697 72.218 77.9176 72.4024 76.4462C72.704 74.0375 72.8354 72.3027 73.9735 70.1648C75.1115 68.0269 77.6514 66.4007 79.9024 67.2386C81.8339 67.9574 82.8212 67.4172 83.0606 69.4857C83.2999 71.5543 98.4831 72.9405 99.829 70.5349C100.641 69.0831 101.856 67.843 103.394 67.2418C104.898 66.6533 106.811 66.3663 107.005 67.9829C107.103 68.8014 107.422 71.7403 108.034 71.2399C108.343 70.9873 104.654 47.6778 100.075 44.6931C95.8809 41.9583 86.602 40.1631 81.469 39.517C79.9319 39.324 76.5567 38.916 75.0128 38.9141C72.8977 38.9113 50.9076 39.2806 49.7022 39.392C45.4191 39.7883 44.1555 40.6533 40.5343 43.0128C32.8008 48.0513 28.1292 55.5958 20.0687 59.5546C19.5037 59.8017 18.9967 60.1645 18.5805 60.6195C16.7617 62.5844 18.5967 64.4676 17.9852 67.087C17.9854 67.0866 17.8685 73.1505 18.3987 76.5159Z" fill="#00E46C"/>
<path d="M32.1142 53.9827C32.272 53.7157 32.4615 53.4689 32.6786 53.2475C34.7787 50.9925 43.9523 43.4599 45.2115 42.8574C45.808 42.5714 46.4277 42.3367 47.0639 42.1559C49.2441 41.5363 55.6822 41.4641 58.0012 41.4177C62.7949 41.3223 67.0726 40.9978 71.8652 41.0822C72.6589 41.0964 73.4526 41.1075 74.2463 41.1156C74.8767 41.122 75.55 41.3348 75.9548 41.8202C76.5879 42.5789 76.2052 43.7204 75.7964 44.6211C74.5276 47.4175 72.0478 53.4895 71.4849 54.0248C70.9466 54.5367 70.1396 54.5531 69.4439 54.545C68.5893 54.5348 34.8829 55.2068 34.7094 55.2109C33.8917 55.2292 31.2649 55.5587 32.1142 53.9827Z" fill="#161616"/>
<path fill-rule="evenodd" clip-rule="evenodd" d="M55.2533 61.9946L53.0884 64.4763C52.9436 64.7213 52.8663 65.0003 52.8643 65.2849C52.8623 65.5696 52.9358 65.8496 53.0772 66.0966C53.2187 66.3436 53.423 66.5487 53.6695 66.6911C53.9159 66.8335 54.1957 66.908 54.4803 66.9071H65.5639C65.8954 66.9076 66.219 66.806 66.4908 66.6163C66.7626 66.4265 66.9695 66.1578 67.0834 65.8465L68.4157 63.365C68.5042 63.1212 68.5325 62.8596 68.4983 62.6025C68.464 62.3454 68.3683 62.1004 68.2191 61.8882C68.07 61.676 67.8718 61.5029 67.6415 61.3836C67.4111 61.2644 67.1554 61.2025 66.8961 61.2031H56.6454C56.3647 61.203 56.0887 61.2759 55.8446 61.4147C55.6005 61.5534 55.3968 61.7533 55.2533 61.9946Z" fill="white"/>
<path d="M102.64 78.5879H98.8574V80.9078H102.64V78.5879Z" fill="#161616"/>
<path d="M79.8187 82.1855H74.5488V84.5156H79.8187V82.1855Z" fill="#161616"/>
<path fill-rule="evenodd" clip-rule="evenodd" d="M49.8244 62.4395H33.3166C32.4124 62.4395 31.7833 62.8372 32.0922 63.2135L33.2141 64.808C33.4012 65.0361 33.8906 65.1877 34.4383 65.1877H48.3577C48.9054 65.1877 49.3948 65.0361 49.5819 64.808L50.7037 63.2135C51.0127 62.8372 50.7284 62.4395 49.8244 62.4395Z" fill="#00B258"/>
<path d="M36.2751 82.1602H31.8516V84.3433H36.2751V82.1602Z" fill="#161616"/>
<path d="M78.0649 68.847L78.0538 68.8436C77.0374 68.5355 77.7413 66.5322 77.1122 66.7718C76.1149 67.1515 73.7126 70.0471 72.9391 70.73C71.7805 71.7534 71.0564 72.5715 69.7076 73.3991C68.1344 74.3637 66.1049 74.4834 64.1888 74.5633C50.4594 75.1307 40.666 75.2506 26.9284 74.9222C25.0762 74.878 23.3416 74.9173 21.6559 74.1222C19.72 73.2093 19.4959 70.7752 17.9809 69.4601C17.9712 71.0886 17.9999 74.771 18.4102 77.0616C18.5537 77.8628 18.7754 78.0025 19.3981 78.5952C20.1261 79.2883 21.245 79.5069 22.2933 79.6778C39.3894 82.4601 51.7382 81.6917 69.0932 80.8805C69.8858 80.8435 70.7113 80.798 71.4001 80.4474C72.6923 79.7898 73.0797 78.3136 73.2663 76.9988C73.5729 74.8465 73.7064 73.2964 74.8621 71.3862C75.6071 70.1978 76.7378 69.3013 78.0649 68.847Z" fill="#161616"/>
<path d="M98.8681 66.1888C98.0849 66.5559 96.9237 70.0217 96.5721 70.8619C96.2334 71.6698 96.2387 72.4653 95.8609 73.2494C95.42 74.1636 94.873 74.8296 93.9883 75.184C93.1396 75.5242 87.4507 75.5863 86.5937 75.2784C85.0462 74.7221 83.9465 73.1737 83.1611 71.5399C83.1701 72.9394 83.1252 74.3434 83.335 75.7194C83.4773 76.6537 83.5104 78.1689 83.9764 78.9625C84.5332 79.9116 94.6504 80.1414 95.5926 78.5346C96.0476 77.7588 95.6713 76.2071 95.8709 75.3358C96.4842 72.6616 96.804 72.9403 97.9969 70.5345C98.465 69.5679 99.1309 68.7104 99.9515 68.0176C100.092 66.5243 99.9058 65.7026 98.8681 66.1888Z" fill="#161616"/>
<path d="M85.664 75.1007C85.664 80.7308 82.9814 84.515 79.6723 84.515C76.3632 84.515 73.6807 80.7308 73.6807 75.1007C73.6807 69.4707 76.3632 65.2188 79.6723 65.2188C82.9814 65.2188 85.664 69.4707 85.664 75.1007Z" fill="#161616"/>
<path d="M84.05 75.1806C84.05 79.3641 82.0567 81.9758 79.5977 81.9758C77.1388 81.9758 75.1455 79.3641 75.1455 75.1806C75.1455 70.9971 77.1388 67.6055 79.5977 67.6055C82.0567 67.6055 84.05 70.9971 84.05 75.1806Z" fill="white"/>
<path d="M82.5706 69.625C83.0956 70.9637 83.359 72.3908 83.3463 73.8287C83.3463 78.0122 81.2805 80.624 78.7329 80.624C77.5211 80.624 76.499 79.8097 75.6758 78.5565C76.3699 80.7209 77.8347 81.9651 79.4354 81.9751C82.1141 81.9916 84.0488 79.3633 84.0488 75.1798C84.0492 72.9845 83.4798 71.0084 82.5706 69.625Z" fill="#DAD9D9"/>
<path d="M18.0185 66.9085H28.4903C28.7799 66.9093 29.0645 66.8335 29.3152 66.6886C29.566 66.5438 29.7738 66.3351 29.9177 66.0838C30.0617 65.8325 30.1364 65.5476 30.1345 65.258C30.1325 64.9685 30.0539 64.6846 29.9066 64.4353L27.7039 61.8907C27.5581 61.6451 27.351 61.4417 27.1027 61.3005C26.8545 61.1593 26.5738 61.0851 26.2882 61.0854L18.2403 61.0586C16.9638 62.355 18.4588 64.6383 18.0185 66.9085Z" fill="white"/>
<path d="M75.4387 53.9518L79.7619 43.806C80.196 42.662 81.4897 41.9619 82.8282 42.1466L83.8313 42.285C84.4956 42.3767 86.6069 42.7504 86.6069 42.7504C86.6069 42.7504 97.8162 45.3813 98.7382 46.6705C99.6031 47.8798 100.759 51.9681 101.282 53.4133C101.304 53.4982 101.318 53.5851 101.324 53.6727C101.332 53.7577 101.322 53.8435 101.293 53.9241C101.265 54.0047 101.22 54.0782 101.16 54.1396C101.101 54.201 101.029 54.2488 100.949 54.2797C100.869 54.3106 100.784 54.3239 100.699 54.3188L76.0534 54.705C75.9577 54.7142 75.8612 54.6996 75.7725 54.6625C75.6837 54.6255 75.6055 54.5672 75.5448 54.4927C75.484 54.4182 75.4425 54.3299 75.424 54.2355C75.4055 54.1412 75.4106 54.0437 75.4387 53.9518Z" fill="#161616"/>
<path fill-rule="evenodd" clip-rule="evenodd" d="M82.0755 51.1883C82.3674 50.9542 82.7293 50.8247 83.1035 50.8203H84.5478C85.0993 50.8203 85.5471 51.3984 85.5471 52.1114V54.5493L76.126 54.7073L82.0755 51.1883Z" fill="#00B258"/>
<path d="M107.878 72.4071C107.878 77.532 105.533 80.9068 102.64 80.9068C99.7473 80.9068 97.4023 77.532 97.4023 72.4071C97.4023 67.2822 99.7473 63.4395 102.64 63.4395C105.533 63.4395 107.878 67.2822 107.878 72.4071Z" fill="#161616"/>
<path d="M106.38 72.6295C106.38 76.5483 104.699 78.9454 102.625 78.9454C100.551 78.9454 98.8701 76.5483 98.8701 72.6295C98.8701 68.7107 100.551 65.8457 102.625 65.8457C104.699 65.8457 106.38 68.7107 106.38 72.6295Z" fill="white"/>
<path d="M104.992 67.3027C105.464 68.5643 105.718 69.8971 105.741 71.2439C105.741 75.1627 104.09 77.5598 102.054 77.5598C101.13 77.5598 100.286 77.6835 99.6387 76.6031C100.302 78.4867 101.422 78.9448 102.693 78.9448C104.73 78.9448 106.381 76.5478 106.381 72.629C106.381 70.4879 105.896 68.6653 104.992 67.3027Z" fill="#DAD9D9"/>
<path d="M108.088 70.9495C108.062 68.8988 107.826 66.8561 107.384 64.8535C107.277 64.3781 105.768 58.8931 105.61 58.416C105.61 58.416 99.0972 64.534 97.8118 65.9875C95.7757 68.2906 89.0953 72.8969 84.8633 70.1036C84.9245 70.144 84.9677 70.4146 84.9908 70.4874C85.0334 70.6238 85.0739 70.761 85.1124 70.8987C85.1911 71.1822 85.2607 71.4677 85.3212 71.7553C85.4482 72.3612 85.5388 72.9741 85.5925 73.5909C85.6142 73.8358 85.6305 74.0811 85.6414 74.3269C85.6469 74.4517 85.6369 74.6235 85.6393 74.7485C85.6431 74.9562 85.8823 74.9985 86.046 75.0735C86.2888 75.1799 86.538 75.271 86.7922 75.3465C87.7593 75.6541 94.3484 75.5234 95.3061 75.1834C95.8066 75.0025 96.2607 74.7126 96.6353 74.3345C96.9467 74.0557 97.1948 73.7133 97.3628 73.3304C97.4761 73.0152 97.4032 72.7273 97.4032 72.4063C97.4032 67.2826 99.7481 63.4389 102.641 63.4389C105.314 63.4389 107.515 66.7222 107.835 71.2638C107.858 71.285 107.87 71.3144 107.902 71.3275C108.147 71.2618 108.09 71.0913 108.088 70.9495Z" fill="#00B258"/>
<path d="M76.4209 66.7539C70.9856 67.174 64.7454 70.4034 60.1911 71.8471C54.1074 73.776 37.8332 73.327 31.4012 72.814C31.2153 72.7991 31.0293 72.7828 30.8434 72.7649C30.6665 72.7476 30.4893 72.7288 30.3119 72.7086C30.1443 72.6893 29.977 72.6684 29.8099 72.6459C29.6513 72.6245 29.493 72.6013 29.335 72.5763C29.1847 72.5527 29.0347 72.5274 28.8849 72.5007C28.7423 72.4749 28.6 72.4476 28.458 72.4188C28.3225 72.3905 28.1874 72.3611 28.0528 72.3308C27.9238 72.301 27.7953 72.2697 27.6671 72.2368C27.5443 72.2051 27.4218 72.1718 27.2998 72.1371C27.1821 72.1035 27.0651 72.0681 26.9486 72.0308C26.8352 71.9954 26.7229 71.9585 26.6118 71.9201C26.5034 71.8829 26.3955 71.8442 26.288 71.804C26.1831 71.7651 26.0789 71.7248 25.9753 71.683C25.8717 71.6412 25.7705 71.5991 25.6717 71.5567C25.5725 71.5142 25.4738 71.4705 25.3758 71.4258C25.2777 71.381 25.1809 71.3357 25.0856 71.2899C24.9899 71.244 24.8946 71.1973 24.7996 71.1498C24.7047 71.1023 24.61 71.0541 24.5158 71.005C24.4211 70.9561 24.3267 70.9065 24.2326 70.8562C24.1385 70.8059 24.0438 70.7549 23.9484 70.7034C23.8526 70.6512 23.7567 70.5989 23.6609 70.5465L23.369 70.3857L23.0714 70.2214C22.9694 70.1647 22.8672 70.1088 22.7648 70.0536C22.6595 69.997 22.5541 69.9403 22.4485 69.8836C22.3392 69.825 22.2298 69.767 22.1202 69.7095C22.0069 69.6498 21.893 69.5907 21.7788 69.5321C21.6602 69.4713 21.5413 69.4113 21.4221 69.3521C21.2982 69.2901 21.1737 69.2291 21.0485 69.169C20.9184 69.1064 20.7877 69.0446 20.6565 68.9836C20.5193 68.92 20.3817 68.8574 20.2438 68.7959C20.0996 68.7313 19.9546 68.6679 19.8091 68.6059C19.6569 68.5407 19.504 68.4769 19.3505 68.4145C19.1898 68.3486 19.0284 68.2839 18.8664 68.2204C18.6819 68.1481 18.4959 68.0797 18.3109 68.0078C18.232 67.9797 18.1557 67.9446 18.083 67.903C18.0493 67.8801 18.0137 67.86 17.9767 67.8431C17.9578 68.0846 17.9837 68.9501 17.9807 69.4603C19.4955 70.7754 19.7198 73.2095 21.6555 74.1221C23.3416 74.9173 25.076 74.8779 26.9279 74.9222C40.6656 75.2504 50.459 75.1307 64.1884 74.5633C66.1045 74.4842 68.1336 74.3637 69.7072 73.3991C71.057 72.5712 71.7811 71.7534 72.9387 70.7299C74.2885 69.583 75.4619 68.2432 76.4209 66.7539Z" fill="#00B258"/>
<path d="M17.9785 69.7943C17.9785 69.6739 17.9785 69.5636 17.9798 69.459C17.9789 69.5615 17.9785 69.6748 17.9785 69.7943Z" fill="#8F8F8F"/>
<rect x="1" y="90" width="85" height="38" rx="19" fill="#4A4DCC"/>
<path d="M16.6705 119.9C15.4305 119.9 14.3172 119.673 13.3305 119.22C12.3439 118.767 11.5639 118.08 10.9905 117.16C10.4305 116.253 10.1505 115.147 10.1505 113.84C10.1505 113.68 10.1639 113.427 10.1905 113.08C10.2972 111.813 10.7639 110.267 11.5905 108.44L13.8905 109.5C13.5172 110.407 13.2505 111.113 13.0905 111.62C12.9305 112.127 12.8505 112.687 12.8505 113.3C12.8505 115.193 14.1239 116.14 16.6705 116.14C17.6572 116.14 18.5572 116.013 19.3705 115.76C20.1972 115.507 20.8039 115.2 21.1905 114.84C20.8439 114.613 20.2972 114.333 19.5505 114C18.8172 113.667 18.0639 113.373 17.2905 113.12L18.0905 109.58C19.3305 109.82 20.3839 109.987 21.2505 110.08C22.1172 110.173 22.9905 110.227 23.8705 110.24H24.0705L24.2705 112.12L24.0705 114H23.8705L23.2105 113.98C23.4905 114.34 23.6305 114.713 23.6305 115.1C23.6305 115.807 23.3239 116.533 22.7105 117.28C22.1105 118.027 21.2772 118.647 20.2105 119.14C19.1572 119.647 17.9772 119.9 16.6705 119.9ZM40.4185 114C39.3518 114 38.4652 113.553 37.7585 112.66C37.3985 113.073 36.9918 113.4 36.5385 113.64C36.0852 113.867 35.6118 113.987 35.1185 114H35.0585H35.0385H34.9785C34.4052 113.987 33.8918 113.853 33.4385 113.6C32.9985 113.347 32.6318 112.987 32.3385 112.52C31.9518 113.013 31.5518 113.38 31.1385 113.62C30.7385 113.86 30.2852 113.987 29.7785 114H29.6385C29.1052 114 28.6118 113.873 28.1585 113.62C27.7185 113.353 27.3852 113 27.1585 112.56C26.7185 113.027 26.2252 113.387 25.6785 113.64C25.1452 113.88 24.5852 114 23.9985 114H23.9385L23.7385 112.12L23.9385 110.24H24.0385C24.3985 110.24 24.7652 110.167 25.1385 110.02C25.5118 109.873 25.7852 109.7 25.9585 109.5C26.4118 109.02 26.7652 108.273 27.0185 107.26L29.4785 107.52C29.4518 107.613 29.3785 107.893 29.2585 108.36C29.1385 108.827 29.0785 109.2 29.0785 109.48C29.0785 109.987 29.2918 110.24 29.7185 110.24H29.7785C30.4052 110.24 30.8585 109.94 31.1385 109.34C31.3918 108.807 31.6118 108.087 31.7985 107.18L34.2585 107.28C34.2185 107.507 34.1718 107.813 34.1185 108.2C34.0785 108.573 34.0585 108.867 34.0585 109.08C34.0585 109.427 34.1385 109.707 34.2985 109.92C34.4718 110.133 34.7252 110.24 35.0585 110.24C35.3385 110.24 35.6118 110.193 35.8785 110.1C36.1452 109.993 36.3518 109.867 36.4985 109.72C36.3252 108.827 36.1785 108.033 36.0585 107.34L38.5185 106.66C38.6652 107.5 38.7785 108.127 38.8585 108.54C38.9518 108.94 39.0452 109.267 39.1385 109.52C39.2185 109.76 39.3585 109.94 39.5585 110.06C39.7585 110.18 40.0452 110.24 40.4185 110.24H40.5385L40.7385 112.12L40.5385 114H40.4185ZM31.3385 101.8L33.0985 103.54L31.3385 105.32L29.5785 103.54L31.3385 101.8ZM33.2385 99.52L34.7785 101.06L33.2385 102.62L31.6985 101.06L33.2385 99.52ZM35.1785 101.8L36.9185 103.54L35.1785 105.32L33.3985 103.54L35.1785 101.8ZM40.3038 110.24H41.3838C42.6238 110.24 43.5038 110.14 44.0238 109.94C44.5572 109.74 44.8238 109.46 44.8238 109.1C44.8238 108.767 44.4572 107.72 43.7238 105.96L46.2638 104.56C46.5305 105.12 46.7972 105.873 47.0638 106.82C47.3438 107.753 47.4838 108.593 47.4838 109.34C47.4838 110.833 47.0172 111.987 46.0838 112.8C45.1505 113.6 43.7838 114 41.9838 114H40.3038V110.24ZM40.5238 115.58L42.2638 117.32C43.0372 116.547 43.4238 116.16 43.4238 116.16L44.0038 115.58L45.8838 117.46L44.0038 119.32L42.2638 117.58C41.4905 118.353 41.1038 118.74 41.1038 118.74L40.5238 119.32L38.6638 117.46L40.5238 115.58ZM53.9945 114C51.0745 114 49.5945 112.207 49.5545 108.62C49.4878 104.927 49.2745 101.82 48.9145 99.3L51.9745 98.6C52.1478 99.8533 52.2745 101.38 52.3545 103.18C52.4478 104.98 52.4945 106.673 52.4945 108.26C52.4945 108.793 52.5345 109.2 52.6145 109.48C52.7078 109.76 52.8611 109.96 53.0745 110.08C53.2878 110.187 53.5945 110.24 53.9945 110.24H54.0945L54.2945 112.12L54.0945 114H53.9945ZM53.978 110.24H54.338C55.2847 110.24 56.118 109.607 56.838 108.34C57.5447 107.06 58.2047 106.133 58.818 105.56C59.4314 104.973 60.118 104.68 60.878 104.68C61.6514 104.68 62.3247 104.933 62.898 105.44C63.4847 105.933 63.9314 106.58 64.238 107.38C64.5447 108.167 64.698 108.993 64.698 109.86C64.698 110.7 64.5514 111.473 64.258 112.18C63.9647 112.887 63.5314 113.42 62.958 113.78C62.5847 114.007 62.1714 114.12 61.718 114.12C60.6514 114.12 59.2914 113.6 57.638 112.56C57.2247 113.04 56.7247 113.4 56.138 113.64C55.5647 113.88 54.9447 114 54.278 114H53.898L53.978 110.24ZM59.218 109.56C59.7914 109.92 60.3114 110.207 60.778 110.42C61.258 110.62 61.6114 110.72 61.838 110.72C61.9314 110.72 61.998 110.7 62.038 110.66C62.198 110.513 62.278 110.28 62.278 109.96C62.278 109.507 62.138 109.073 61.858 108.66C61.5914 108.247 61.238 108.04 60.798 108.04C60.278 108.04 59.7514 108.547 59.218 109.56ZM63.9199 116.76C64.8133 116.36 65.6333 115.92 66.3799 115.44C67.1399 114.973 67.7399 114.533 68.1799 114.12C68.6333 113.707 68.8599 113.38 68.8599 113.14C68.8599 112.607 68.4466 111.02 67.6199 108.38L70.3199 107.3C70.6533 108.22 70.9133 109.2 71.0999 110.24C71.2866 111.267 71.3799 112.233 71.3799 113.14C71.3799 114.527 70.8599 115.793 69.8199 116.94C68.7799 118.087 67.3399 119.073 65.4999 119.9L63.9199 116.76ZM68.6199 101.34L70.7399 103.46L68.6199 105.6L66.4799 103.46L68.6199 101.34ZM73.2412 113.88C73.3212 113.04 73.3612 112 73.3612 110.76C73.3612 109.147 73.3012 107.407 73.1812 105.54C73.0745 103.66 72.9478 102.187 72.8012 101.12L75.9012 100.42C76.0078 101.42 76.1012 102.753 76.1812 104.42C76.2612 106.087 76.3012 107.727 76.3012 109.34C76.3012 111.22 76.2345 112.833 76.1012 114.18L73.2412 113.88ZM70.8212 98.88C71.1012 98.2667 71.4478 97.7867 71.8612 97.44C72.2612 97.0933 72.6945 96.92 73.1612 96.92C73.3745 96.92 73.5745 96.9533 73.7612 97.02C73.9612 97.0733 74.1812 97.16 74.4212 97.28C74.6612 97.3867 74.8478 97.4667 74.9812 97.52C75.1278 97.5733 75.2812 97.6 75.4412 97.6C75.6545 97.6 75.8678 97.5333 76.0812 97.4C76.3078 97.2667 76.4878 97.0933 76.6212 96.88L77.6812 97.78C77.3745 98.26 77.0278 98.6333 76.6412 98.9C76.2545 99.1533 75.8545 99.28 75.4412 99.28C75.2145 99.28 75.0012 99.2533 74.8012 99.2C74.6145 99.1333 74.3812 99.0333 74.1012 98.9C73.9412 98.82 73.7745 98.7533 73.6012 98.7C73.4412 98.6333 73.2945 98.6 73.1612 98.6C72.9212 98.6 72.6945 98.6867 72.4812 98.86C72.2678 99.0333 72.0945 99.2667 71.9612 99.56L70.8212 98.88Z" fill="white"/>
</svg>
