<?xml version="1.0" encoding="utf-8"?>
<!-- Generator: Adobe Illustrator 26.3.1, SVG Export Plug-In . SVG Version: 6.00 Build 0)  -->
<svg version="1.1" id="Layer_1" xmlns="http://www.w3.org/2000/svg" xmlns:xlink="http://www.w3.org/1999/xlink" x="0px" y="0px"
	 viewBox="0 0 380 198" style="enable-background:new 0 0 380 198;" xml:space="preserve">
<style type="text/css">
	.st0{fill:#F4F4F4;}
	.st1{opacity:0.8;enable-background:new    ;}
	.st2{opacity:0.6;}
	.st3{opacity:0.7;fill:#F4F4F4;}
	.st4{opacity:0.6;fill:#F4F4F4;}
	.st5{fill:none;stroke:#00D170;stroke-width:2;stroke-miterlimit:10;}
	.st6{fill:#00D170;}
	.st7{fill:#151F33;}
	.st8{fill:#E8E8E8;}
	.st9{fill:#CCCCCC;}
	.st10{opacity:0.4;fill:#CCCCCC;}
	.st11{opacity:0.35;fill:#CCCCCC;}
	.st12{fill:#FFCE00;}
	.st13{fill:#FFB000;}
	.st14{fill:#FFFFFF;}
	.st15{fill-rule:evenodd;clip-rule:evenodd;fill:#FFFFFF;}
	.st16{fill:#1A2E35;}
	.st17{opacity:0.4;fill:#FFFFFF;}
	.st18{opacity:0.3;fill:#FFFFFF;}
	.st19{opacity:0.2;fill:#FFFFFF;}
	.st20{opacity:0.7;fill:#FFFFFF;enable-background:new    ;}
	.st21{fill:#007CFF;}
	.st22{fill:#515151;}
	.st23{opacity:0.7;fill:#FFFFFF;}
	.st24{opacity:0.7;fill:#FF0000;}
	.st25{opacity:0.4;}
	
		.st26{opacity:0.2;fill:none;stroke:#000000;stroke-width:0.6474;stroke-linecap:round;stroke-linejoin:round;stroke-miterlimit:10;}
	.st27{fill:#FF5200;}
</style>
<g>
	<g>
		<g>
			<path class="st0" d="M314.4,61.8l-3,3.6l-7.6-0.6l-11.8,43l-15-5.8c1.9-3.9,11.1-22.5,13.6-28l-1.8-15.7l1.4,0.5l0.1,0.6
				c0.4,2.1,1.1,4.1,2.1,6c0.4,0.8,0.9,1.5,1.3,2c1.3-1.6,11.8-25.3,11.8-25.3s0.1,4,5.3,3.6l-5.6,15.6l4.8,0.8l7.6-6.8l1.7,0.7
				l-3,3.1l3.9,0.6l4.6-2.8l1,0.7l-4.5,3.2L314.4,61.8z"/>
		</g>
		<g class="st1">
			<path class="st0" d="M314.4,61.8l-3,3.6l-7.6-0.6l-11.8,43l-15-5.8c1.9-3.9,11.1-22.5,13.6-28l-1.8-15.7l1.4,0.5l0.1,0.6
				c0.4,2.1,1.1,4.1,2.1,6c0.4,0.8,0.9,1.5,1.3,2c1.3-1.6,11.8-25.3,11.8-25.3s0.1,4,5.3,3.6l-5.6,15.6l4.8,0.8l7.6-6.8l1.7,0.7
				l-3,3.1l3.9,0.6l4.6-2.8l1,0.7l-4.5,3.2L314.4,61.8z"/>
		</g>
		<g>
			<path class="st0" d="M289.4,26.6c-2.5-0.1-4.9,1.7-5.8,4c-0.8,2.4-0.1,5.2,1.7,6.9c1.8,1.7,4.6,2.4,7,1.7
				c-0.8,2.3-0.2,5.3,1.7,6.8c1.9,1.5,4.7,1.7,6.8,0.4c4.4,5.9,24.1,15,33.6,0.9c2-2.9,1.5-7-0.3-10c-1.8-3-4.8-5.1-7.9-6.7
				c-1.2-6.1-7-11.4-13-12.9c-6-1.4-12.8,0.9-16.7,5.8C290.6,21.5,289.2,27,289.4,26.6z"/>
		</g>
		<path class="st0" d="M284.8,59.8c0.3,1.2,1.3,2.2,2.5,2.5c1.2,0.3,2.6-0.2,3.3-1.2c1,1.5,3.2,2.1,5,1.7c1.7-0.4,3.2-2,3.4-3.7
			c0.2-1.8-0.7-3.7-2.3-4.5c0.4-1.7,0.2-3.3-0.9-4.7c-1-1.4-2.7-2.2-4.4-2.3c-1.7-1-3.7-1.1-5.5-0.3c-1.3,0.5-2.4,1.6-2.8,2.9
			c-0.4,1.3,0.1,2.9,1.2,3.7c-0.8,0.8-1.3,1.8-1.3,3C283.1,57.9,283.9,59,284.8,59.8z"/>
		<g class="st2">
			<path class="st0" d="M289.4,26.6c-2.5-0.1-4.9,1.7-5.8,4c-0.8,2.4-0.1,5.2,1.7,6.9c1.8,1.7,4.6,2.4,7,1.7
				c-0.8,2.3-0.2,5.3,1.7,6.8c1.9,1.5,4.7,1.7,6.8,0.4c4.4,5.9,24.1,15,33.6,0.9c2-2.9,1.5-7-0.3-10c-1.8-3-4.8-5.1-7.9-6.7
				c-1.2-6.1-7-11.4-13-12.9c-6-1.4-12.8,0.9-16.7,5.8C290.6,21.5,289.2,27,289.4,26.6z"/>
		</g>
		<path class="st3" d="M284.8,59.8c0.3,1.2,1.3,2.2,2.5,2.5c1.2,0.3,2.6-0.2,3.3-1.2c1,1.5,3.2,2.1,5,1.7c1.7-0.4,3.2-2,3.4-3.7
			c0.2-1.8-0.7-3.7-2.3-4.5c0.4-1.7,0.2-3.3-0.9-4.7c-1-1.4-2.7-2.2-4.4-2.3c-1.7-1-3.7-1.1-5.5-0.3c-1.3,0.5-2.4,1.6-2.8,2.9
			c-0.4,1.3,0.1,2.9,1.2,3.7c-0.8,0.8-1.3,1.8-1.3,3C283.1,57.9,283.9,59,284.8,59.8z"/>
		<path class="st0" d="M322.9,47.7c-1-0.8-2.4-1-3.5-0.5c-1.1,0.5-1.9,1.7-1.9,3c-1.7-0.6-3.8,0.3-5,1.6c-1.2,1.4-1.4,3.5-0.5,5
			c0.9,1.6,2.8,2.5,4.5,2.2c0.6,1.6,1.9,2.7,3.5,3.2c1.6,0.5,3.5,0.2,4.9-0.8c1.9-0.2,3.6-1.4,4.6-3.1c0.7-1.2,1-2.7,0.5-4
			c-0.5-1.3-1.8-2.3-3.2-2.2c0.2-1.1,0-2.3-0.7-3.1C325.4,48.2,324.1,47.8,322.9,47.7z"/>
		<path class="st3" d="M322.9,47.7c-1-0.8-2.4-1-3.5-0.5c-1.1,0.5-1.9,1.7-1.9,3c-1.7-0.6-3.8,0.3-5,1.6c-1.2,1.4-1.4,3.5-0.5,5
			c0.9,1.6,2.8,2.5,4.5,2.2c0.6,1.6,1.9,2.7,3.5,3.2c1.6,0.5,3.5,0.2,4.9-0.8c1.9-0.2,3.6-1.4,4.6-3.1c0.7-1.2,1-2.7,0.5-4
			c-0.5-1.3-1.8-2.3-3.2-2.2c0.2-1.1,0-2.3-0.7-3.1C325.4,48.2,324.1,47.8,322.9,47.7z"/>
	</g>
	<path class="st0" d="M299.1,112.5c2-0.5,1.3-2.9-0.2-3.7c-1.5-0.8-2.4-3.4-2-4.6c0.4-1.2-1-6.1-6.4-5.5c-5.4,0.6-3.3-0.9-6.2-2.8
		c-3-1.9-5.8-0.8-4.9,1.1c0,0-3-1.8-5.2-0.3c-2.1,1.5-1.3,3.3-1.3,3.3s-6.1-2.5-6.5,0.3C265.9,103.2,299.1,112.5,299.1,112.5z"/>
	<path class="st4" d="M299.1,112.5c2-0.5,1.3-2.9-0.2-3.7c-1.5-0.8-2.4-3.4-2-4.6c0.4-1.2-1-6.1-6.4-5.5c-5.4,0.6-3.3-0.9-6.2-2.8
		c-3-1.9-5.8-0.8-4.9,1.1c0,0-3-1.8-5.2-0.3c-2.1,1.5-1.3,3.3-1.3,3.3s-6.1-2.5-6.5,0.3C265.9,103.2,299.1,112.5,299.1,112.5z"/>
</g>
<circle class="st5" cx="138" cy="36.1" r="15.3"/>
<g>
	<path class="st0" d="M332.1,197.8c0-46.3-19-88.2-49.5-118.3c-4.6-4.5-6.5-11-5-17.2c0.8-3.2,1.1-6.6,1-10
		c-0.7-19.8-17.4-35.7-37.1-35.6c-10.9,0-20.7,4.8-27.5,12.3c-4.2,4.7-10.5,6.9-16.7,5.7c-10.1-1.9-20.5-2.9-31.2-2.9
		c-14.2,0-28.1,1.8-41.3,5.2c-4.6,1.2-9.4-0.4-12.5-4c-4.7-5.4-11.8-8.6-19.7-8c-11.1,1-20.1,10-21.1,21.1c-0.2,2.2-0.1,4.3,0.3,6.3
		c0.8,4.6-0.9,9.3-4.7,12.1c-16,11.9-29.7,26.5-40.5,43.3c-0.9,1.3-2.2,2.1-3.8,2.2c-1.1,0.1-2.3,0.5-3.5,1.5
		c-1.6,1.3-2.8,3.2-2.8,5.2c0,1.1,0.2,2.1,0.6,3c0.7,1.5,0.7,3.2,0,4.7C6.2,146.5,0,171.4,0,197.8H332.1z"/>
	<circle class="st0" cx="17.3" cy="99.9" r="4.1"/>
	<circle class="st0" cx="55.7" cy="36.1" r="10.3"/>
	<circle class="st0" cx="73.6" cy="19" r="5.5"/>
</g>
<g>
	<path class="st6" d="M329.3,93.3c1.4-5.6-2.1-11.4-7.9-12.5c-5-1-10,1.9-11.7,6.7c-1.6,4.6,0.3,9.3,4,11.8c1.1,0.8,1.7,2.1,1.3,3.4
		l-1.3,5.1c-0.2,0.7,0.2,1.4,0.9,1.6l0,0c0.7,0.2,1.4-0.2,1.6-0.9l1.3-5.1c0.3-1.3,1.5-2.3,2.8-2.4
		C324.6,100.6,328.2,97.6,329.3,93.3z"/>
	<circle class="st7" cx="319.4" cy="90.8" r="5.1"/>
</g>
<circle class="st8" cx="139.9" cy="83.8" r="8.3"/>
<circle class="st8" cx="117.2" cy="75.5" r="5"/>
<g>
	<path class="st8" d="M365.9,127.8c-1.4-13-11.8-23.5-24.8-25c-5.2-0.6-10.2,0.2-14.7,2.1c-5.3,2.3-11.5,1.6-16-2.1
		c-21.1-17.1-47.9-27.3-77.1-27.3c-30.1,0-57.7,10.9-79,28.9c-2.5,2.1-6,2.5-8.8,0.9c-3.7-2.1-8.2-3.1-12.9-2.5
		c-9.2,1.2-16.6,8.7-17.7,17.9c-0.8,6.7,1.6,12.8,5.9,17.1c2.3,2.3,2.8,5.8,1.4,8.7c-7.3,15.6-11.3,33.1-11.3,51.5h244.9
		c0-10.6-1.4-20.9-3.9-30.6c-1.4-5.6,0.5-11.4,4.7-15.3C363.1,146.3,366.9,137.5,365.9,127.8z"/>
	<circle class="st8" cx="368.7" cy="165.8" r="9.3"/>
	<circle class="st8" cx="375.3" cy="145.9" r="4.7"/>
</g>
<circle class="st0" cx="263.2" cy="9.3" r="4.1"/>
<g>
	<path class="st9" d="M303.7,167.1H57.1c-4.3,0-7.8,3.1-7.8,6.9l0,0c0,1.5,1.4,2.8,3.2,2.8h255.9c1.7,0,3.2-1.2,3.2-2.8l0,0
		C311.5,170.2,308,167.1,303.7,167.1z"/>
	<path class="st10" d="M303.7,167.1H57.1c-4.3,0-7.8,3.1-7.8,6.9l0,0c0,1.5,1.4,2.8,3.2,2.8h255.9c1.7,0,3.2-1.2,3.2-2.8l0,0
		C311.5,170.2,308,167.1,303.7,167.1z"/>
</g>
<ellipse class="st11" cx="175.7" cy="174.6" rx="130.3" ry="8"/>
<g>
	<g>
		<path class="st12" d="M70.7,109.5h19.5c0.7,0,1.3-0.6,1.3-1.3V91.8c0-0.7-0.6-1.3-1.3-1.3H70.7c-0.7,0-1.3,0.6-1.3,1.3v16.4
			C69.4,108.9,70,109.5,70.7,109.5z"/>
		<path class="st13" d="M95.8,109.5H85.4c-0.7,0-1.3-0.6-1.3-1.3V91.8c0-0.7,0.6-1.3,1.3-1.3h10.5c0.7,0,1.3,0.6,1.3,1.3v16.4
			C97.2,108.9,96.6,109.5,95.8,109.5z"/>
		<path class="st14" d="M77,92.8l-2.3,8.8h1.9c0.9,0,1.7-0.6,2-1.5l1.9-7.3H77z"/>
		<path class="st15" d="M75.8,102.8c1.2,0,2.1,1,2.1,2.1c0,1.2-1,2.1-2.1,2.1c-1.2,0-2.1-1-2.1-2.1
			C73.7,103.8,74.6,102.8,75.8,102.8z"/>
	</g>
	<g>
		<path class="st12" d="M95.9,109.5h30.3c1.2,0,2.1-0.9,2.1-2.1V82c0-1.2-0.9-2.1-2.1-2.1H95.9c-1.2,0-2.1,0.9-2.1,2.1v25.4
			C93.8,108.6,94.7,109.5,95.9,109.5z"/>
		<path class="st13" d="M134.9,109.5h-16.2c-1.2,0-2.1-0.9-2.1-2.1V82c0-1.2,0.9-2.1,2.1-2.1h16.2c1.2,0,2.1,0.9,2.1,2.1v25.4
			C137,108.6,136,109.5,134.9,109.5z"/>
		<path class="st14" d="M105.6,83.6L102,97.2h3c1.4,0,2.7-1,3-2.3l2.9-11.3H105.6z"/>
		<path class="st15" d="M103.8,99.2c1.8,0,3.3,1.5,3.3,3.3c0,1.8-1.5,3.3-3.3,3.3c-1.8,0-3.3-1.5-3.3-3.3
			C100.5,100.6,102,99.2,103.8,99.2z"/>
	</g>
	<g>
		<path class="st16" d="M256,96.1h3.6c0.9,0,1.6-0.7,1.6-1.6v-6.7c0-0.9-0.7-1.6-1.6-1.6H256c-0.9,0-1.6,0.7-1.6,1.6v6.7
			C254.3,95.3,255.1,96.1,256,96.1z"/>
		<path class="st17" d="M256,96.1h3.6c0.9,0,1.6-0.7,1.6-1.6v-6.7c0-0.9-0.7-1.6-1.6-1.6H256c-0.9,0-1.6,0.7-1.6,1.6v6.7
			C254.3,95.3,255.1,96.1,256,96.1z"/>
		<path class="st16" d="M254.6,90.6c-0.4,0.4-1.1,1-1.8,1.3c-0.4,0.2-0.6,0.5-0.7,0.9l-0.2,2.4c0,0.6,0.4,1.1,1,1.1h1.6
			c0.2,0,0.3,0,0.5-0.1l1.7-0.9c0.3-0.2,0.6-0.5,0.6-0.9v-3.1c0-0.6-0.5-1.1-1.1-1.1h-1C255,90.3,254.8,90.4,254.6,90.6z"/>
		<path class="st18" d="M254.6,90.6c-0.4,0.4-1.1,1-1.8,1.3c-0.4,0.2-0.6,0.5-0.7,0.9l-0.2,2.4c0,0.6,0.4,1.1,1,1.1h1.6
			c0.2,0,0.3,0,0.5-0.1l1.7-0.9c0.3-0.2,0.6-0.5,0.6-0.9v-3.1c0-0.6-0.5-1.1-1.1-1.1h-1C255,90.3,254.8,90.4,254.6,90.6z"/>
	</g>
	<g>
		<path d="M268.8,130.5c1.4,0,6.5,0,7.9,0c8.8,0,15.9,9.8,15.9,21.9c0,12.1-7.1,21.9-15.9,21.9c-1.4,0-6.5,0-7.9,0
			c-8.8,0-15.9-9.8-15.9-21.9C252.9,140.3,260,130.5,268.8,130.5z"/>
	</g>
	<g>
		<path d="M158.7,130.5c1.4,0,6.5,0,7.9,0c8.8,0,15.9,9.8,15.9,21.9c0,12.1-7.1,21.9-15.9,21.9c-1.4,0-6.5,0-7.9,0
			c-8.8,0-15.9-9.8-15.9-21.9C142.9,140.3,150,130.5,158.7,130.5z"/>
	</g>
	<path class="st7" d="M76.8,141.9h8.1l7.9,6.1h36.7c0,0,2.3,2.8,8,2.8c5.7,0,7-2.4,7-2.4h21.3l2.6,2.4h37.9l5.9-2.6h31.6
		c0,0,1.6,2.6,7.5,2.6c5.8,0,8.4-2.8,8.4-2.8h8.8c3.9,0,7.5-1.5,9-3.8l9.9-15.6H76.8V141.9z"/>
	<g>
		<path d="M207.2,130.5c1.4,0,6.5,0,7.9,0c8.8,0,15.9,9.8,15.9,21.9c0,12.1-7.1,21.9-15.9,21.9c-1.4,0-6.5,0-7.9,0
			c-8.8,0-15.9-9.8-15.9-21.9C191.3,140.3,198.4,130.5,207.2,130.5z"/>
		<path class="st19" d="M204.7,132.1c7.3,0,13.3,9.1,13.3,20.4c0,11.3-5.9,20.4-13.3,20.4c-7.3,0-13.3-9.1-13.3-20.4
			C191.4,141.2,197.4,132.1,204.7,132.1z"/>
		<path class="st19" d="M203.6,141.4c4,0,7.2,4.9,7.2,11c0,6.1-3.2,11-7.2,11c-4,0-7.2-4.9-7.2-11
			C196.4,146.4,199.6,141.4,203.6,141.4z"/>
		<path class="st20" d="M206.3,146.9c2,0,3.6,2.5,3.6,5.5c0,3-1.6,5.5-3.6,5.5c-2,0-3.6-2.5-3.6-5.5
			C202.7,149.4,204.3,146.9,206.3,146.9z"/>
	</g>
	<g>
		<path d="M97.1,130.5c1.4,0,6.5,0,7.9,0c8.8,0,15.9,9.8,15.9,21.9c0,12.1-7.1,21.9-15.9,21.9c-1.4,0-6.5,0-7.9,0
			c-8.8,0-15.9-9.8-15.9-21.9C81.2,140.3,88.4,130.5,97.1,130.5z"/>
		<path class="st19" d="M94.6,132.1c7.3,0,13.3,9.1,13.3,20.4c0,11.3-5.9,20.4-13.3,20.4c-7.3,0-13.3-9.1-13.3-20.4
			C81.4,141.2,87.3,132.1,94.6,132.1z"/>
		<path class="st19" d="M93.5,141.4c4,0,7.2,4.9,7.2,11c0,6.1-3.2,11-7.2,11c-4,0-7.2-4.9-7.2-11C86.3,146.4,89.5,141.4,93.5,141.4z
			"/>
		<path class="st20" d="M96.2,146.9c1.9,0,3.4,2.4,3.4,5.3c0,2.9-1.5,5.3-3.4,5.3c-1.9,0-3.4-2.4-3.4-5.3
			C92.8,149.3,94.3,146.9,96.2,146.9z"/>
	</g>
	<path class="st21" d="M299.2,113.1v40.2h-72.4l-5.1-14.3c-0.7-2-2.1-3.6-3.8-4.7c-1.4-0.8-3-1.3-4.6-1.3h-11c-4,0-7.6,2.7-8.7,6.6
		l-3.8,13.7h-74l-4.4-14c-1.2-3.7-4.6-6.3-8.6-6.3H92.3c-2.3,0-4.3,0.8-5.9,2.2c-1.3,1.2-2.3,2.7-2.8,4.5l-3.4,13.5H60.6v-42
		c0-1,0.8-1.9,1.9-1.9h72c0,0,2.3-25.1,7.5-38c0.5-1.2,1.5-2.1,2.8-2.4c3.3-0.7,11.3-1.9,29.6-1.9c49.9,0,60.1,3.1,60.1,3.1
		c14.6,10.5,28,27.2,28,27.2c1.2,0.2,2.3,0.4,3.5,0.7c7.9,1.6,14.2,3.5,19,5.2c5.6,2,9.2,3.9,11.4,5.2c0.1,0.1,0.2,0.1,0.3,0.2
		c0,0,0.1,0,0.1,0.1C298.3,109.7,299.2,111.3,299.2,113.1z"/>
	<path class="st22" d="M303.8,131.5v21.6c0,2.4-1.9,4.3-4.3,4.3h-68.1c-2.4,0-3.8-2-4.5-4.1l-5.1-14.3c-0.7-2-2.1-3.6-3.8-4.7
		c0-2.4,10.4-7,12.8-7h17.4l2.7,5.9c0.8,1.7,2.4,2.7,4.3,2.7H285c2.2,0,4.1-1.7,4.2-3.9l0.4-4.7h9.9
		C301.9,127.2,303.8,129.1,303.8,131.5z"/>
	<path class="st7" d="M259.2,97.7h-6.4l-12.8-1.6H218l-7.1,1.6h-18.8c0,0-2.9-17-7.9-27.3c0,0,29.1-1,50.1,2
		C234.2,72.4,244.7,78.9,259.2,97.7z"/>
	<path class="st7" d="M186.1,97.7h-29.6c-0.9,0-1.7-0.4-2.3-1l-2.1-2.3c-0.6-0.6-1.4-1-2.3-1H138c1.9-10.9,4.8-17.1,6-21
		c0.4-1.2,1.4-2,2.6-2.1c1.7-0.1,3.4-0.2,5-0.3c0.7,0,1.4-0.1,2.1-0.1c13.8-0.5,26.4,0.3,26.4,0.3c1.7,3.1,3.6,13.4,4.8,20.5l0,0
		C185.6,94.7,186.1,97.7,186.1,97.7z"/>
	<path class="st21" d="M233.1,127.7l-5.2,0c-0.8,0-1.4-0.6-1.4-1.4v-10.5c0-1.3,1-2.3,2.3-2.3h5.5c-1.3,0-2.3,1-2.3,2.3v10.5
		C232,127,232.5,127.6,233.1,127.7z"/>
	<path class="st21" d="M232,126.4v-10.5c0-1.3,1-2.3,2.3-2.3h6.2c0.9,0,1.7,0.5,2.1,1.4l5,11.1c0.3,0.8-0.2,1.7-1.1,1.7l-13.1,0.1
		C232.7,127.8,232,127.2,232,126.4z"/>
	<path class="st21" d="M297.4,113.6h-5c-0.9,0-1.7,0.7-1.8,1.6l-1,11.1c-0.1,0.7,0.5,1.4,1.3,1.4h8.1v-11.8c0-0.7-0.3-1.4-0.9-1.8
		L297.4,113.6z"/>
	<path class="st23" d="M232,126.4v-10.5c0-1.3,1-2.3,2.3-2.3h6.2c0.9,0,1.7,0.5,2.1,1.4l5,11.1c0.3,0.8-0.2,1.7-1.1,1.7l-13.1,0.1
		C232.7,127.8,232,127.2,232,126.4z"/>
	<path class="st23" d="M297.4,113.6h-5c-0.9,0-1.7,0.7-1.8,1.6l-1,11.1c-0.1,0.7,0.5,1.4,1.3,1.4h8.1v-11.8c0-0.7-0.3-1.4-0.9-1.8
		L297.4,113.6z"/>
	<path class="st24" d="M233.1,127.7l-5.2,0c-0.8,0-1.4-0.6-1.4-1.4v-10.5c0-1.3,1-2.3,2.3-2.3h5.5c-1.3,0-2.3,1-2.3,2.3v10.5
		C232,127,232.5,127.6,233.1,127.7z"/>
	<path class="st21" d="M300.8,115.8v11.8h-1.8v-11.8c0-0.7-0.3-1.4-0.9-1.8l-0.6-0.5h1.8l0.6,0.5
		C300.4,114.5,300.8,115.1,300.8,115.8z"/>
	<path class="st24" d="M300.8,115.8v11.8h-1.8v-11.8c0-0.7-0.3-1.4-0.9-1.8l-0.6-0.5h1.8l0.6,0.5
		C300.4,114.5,300.8,115.1,300.8,115.8z"/>
	<path class="st25" d="M228.8,113.6h5.5c-1.3,0-2.3,1-2.3,2.3v4.8h-5.5v-4.8C226.5,114.6,227.5,113.6,228.8,113.6z"/>
	<path class="st25" d="M300.8,115.8v4.8h-1.8v-4.8c0-0.7-0.3-1.4-0.9-1.8l-0.6-0.5h1.8l0.6,0.5C300.4,114.5,300.8,115.1,300.8,115.8
		z"/>
	<g>
		<path class="st16" d="M286.6,115.3l-1.4,17.1c0,0.3-0.1,0.7-0.3,0.9h-29.7c-0.9,0-1.7-0.5-2-1.3l-8.1-17.7c0-0.1,0-0.1-0.1-0.2
			h40.6C286.2,114.2,286.7,114.7,286.6,115.3z"/>
		<path class="st7" d="M287.1,113.4h-41.5c-0.4,0-0.7,0.4-0.7,0.7c0,0.1,0,0.1,0.1,0.2l3.8,8.2l0.6,1.2l3.8,8.3
			c0.4,0.8,1.2,1.3,2,1.3h29.7h0.1c0.9,0,1.7-0.7,1.8-1.6l1.4-17.1C288.2,114,287.8,113.4,287.1,113.4z"/>
	</g>
	<path class="st22" d="M86.4,135.2c-1.3,1.2-2.3,2.7-2.8,4.5l-3.4,13.5l0,0c-0.5,1-1.6,1.7-2.7,1.7H62.3c-1.6,0-2.9-1.3-2.9-2.9
		v-22.4c0-1.3,0.8-2.5,1.9-2.9h0l1,0h17.1c1.2,0,2.4,0.7,3,1.7L86.4,135.2z"/>
	<path class="st19" d="M67.3,110.5v16.1h-6.7v-15.2c0-1.1,1-2.1,2.2-2.1H66C66.7,109.4,67.3,109.9,67.3,110.5z"/>
	<path class="st25" d="M67.3,110.3v4.2h-6.7v-3.4c0-1,1-1.7,2.2-1.7H66C66.7,109.4,67.3,109.8,67.3,110.3z"/>
	<rect x="60.6" y="114.5" class="st24" width="6.7" height="6.2"/>
	<path class="st26" d="M119.3,148.8c14.3-0.1,52.2-0.1,66.5-0.1c0.6,0,0.6-0.6,1.3-1.3"/>
	<path class="st26" d="M186.1,99.7c0,0-2.5,22.3,0,44.9"/>
	<path class="st26" d="M191.3,99.8c10.6,5.5,22.3,9.4,33.9,12.3"/>
	<path class="st19" d="M153.8,69.9c-2.5,9.6-3.8,18.7-4.3,23.4h-2.8c1.5-11.7,4.9-23.4,4.9-23.4C152.4,70,153.1,70,153.8,69.9z"/>
	<path class="st26" d="M152.3,70.3c0,0-3.2,11.7-4.3,22.2"/>
	<path class="st26" d="M148,94.6c0,0-2.7,22-1.2,50"/>
	<path class="st7" d="M157.4,107H152c-1,0-1.9-0.8-1.9-1.9l0,0c0-1,0.8-1.9,1.9-1.9h5.4c1,0,1.9,0.8,1.9,1.9l0,0
		C159.3,106.2,158.4,107,157.4,107z"/>
	<g>
		<path class="st19" d="M186.1,97.7h-6.5l0.4-6c0-0.5,0.5-0.9,1-0.9h4l0,0C185.6,94.7,186.1,97.7,186.1,97.7z"/>
		<path class="st16" d="M179.9,96.1h-3.6c-0.9,0-1.6-0.7-1.6-1.6v-6.7c0-0.9,0.7-1.6,1.6-1.6h3.6c0.9,0,1.6,0.7,1.6,1.6v6.7
			C181.6,95.3,180.8,96.1,179.9,96.1z"/>
		<path class="st17" d="M179.9,96.1h-3.6c-0.9,0-1.6-0.7-1.6-1.6v-6.7c0-0.9,0.7-1.6,1.6-1.6h3.6c0.9,0,1.6,0.7,1.6,1.6v6.7
			C181.6,95.3,180.8,96.1,179.9,96.1z"/>
		<path class="st16" d="M181.3,90.6c0.4,0.4,1.1,1,1.8,1.3c0.4,0.2,0.6,0.5,0.7,0.9l0.2,2.4c0,0.6-0.4,1.1-1,1.1h-1.6
			c-0.2,0-0.3,0-0.5-0.1l-1.7-0.9c-0.3-0.2-0.6-0.5-0.6-0.9v-3.1c0-0.6,0.5-1.1,1.1-1.1h1C180.8,90.3,181.1,90.4,181.3,90.6z"/>
		<path class="st18" d="M181.3,90.6c0.4,0.4,1.1,1,1.8,1.3c0.4,0.2,0.6,0.5,0.7,0.9l0.2,2.4c0,0.6-0.4,1.1-1,1.1h-1.6
			c-0.2,0-0.3,0-0.5-0.1l-1.7-0.9c-0.3-0.2-0.6-0.5-0.6-0.9v-3.1c0-0.6,0.5-1.1,1.1-1.1h1C180.8,90.3,181.1,90.4,181.3,90.6z"/>
	</g>
</g>
<g>
	<path class="st27" d="M71.4,135.1c-1.5-11.5-12.3-19.6-23.9-17.6c-10,1.8-17.3,10.9-16.8,21c0.4,9.6,7.3,17.2,16,19.1
		c2.7,0.6,4.7,2.7,5,5.4l1.3,10.4c0.2,1.4,1.4,2.4,2.8,2.2l0,0c1.4-0.2,2.4-1.4,2.2-2.8l-1.3-10.4c-0.3-2.7,1.1-5.3,3.5-6.5
		C67.8,152.1,72.5,143.9,71.4,135.1z"/>
	<circle class="st7" cx="51.1" cy="137.6" r="10.2"/>
</g>
<circle class="st6" cx="269.4" cy="49.2" r="2.2"/>
<circle class="st6" cx="92" cy="41.3" r="3.6"/>
<circle class="st6" cx="258.3" cy="53.2" r="5.1"/>
</svg>
