<?xml version="1.0" encoding="utf-8"?>
<!-- Generator: Adobe Illustrator 26.0.2, SVG Export Plug-In . SVG Version: 6.00 Build 0)  -->
<svg version="1.1" id="Layer_1" xmlns="http://www.w3.org/2000/svg" xmlns:xlink="http://www.w3.org/1999/xlink" x="0px" y="0px"
	 viewBox="0 0 128 128" style="enable-background:new 0 0 128 128;" xml:space="preserve">
<style type="text/css">
	.st0{fill:url(#SVGID_1_);}
	.st1{fill:url(#SVGID_00000001630656226459502450000005323617925783606924_);}
	.st2{fill:url(#SVGID_00000162325174473329810230000011088524923464125071_);}
	.st3{fill:url(#SVGID_00000072978068106658760060000015079257022656387216_);}
	.st4{fill:url(#SVGID_00000061444990652956602630000005125624561837176249_);}
	.st5{fill:url(#SVGID_00000049937785948261610160000012186484771706107568_);}
	.st6{fill:url(#SVGID_00000018195153832832391990000017713194163477132441_);}
	.st7{fill:url(#SVGID_00000010293061360180531640000016778376389090825133_);}
	.st8{fill:url(#SVGID_00000011711589366367463230000018386346329430731913_);}
	.st9{fill:url(#SVGID_00000060002984879585694610000000666479582294256804_);}
	.st10{fill:url(#SVGID_00000036935702454672628920000015182586531214182798_);}
	.st11{fill:url(#SVGID_00000119075773477625709260000007191518450799969154_);}
	.st12{fill:url(#SVGID_00000089559996318404421550000002013595187907496363_);}
	.st13{fill:url(#SVGID_00000181045143638458562810000010898720406028987549_);}
	.st14{fill:url(#SVGID_00000072979985855350338620000001259861618957100222_);}
</style>
<linearGradient id="SVGID_1_" gradientUnits="userSpaceOnUse" x1="41.9205" y1="-78.7455" x2="58.8207" y2="-78.7455" gradientTransform="matrix(1 0 0 -1 0 128.3465)">
	<stop  offset="0" style="stop-color:#FEE7E7"/>
	<stop  offset="0.6648" style="stop-color:#FFFFFF"/>
</linearGradient>
<path class="st0" d="M41.9,206.9c0-4.5,3.6-8.2,8.2-8.2c0.1,0,0.1,0,0.2,0c4.6-0.1,8.4,3.6,8.5,8.3c0,0.1,0,0.2,0,0.3
	c-0.1,4.6-3.9,8.3-8.5,8.3c-4.6,0-8.4-3.7-8.4-8.4C41.9,207.1,41.9,207,41.9,206.9z"/>
<g>
	
		<linearGradient id="SVGID_00000173136886312663545340000011945031231316519062_" gradientUnits="userSpaceOnUse" x1="63.1535" y1="-355.1175" x2="64.8238" y2="-483.1377" gradientTransform="matrix(1 0 0 1 0 484)">
		<stop  offset="0" style="stop-color:#F80905"/>
		<stop  offset="1" style="stop-color:#FE9996"/>
	</linearGradient>
	<path style="fill:url(#SVGID_00000173136886312663545340000011945031231316519062_);" d="M30.8,128h69c15.6,0,28.2-12.6,28.2-28.2
		c0,0,0,0,0,0V28.2C128,12.6,115.4,0,99.8,0H28.2C12.6,0,0,12.6,0,28.2v69C0,114.2,13.8,128,30.8,128z"/>
	
		<linearGradient id="SVGID_00000096047612072480672580000009210929350127934086_" gradientUnits="userSpaceOnUse" x1="-398.7725" y1="-355.1175" x2="-397.1021" y2="-483.1377" gradientTransform="matrix(-1 0 0 1 -333.9259 484)">
		<stop  offset="0" style="stop-color:#F80905"/>
		<stop  offset="1" style="stop-color:#FE9996"/>
	</linearGradient>
	<path style="fill:url(#SVGID_00000096047612072480672580000009210929350127934086_);" d="M97.2,128h-69C12.6,128,0,115.4,0,99.8
		c0,0,0,0,0,0V28.2C0,12.6,12.6,0,28.2,0h71.6C115.4,0,128,12.6,128,28.2v69C128,114.2,114.2,128,97.2,128z"/>
	
		<linearGradient id="SVGID_00000011750698244390470490000011634881811256816299_" gradientUnits="userSpaceOnUse" x1="58.4955" y1="96.077" x2="62.7088" y2="96.077" gradientTransform="matrix(1 0 0 -1 0 128.3465)">
		<stop  offset="0" style="stop-color:#FEE7E7"/>
		<stop  offset="0.6648" style="stop-color:#FFFFFF"/>
	</linearGradient>
	<path style="fill:url(#SVGID_00000011750698244390470490000011634881811256816299_);" d="M58.5,32.2c0-1.1,0.9-2.1,2-2.1
		c0,0,0,0,0.1,0c1.2,0,2.1,0.9,2.1,2.1c0,0,0,0.1,0,0.1c0,1.1-1,2.1-2.1,2.1C59.4,34.4,58.5,33.4,58.5,32.2
		C58.5,32.3,58.5,32.2,58.5,32.2z"/>
	
		<linearGradient id="SVGID_00000026845289020311041840000014432822499107375259_" gradientUnits="userSpaceOnUse" x1="64.9703" y1="45.8736" x2="64.9703" y2="82.551" gradientTransform="matrix(1 0 0 -1 0 128.3465)">
		<stop  offset="0" style="stop-color:#FEE7E7"/>
		<stop  offset="0.6648" style="stop-color:#FFFFFF"/>
	</linearGradient>
	<path style="fill:url(#SVGID_00000026845289020311041840000014432822499107375259_);" d="M56.6,59.1c0-3.1,0-6.2,0-9.4
		c0-2.4,1.4-3.9,3.3-3.9c2,0,3.4,1.5,3.4,3.9c0,5.5,0,10.9,0,16.4c-0.1,1.1,0.4,2.2,1.3,3c2.5,2.4,4.9,4.8,7.3,7.3
		c1.8,1.8,1.9,3.7,0.4,5.2c-1.5,1.4-3.4,1.3-5.1-0.5c-3.1-3-6.1-6.1-9.2-9.1c-1-0.9-1.5-2.2-1.4-3.5C56.7,65.3,56.6,62.2,56.6,59.1z
		"/>
	
		<linearGradient id="SVGID_00000068676254474058975550000017386983129619179431_" gradientUnits="userSpaceOnUse" x1="499.7014" y1="-994.495" x2="503.9146" y2="-994.495" gradientTransform="matrix(6.123234e-17 -1 -1 -6.123234e-17 -968.0078 566.999)">
		<stop  offset="0" style="stop-color:#FEE7E7"/>
		<stop  offset="0.6648" style="stop-color:#FFFFFF"/>
	</linearGradient>
	<path style="fill:url(#SVGID_00000068676254474058975550000017386983129619179431_);" d="M26.4,67.3c-1.1,0-2.1-0.9-2.1-2
		c0,0,0,0,0-0.1c0-1.2,0.9-2.1,2.1-2.1c0,0,0.1,0,0.1,0c1.1,0,2.1,1,2.1,2.1C28.6,66.4,27.7,67.3,26.4,67.3
		C26.5,67.3,26.5,67.3,26.4,67.3z"/>
	
		<linearGradient id="SVGID_00000038411227879661081370000011725206642982850946_" gradientUnits="userSpaceOnUse" x1="499.7014" y1="-1061.8988" x2="503.9146" y2="-1061.8988" gradientTransform="matrix(6.123234e-17 -1 -1 -6.123234e-17 -968.0078 566.999)">
		<stop  offset="0" style="stop-color:#FEE7E7"/>
		<stop  offset="0.6648" style="stop-color:#FFFFFF"/>
	</linearGradient>
	<path style="fill:url(#SVGID_00000038411227879661081370000011725206642982850946_);" d="M93.8,67.3c-1.1,0-2.1-0.9-2.1-2
		c0,0,0,0,0-0.1c0-1.2,0.9-2.1,2.1-2.1c0,0,0.1,0,0.1,0c1.1,0,2.1,1,2.1,2.1C96,66.4,95.1,67.3,93.8,67.3
		C93.9,67.3,93.9,67.3,93.8,67.3z"/>
	
		<linearGradient id="SVGID_00000123424988871702415680000003584175986985433783_" gradientUnits="userSpaceOnUse" x1="-766.6843" y1="-72.2674" x2="-762.471" y2="-72.2674" gradientTransform="matrix(0.5 0.866 0.866 -0.5 476.7668 709.2221)">
		<stop  offset="0" style="stop-color:#FEE7E7"/>
		<stop  offset="0.6648" style="stop-color:#FFFFFF"/>
	</linearGradient>
	<path style="fill:url(#SVGID_00000123424988871702415680000003584175986985433783_);" d="M30.9,81.4c1-0.6,2.2-0.2,2.8,0.7
		c0,0,0,0,0,0c0.6,1,0.3,2.3-0.7,2.9c0,0,0,0-0.1,0c-1,0.5-2.3,0.2-2.9-0.8C29.5,83.3,29.8,82,30.9,81.4
		C30.8,81.4,30.9,81.4,30.9,81.4z"/>
	
		<linearGradient id="SVGID_00000054961423564990640690000015444242898635865754_" gradientUnits="userSpaceOnUse" x1="398.7607" y1="-169.3153" x2="402.9739" y2="-169.3153" gradientTransform="matrix(0.866 -0.5 -0.5 -0.866 -387.1215 90.2292)">
		<stop  offset="0" style="stop-color:#FEE7E7"/>
		<stop  offset="0.6648" style="stop-color:#FFFFFF"/>
	</linearGradient>
	<path style="fill:url(#SVGID_00000054961423564990640690000015444242898635865754_);" d="M42.8,37.4c-0.6-1-0.2-2.2,0.7-2.8
		c0,0,0,0,0,0c1-0.6,2.3-0.3,2.9,0.7c0,0,0,0,0,0.1c0.5,1,0.2,2.3-0.8,2.9C44.7,38.8,43.5,38.5,42.8,37.4
		C42.9,37.5,42.9,37.5,42.8,37.4z"/>
	
		<linearGradient id="SVGID_00000039127268782019513310000015023392105478959546_" gradientUnits="userSpaceOnUse" x1="398.7607" y1="-236.7191" x2="402.9739" y2="-236.7191" gradientTransform="matrix(0.866 -0.5 -0.5 -0.866 -387.1215 90.2292)">
		<stop  offset="0" style="stop-color:#FEE7E7"/>
		<stop  offset="0.6648" style="stop-color:#FFFFFF"/>
	</linearGradient>
	<path style="fill:url(#SVGID_00000039127268782019513310000015023392105478959546_);" d="M76.5,95.8c-0.6-1-0.2-2.2,0.7-2.8
		c0,0,0,0,0,0c1-0.6,2.3-0.3,2.9,0.7c0,0,0,0,0,0.1c0.5,1,0.2,2.3-0.8,2.9C78.5,97.2,77.2,96.9,76.5,95.8
		C76.6,95.8,76.6,95.8,76.5,95.8z"/>
	
		<linearGradient id="SVGID_00000032647033129812839350000010857261277354530965_" gradientUnits="userSpaceOnUse" x1="-367.8202" y1="88.0088" x2="-363.6069" y2="88.0088" gradientTransform="matrix(0.866 0.5 0.5 -0.866 316.2061 354.9124)">
		<stop  offset="0" style="stop-color:#FEE7E7"/>
		<stop  offset="0.6648" style="stop-color:#FFFFFF"/>
	</linearGradient>
	<path style="fill:url(#SVGID_00000032647033129812839350000010857261277354530965_);" d="M41.7,94.7c0.6-1,1.8-1.3,2.8-0.8
		c0,0,0,0,0,0c1,0.6,1.4,1.8,0.8,2.8c0,0,0,0,0,0.1c-0.6,1-1.9,1.3-2.9,0.7C41.4,97.1,41.1,95.8,41.7,94.7
		C41.7,94.8,41.7,94.8,41.7,94.7z"/>
	
		<linearGradient id="SVGID_00000103978356177799279920000005217566753789695658_" gradientUnits="userSpaceOnUse" x1="559.0369" y1="-568.1793" x2="563.2501" y2="-568.1793" gradientTransform="matrix(0.5 -0.866 -0.866 -0.5 -741.4396 250.793)">
		<stop  offset="0" style="stop-color:#FEE7E7"/>
		<stop  offset="0.6648" style="stop-color:#FFFFFF"/>
	</linearGradient>
	<path style="fill:url(#SVGID_00000103978356177799279920000005217566753789695658_);" d="M30.1,50.7c-1-0.6-1.3-1.8-0.8-2.8
		c0,0,0,0,0,0c0.6-1,1.8-1.4,2.8-0.8c0,0,0,0,0.1,0c1,0.6,1.3,1.9,0.7,2.9C32.4,51,31.2,51.3,30.1,50.7
		C30.1,50.7,30.1,50.7,30.1,50.7z"/>
	
		<linearGradient id="SVGID_00000070840352924793813970000000839645973117552817_" gradientUnits="userSpaceOnUse" x1="559.0369" y1="-635.5831" x2="563.2501" y2="-635.5831" gradientTransform="matrix(0.5 -0.866 -0.866 -0.5 -741.4396 250.793)">
		<stop  offset="0" style="stop-color:#FEE7E7"/>
		<stop  offset="0.6648" style="stop-color:#FFFFFF"/>
	</linearGradient>
	<path style="fill:url(#SVGID_00000070840352924793813970000000839645973117552817_);" d="M88.5,84.4c-1-0.6-1.3-1.8-0.8-2.8
		c0,0,0,0,0,0c0.6-1,1.8-1.4,2.8-0.8c0,0,0,0,0.1,0c1,0.6,1.3,1.9,0.7,2.9C90.8,84.7,89.5,85,88.5,84.4
		C88.5,84.4,88.5,84.4,88.5,84.4z"/>
	
		<linearGradient id="SVGID_00000065755674244779428890000014079171288007227799_" gradientUnits="userSpaceOnUse" x1="-2.1707" y1="84.3337" x2="-2.1707" y2="126.3521" gradientTransform="matrix(0.9912 0.1323 0.1323 -0.9912 78.8395 144.1582)">
		<stop  offset="0" style="stop-color:#FEE7E7"/>
		<stop  offset="0.6648" style="stop-color:#FFFFFF"/>
	</linearGradient>
	<path style="fill:url(#SVGID_00000065755674244779428890000014079171288007227799_);" d="M92.7,43.5c-2,1.6-3.6,3.3-5.5,4.6
		c-1.5,1.1-2.2,2.3-1.9,4.1c0.2,1,0,2.1,0.1,3.1c0.1,0.9-0.4,1.9-1.1,2.4c-0.5,0.4-0.9,0.8-1.4,1.2c-1.1,0.9-2.3,0.6-2.9-0.6
		c-0.9-2-1.8-4-2.8-6c-0.2-0.5-0.6-0.9-1.1-1.2c-1.7-1.3-3.5-2.4-5.3-3.7c-1.4-0.9-1.4-2.1-0.1-3.2c0.5-0.4,0.9-1,1.5-1.2
		c0.8-0.3,1.7-0.5,2.6-0.5c1.5,0.1,3,0.5,4.5,0.8c0.3,0.1,0.7,0,1-0.2c2.3-1.9,4.6-3.9,7.1-6c-0.6-0.3-0.9-0.5-1.2-0.6
		c-4.2-2-8.3-4-12.5-5.9c-1.7-0.8-1.8-1.9-0.4-3.2c1.6-1.7,3.4-2.1,5.7-1.6c5.4,1.2,10.9,2,16.4,3.1c0.6,0.1,1.2,0,1.7-0.5
		c2.4-2.1,4.7-4.2,7.2-6c1.2-0.8,2.5-1.4,3.9-1.6c3-0.5,5.1,1.9,4.2,4.9c-0.6,2.1-1.9,3.6-3.5,5c-2,1.7-4,3.3-6,4.9
		c-0.5,0.3-0.7,0.9-0.7,1.4c0.1,6.1,0.1,12.2,0.2,18.3c0,1.2-0.3,2.1-1.3,2.8c-0.3,0.2-0.6,0.5-0.9,0.8c-1.4,1.5-3,1.1-3.5-1.1
		c-1.1-4.3-2.4-8.6-3.6-12.9C93,44.5,92.9,44.2,92.7,43.5z"/>
	<g>
		
			<linearGradient id="SVGID_00000069390621499965570850000005630534271163919232_" gradientUnits="userSpaceOnUse" x1="60.6024" y1="19.4009" x2="60.6024" y2="106.9108" gradientTransform="matrix(1 0 0 -1 0 128.3465)">
			<stop  offset="0" style="stop-color:#FC9190"/>
			<stop  offset="0.3408" style="stop-color:#FEE7E7"/>
			<stop  offset="0.6899" style="stop-color:#FFFFFF"/>
		</linearGradient>
		<path style="fill:url(#SVGID_00000069390621499965570850000005630534271163919232_);" d="M102.1,60.9c-0.8,0.8-1.8,1.6-2.8,2.2
			c0,0.7,0.1,1.4,0.1,2.1C99.4,86.6,82,104,60.6,104S21.8,86.6,21.8,65.2c0-21.4,17.4-38.8,38.8-38.8c2.9,0,5.9,0.3,8.7,1
			c0.4-0.5,0.8-1,1.3-1.5c1-1,2-1.8,3.2-2.5c-4.3-1.4-8.7-2-13.2-2c-24.1,0-43.8,19.6-43.8,43.8c0,24.1,19.6,43.8,43.8,43.8
			c24.1,0,43.8-19.6,43.8-43.8c0-2.2-0.2-4.3-0.5-6.5C103.3,59.5,102.7,60.2,102.1,60.9z"/>
	</g>
</g>
</svg>
