<?xml version="1.0" encoding="utf-8"?>
<!-- Generator: Adobe Illustrator 26.0.2, SVG Export Plug-In . SVG Version: 6.00 Build 0)  -->
<svg version="1.1" id="Layer_1" xmlns="http://www.w3.org/2000/svg" xmlns:xlink="http://www.w3.org/1999/xlink" x="0px" y="0px"
	 viewBox="0 0 128 128" style="enable-background:new 0 0 128 128;" xml:space="preserve">
<style type="text/css">
	.st0{fill:url(#SVGID_1_);}
	.st1{fill:url(#SVGID_00000131340815798737781290000000835663821827852973_);}
	.st2{fill:url(#SVGID_00000025420116726167931140000001578216769135822987_);}
	.st3{fill:url(#SVGID_00000084498705040950611900000008075073748904582531_);}
</style>
<linearGradient id="SVGID_1_" gradientUnits="userSpaceOnUse" x1="63.1535" y1="-355.1175" x2="64.8238" y2="-483.1376" gradientTransform="matrix(1 0 0 1 0 484)">
	<stop  offset="0" style="stop-color:#F80905"/>
	<stop  offset="1" style="stop-color:#FE9996"/>
</linearGradient>
<path class="st0" d="M30.8,128h69c15.6,0,28.2-12.6,28.2-28.2c0,0,0,0,0,0V28.2C128,12.6,115.4,0,99.8,0H28.2C12.6,0,0,12.6,0,28.2
	v69C0,114.2,13.8,128,30.8,128z"/>
<linearGradient id="SVGID_00000156560820508015214520000005134023750264623269_" gradientUnits="userSpaceOnUse" x1="-3876.1035" y1="-355.2985" x2="-3874.4377" y2="-482.9615" gradientTransform="matrix(-1 0 0 1 -3811.2593 484)">
	<stop  offset="0" style="stop-color:#F80905"/>
	<stop  offset="1" style="stop-color:#FE9996"/>
</linearGradient>
<path style="fill:url(#SVGID_00000156560820508015214520000005134023750264623269_);" d="M97.1,127.8H28.3
	c-15.5,0-28.1-12.6-28.1-28.1c0,0,0,0,0,0V28.3c0-15.5,12.6-28.1,28.1-28.1h71.4c15.5,0,28.1,12.6,28.1,28.1v68.8
	C127.8,114.1,114.1,127.8,97.1,127.8z"/>
<linearGradient id="SVGID_00000051385943181690067600000008824452492778105745_" gradientUnits="userSpaceOnUse" x1="64.8288" y1="17.0427" x2="64.8288" y2="62.8208" gradientTransform="matrix(1 0 0 -1 0 128.3465)">
	<stop  offset="0" style="stop-color:#FC9190"/>
	<stop  offset="0.3408" style="stop-color:#FEE7E7"/>
	<stop  offset="0.6899" style="stop-color:#FFFFFF"/>
</linearGradient>
<path style="fill:url(#SVGID_00000051385943181690067600000008824452492778105745_);" d="M55,85.1c0-5.4,0-10.4,0-15.4
	c0-3.1,1.1-4.1,4.2-4.2c3.8,0,7.6,0,11.4,0c2.8,0,4,1.2,4,4c0,5.1,0,10.2,0,15.6c1.9,0,3.8,0,5.7,0c1.6,0,3,0.3,3.8,1.9
	c0.8,1.6,0.2,2.9-0.9,4.1c-5.1,6.2-10.3,12.3-15.4,18.5c-2,2.4-4,2.3-5.9,0c-5.1-6.2-10.3-12.3-15.4-18.5c-1-1.2-1.6-2.4-0.9-3.9
	c0.7-1.6,2-2.1,3.7-2C51.1,85.2,53.1,85.1,55,85.1z"/>
<linearGradient id="SVGID_00000163765046396838046690000006172159343857296314_" gradientUnits="userSpaceOnUse" x1="63.3423" y1="68.1978" x2="63.3423" y2="110.668" gradientTransform="matrix(1 0 0 -1 0 128.3465)">
	<stop  offset="0" style="stop-color:#FEE7E7"/>
	<stop  offset="0.6648" style="stop-color:#FFFFFF"/>
</linearGradient>
<path style="fill:url(#SVGID_00000163765046396838046690000006172159343857296314_);" d="M63.4,17.7c11.1,0,22.3,0,33.4,0
	c0.8,0,1.6,0,2.4,0.1c2.7,0.3,4.3,2.1,4.3,4.8c0,10.8,0,21.6,0,32.3c0,2.8-1.3,4.5-4.1,5c-0.8,0.1-1.6,0.2-2.3,0.2
	c-22.5,0-45,0-67.5,0c-1,0-2-0.1-2.9-0.3c-2.3-0.6-3.5-2.2-3.5-4.6c0-10.9,0-21.8,0-32.7c0-2.7,1.6-4.5,4.3-4.8
	c0.8-0.1,1.6-0.1,2.4-0.1C41,17.7,52.2,17.7,63.4,17.7z M65.5,31.3l0.4,0.7l10.9,6c-1.1,1-2.1,1.6-2.8,2.5c-1.6,2-3.3,3.3-5.9,2.1
	c-0.1,0-0.2-0.1-0.3,0c-0.6,0.4-1.3,0.7-1.8,1.3c-0.1,0.1,0.3,0.9,0.6,1.2c2.1,2.2,4.3,4.3,6.4,6.5c0.7,0.7,1.1,0.7,1.8,0
	c0.9-0.8,0.6-1.6,0.5-2.4c-0.1-1-0.5-2.3,0-2.9c1.3-1.8,3-3.3,4.7-5.2c2.2,4,4.1,7.5,6.1,11c2.6-1.4,3-2.1,2.2-4.6
	c-0.9-3-1.7-6-2.7-9c-0.4-1.3-0.4-2.2,0.8-3.1c1-0.7,1.9-1.7,2.8-2.6c1.4-1.4,1.5-3.1,0.4-4.3c-1.2-1.2-3-1.1-4.4,0.3
	c-1,1-2,2.1-3,3.2c-0.6,0.7-1.2,0.8-2,0.5c-3.5-1.1-7.1-2.2-10.7-3.2c-0.5-0.1-1-0.1-1.4,0.1C67,30,66.3,30.7,65.5,31.3z M42.5,31.7
	v4.7h5.4v-4.7L42.5,31.7z M42.5,41.4V46h5.4v-4.6L42.5,41.4z M42.6,51.1v4.6h5.3v-4.6H42.6z M42.5,26.8h5.4v-4.6h-5.4V26.8z"/>
</svg>
