<?xml version="1.0" encoding="utf-8"?>
<!-- Generator: Adobe Illustrator 26.0.2, SVG Export Plug-In . SVG Version: 6.00 Build 0)  -->
<svg version="1.1" id="Layer_1" xmlns="http://www.w3.org/2000/svg" xmlns:xlink="http://www.w3.org/1999/xlink" x="0px" y="0px"
	 viewBox="0 0 128 128" style="enable-background:new 0 0 128 128;" xml:space="preserve">
<style type="text/css">
	.st0{fill:url(#SVGID_1_);}
	.st1{fill:url(#SVGID_00000149381547513517333630000003522333066131335354_);}
	.st2{fill:url(#SVGID_00000009555358316232509760000017820872796083794610_);}
	.st3{fill:url(#SVGID_00000047753500841423286260000013743477761413715600_);}
	.st4{fill:url(#SVGID_00000067920462879673496930000002391237505081300877_);}
	.st5{fill:url(#SVGID_00000083087584136676140500000017254898709825144739_);}
</style>
<g>
	
		<linearGradient id="SVGID_1_" gradientUnits="userSpaceOnUse" x1="63.1535" y1="-355.1175" x2="64.8238" y2="-483.1377" gradientTransform="matrix(1 0 0 1 0 484)">
		<stop  offset="0" style="stop-color:#F80905"/>
		<stop  offset="1" style="stop-color:#FE9996"/>
	</linearGradient>
	<path class="st0" d="M30.8,128h69c15.6,0,28.2-12.6,28.2-28.2c0,0,0,0,0,0V28.2C128,12.6,115.4,0,99.8,0H28.2C12.6,0,0,12.6,0,28.2
		v69C0,114.2,13.8,128,30.8,128z"/>
	
		<linearGradient id="SVGID_00000006698127293594929240000003832112254990143391_" gradientUnits="userSpaceOnUse" x1="5339.894" y1="-355.1175" x2="5341.5645" y2="-483.1377" gradientTransform="matrix(-1 0 0 1 5404.7407 484)">
		<stop  offset="0" style="stop-color:#F80905"/>
		<stop  offset="1" style="stop-color:#FE9996"/>
	</linearGradient>
	<path style="fill:url(#SVGID_00000006698127293594929240000003832112254990143391_);" d="M97.2,128h-69C12.6,128,0,115.4,0,99.8
		c0,0,0,0,0,0V28.2C0,12.6,12.6,0,28.2,0h71.6C115.4,0,128,12.6,128,28.2v69C128,114.2,114.2,128,97.2,128z"/>
	
		<linearGradient id="SVGID_00000018203538804776623460000018228616380185530787_" gradientUnits="userSpaceOnUse" x1="88.1206" y1="73.8167" x2="88.1206" y2="112.0083" gradientTransform="matrix(1 0 0 -1 0 128.3465)">
		<stop  offset="0" style="stop-color:#FEE7E7"/>
		<stop  offset="0.6648" style="stop-color:#FFFFFF"/>
	</linearGradient>
	<path style="fill:url(#SVGID_00000018203538804776623460000018228616380185530787_);" d="M90.5,38.9c-1.6,1.7-2.9,3.4-4.4,4.8
		c-1.3,1.2-1.7,2.3-1.2,4c0.3,0.9,0.3,1.8,0.4,2.8c0.2,0.8-0.1,1.7-0.7,2.3c-0.4,0.4-0.7,0.8-1.1,1.2c-0.9,0.9-2,0.8-2.7-0.2
		c-1.1-1.7-2.1-3.4-3.2-5.1c-0.3-0.4-0.7-0.8-1.1-1c-1.7-0.9-3.5-1.8-5.2-2.7c-1.3-0.7-1.5-1.7-0.5-2.8c0.4-0.4,0.7-1,1.2-1.2
		c0.7-0.4,1.5-0.7,2.2-0.7c1.4-0.1,2.8,0.1,4.2,0.2c0.3,0,0.6-0.1,0.9-0.3c1.9-2,3.7-4,5.7-6.2c-0.5-0.2-0.8-0.3-1.1-0.4
		c-4-1.3-8-2.6-11.9-3.8C70.2,29,70,28.1,71,26.7c1.3-1.7,2.8-2.3,5-2.1c5,0.4,10.1,0.5,15.2,0.8c0.6,0.1,1.1-0.2,1.5-0.6
		c1.9-2.1,3.8-4.3,5.8-6.3c1-0.9,2.1-1.5,3.3-1.9c2.6-0.8,4.8,1.1,4.4,3.9c-0.3,1.9-1.3,3.5-2.6,4.9c-1.6,1.8-3.2,3.4-4.8,5.1
		c-0.4,0.3-0.5,0.9-0.4,1.4c0.8,5.5,1.6,11,2.4,16.5c0.2,1.1,0,2-0.8,2.7c-0.3,0.2-0.5,0.5-0.7,0.8c-1.1,1.6-2.5,1.4-3.3-0.6
		c-1.5-3.8-3.2-7.5-4.8-11.2C90.9,39.7,90.8,39.4,90.5,38.9z"/>
	
		<linearGradient id="SVGID_00000101787164548397281890000015453390226521545608_" gradientUnits="userSpaceOnUse" x1="43.8511" y1="15.0135" x2="43.8511" y2="100.1141" gradientTransform="matrix(1 0 0 -1 0 128.3465)">
		<stop  offset="0" style="stop-color:#FC9190"/>
		<stop  offset="0.3408" style="stop-color:#FEE7E7"/>
		<stop  offset="0.6899" style="stop-color:#FFFFFF"/>
	</linearGradient>
	<path style="fill:url(#SVGID_00000101787164548397281890000015453390226521545608_);" d="M63,92v7.9H25.3V41H63v22.1h4.2
		c0-8.4,0-16.8,0-25.2c0-6-3.6-9.6-9.6-9.6c-9.1,0-18.2,0-27.3,0c-6,0-9.8,3.7-9.8,9.7c0,11,0,21.9,0,32.9c0,11,0,21.9,0,32.9
		c0,5.9,3.7,9.6,9.5,9.6c9.2,0,18.4,0,27.6,0c5.8,0,9.5-3.7,9.5-9.4c0-3.9,0-7.9,0-11.8L63,92z M40.1,33.3h9.1
		c0.9,0,1.6,0.7,1.6,1.6c0,0.9-0.7,1.6-1.6,1.6h-9.1c-0.9,0-1.6-0.7-1.6-1.6C38.5,34,39.2,33.3,40.1,33.3z M36,33.3
		c0.9,0,1.6,0.7,1.6,1.6s-0.7,1.6-1.6,1.6s-1.6-0.7-1.6-1.6c0,0,0,0,0,0C34.4,34,35.1,33.3,36,33.3L36,33.3z M43.7,110.7
		c-2.2,0-3.9-1.8-3.9-3.9c0,0,0-0.1,0-0.1c0-2.2,1.8-3.9,4-3.9c2.2,0,3.9,1.8,3.9,4c0,0,0,0.1,0,0.1C47.6,109,45.8,110.7,43.7,110.7
		L43.7,110.7z"/>
	<g>
		
			<linearGradient id="SVGID_00000073719801333593683870000002390690301539118779_" gradientUnits="userSpaceOnUse" x1="95.9157" y1="32.5428" x2="95.9157" y2="68.8903" gradientTransform="matrix(1 0 0 -1 0 128.3465)">
			<stop  offset="0" style="stop-color:#FDAEAD"/>
			<stop  offset="0.6927" style="stop-color:#FEE7E7"/>
		</linearGradient>
		<path style="fill:url(#SVGID_00000073719801333593683870000002390690301539118779_);" d="M89.5,95.8V59.6c0.2-0.1,0.5-0.1,0.7-0.1
			c2.6,0,5.2,0,7.9,0c2.5,0,4.3,1.8,4.3,4.3c0,2.6,0,5.2,0,7.7c0,1.8-0.8,3.1-2.5,3.9c-0.9,0.4-1.6,1.1-1.6,2.1
			c0,1.1,0.6,1.8,1.6,2.2c1.6,0.8,2.4,2.1,2.4,3.9c0,2.5,0,5.1,0,7.6c0,2.6-1.8,4.4-4.4,4.4C95.2,95.8,92.3,95.8,89.5,95.8z"/>
		
			<linearGradient id="SVGID_00000090296519402022258630000007232825506584693922_" gradientUnits="userSpaceOnUse" x1="62.5791" y1="32.55" x2="62.5791" y2="68.8876" gradientTransform="matrix(1 0 0 -1 0 128.3465)">
			<stop  offset="0" style="stop-color:#FDAEAD"/>
			<stop  offset="0.6927" style="stop-color:#FEE7E7"/>
		</linearGradient>
		<path style="fill:url(#SVGID_00000090296519402022258630000007232825506584693922_);" d="M85.7,59.5v36.2c-0.4,0-0.8,0.1-1.2,0.1
			c-13.3,0-26.7,0-40,0c-3.3,0-4.9-1.7-4.9-4.9c0-2.3,0-4.7,0-7c0-1.9,0.8-3.3,2.5-4.1c0.9-0.4,1.5-1.1,1.5-2.2
			c0-1.1-0.6-1.7-1.5-2.2c-1.7-0.8-2.5-2.2-2.5-4.1c0-2.5,0-5,0-7.5c0-2.5,1.8-4.4,4.3-4.4c13.7,0,27.5,0,41.2,0
			C85.2,59.5,85.4,59.5,85.7,59.5z M52.5,71.6h27.6v-3.5H52.5V71.6z M80.1,75.5H52.6v3.5h27.6V75.5z M52.5,86.4h27.6v-3.5H52.5V86.4
			z"/>
	</g>
</g>
</svg>
