<?xml version="1.0" encoding="utf-8"?>
<!-- Generator: Adobe Illustrator 26.0.2, SVG Export Plug-In . SVG Version: 6.00 Build 0)  -->
<svg version="1.1" id="Layer_1" xmlns="http://www.w3.org/2000/svg" xmlns:xlink="http://www.w3.org/1999/xlink" x="0px" y="0px"
	 viewBox="0 0 128 128" style="enable-background:new 0 0 128 128;" xml:space="preserve">
<style type="text/css">
	.st0{fill:url(#SVGID_1_);}
	.st1{fill:url(#SVGID_00000158731842224004346870000005616289635196723330_);}
	.st2{fill:url(#SVGID_00000078752751802609869740000014785722489397830573_);}
	.st3{fill:url(#SVGID_00000126316768658898872320000005321909039849584530_);}
	.st4{fill:url(#SVGID_00000163060541022256620100000008668452977913478809_);}
	.st5{fill:#FFFFFF;}
</style>
<g>
	
		<linearGradient id="SVGID_1_" gradientUnits="userSpaceOnUse" x1="63.1535" y1="-355.1175" x2="64.8238" y2="-483.1377" gradientTransform="matrix(1 0 0 1 0 484)">
		<stop  offset="0" style="stop-color:#F80905"/>
		<stop  offset="1" style="stop-color:#FE9996"/>
	</linearGradient>
	<path class="st0" d="M30.8,128h69c15.6,0,28.2-12.6,28.2-28.2c0,0,0,0,0,0V28.2C128,12.6,115.4,0,99.8,0H28.2C12.6,0,0,12.6,0,28.2
		v69C0,114.2,13.8,128,30.8,128z"/>
	
		<linearGradient id="SVGID_00000010995825316995186770000003473693548405488814_" gradientUnits="userSpaceOnUse" x1="-2190.7725" y1="-355.1175" x2="-2189.1023" y2="-483.1377" gradientTransform="matrix(-1 0 0 1 -2125.926 484)">
		<stop  offset="0" style="stop-color:#F80905"/>
		<stop  offset="1" style="stop-color:#FE9996"/>
	</linearGradient>
	<path style="fill:url(#SVGID_00000010995825316995186770000003473693548405488814_);" d="M97.2,128h-69C12.6,128,0,115.4,0,99.8
		c0,0,0,0,0,0V28.2C0,12.6,12.6,0,28.2,0h71.6C115.4,0,128,12.6,128,28.2v69C128,114.2,114.2,128,97.2,128z"/>
	<g>
		
			<linearGradient id="SVGID_00000065771954514398918070000017733273114316141197_" gradientUnits="userSpaceOnUse" x1="54.2399" y1="21.3567" x2="54.2399" y2="71.7486" gradientTransform="matrix(1 0 0 -1 0 128.3465)">
			<stop  offset="0" style="stop-color:#FDAEAD"/>
			<stop  offset="0.6927" style="stop-color:#FEE7E7"/>
		</linearGradient>
		<path style="fill:url(#SVGID_00000065771954514398918070000017733273114316141197_);" d="M57.1,75c1.6-6.6,0.6-12.2-4-16.9
			c-0.8-0.8-1.8-1.3-2.9-1.5c-2.1-0.3-3.7,1.1-3.9,3.3c-0.3,2.5-0.7,5-0.7,7.5c0,2.6-1.6,3.5-3.5,4.3c-1.4,0.6-2.8,1.3-4.1,2.1
			c-1.3,0.8-1.9,1.9-1.9,3.5c0.1,8.2,0.1,16.5,0,24.7c0,1.2,0.4,1.6,1.4,2.3c3.9,2.3,8,2.7,12.3,2.6c4.1-0.1,8.2,0,12.4,0
			c4.8,0,7-2.9,5.9-7.5c-0.1-0.4,0.1-1,0.4-1.4c1.3-1.7,1.6-3.4,1-5.4c-0.1-0.5,0-1.1,0.3-1.5c1.3-1.7,1.6-3.4,1-5.4
			c-0.1-0.5-0.1-1.2,0.2-1.5c1.4-1.8,1.8-3.8,0.8-5.9c-1-2.2-2.8-3.2-5.1-3.2c-2.6,0-5.1,0-7.7,0C58.4,75,57.8,75,57.1,75z"/>
		
			<linearGradient id="SVGID_00000083795844129230709200000008649490081682047661_" gradientUnits="userSpaceOnUse" x1="25.7478" y1="24.904" x2="25.7478" y2="51.9727" gradientTransform="matrix(1 0 0 -1 0 128.3465)">
			<stop  offset="0" style="stop-color:#FDAEAD"/>
			<stop  offset="0.6927" style="stop-color:#FEE7E7"/>
		</linearGradient>
		<path style="fill:url(#SVGID_00000083795844129230709200000008649490081682047661_);" d="M33.1,76.4c-3.8,0-7.6-0.1-11.4,0
			c-1.8,0.1-3.2,1.5-3.2,3.3c0,6.7,0,13.5,0,20.2c0,1.9,1.6,3.3,3.7,3.4c3.6,0.1,7.2,0,10.9,0V76.4z"/>
	</g>
	
		<linearGradient id="SVGID_00000048463854803584751690000012832884924623042444_" gradientUnits="userSpaceOnUse" x1="67.8666" y1="52.6004" x2="67.8666" y2="96.6389" gradientTransform="matrix(1 0 0 -1 0 128.3465)">
		<stop  offset="0" style="stop-color:#FEE7E7"/>
		<stop  offset="0.6648" style="stop-color:#FFFFFF"/>
	</linearGradient>
	<path style="fill:url(#SVGID_00000048463854803584751690000012832884924623042444_);" d="M105.9,32c-2,1.7-4.1,3.4-6.2,5
		c-0.5,0.4-0.8,1-0.8,1.6c0.1,6.9,0.2,13.7,0.3,20.6c0,1.3-0.3,2.4-1.5,3.2c-0.4,0.3-0.7,0.5-1,0.9c-1.6,1.7-3.3,1.3-4-1.2
		c-1.2-4.9-2.7-9.7-4.1-14.5c-0.1-0.4-0.2-0.7-0.4-1.5c-2.2,1.9-4.1,3.7-6.2,5.2c-1.7,1.2-2.5,2.6-2.2,4.7c0.2,1.1,0,2.3,0.1,3.5
		c0.1,1.1-0.4,2.1-1.3,2.7c-0.5,0.4-1,0.9-1.5,1.3c-1.2,1-2.6,0.7-3.2-0.7c-1.1-2.3-2.1-4.6-3.2-6.8c-0.3-0.6-0.7-1-1.2-1.4
		c-2-1.4-4-2.7-6-4.1c-1.5-1.1-1.6-2.3-0.1-3.6c0.5-0.5,1-1.1,1.7-1.3c0.9-0.3,1.9-0.6,2.9-0.5c1.7,0.1,3.4,0.6,5.1,0.9
		c0.4,0.1,0.9,0,1.1-0.2c2.6-2.2,5.2-4.4,8-6.7c-0.6-0.3-1-0.5-1.3-0.7c-4.5-2.2-9.1-4.3-13.6-6.5c-11.4,0-22.7,0-34.1,0
		c-0.8,0-1.6,0-2.4,0.1c-2.8,0.3-4.5,2.2-4.5,5c0,11.3,0,22.6,0,33.9c0,0.7,0.1,1.5,0.4,2.1c0.2,0.5,0.7,0.9,1.3,0.9
		c0.6,0,1.2,0,1.8,0c1.1,0,2.2,0,3.3,0h0.8c0.5,0,0.9-0.2,1.1-0.6c0.5-0.7,1.2-1.3,1.9-1.7c1.4-0.8,2.9-1.5,4.3-2.2
		c2-0.9,2.2-1.2,2.2-2.3c0-2,0.2-3.9,0.4-5.8c0.1-0.6,0.2-1.3,0.2-1.9c0.1-1.6,0.9-3.1,2.2-4.1c1.2-0.9,2.7-1.3,4.2-1.1
		c1.6,0.2,3,1,4.1,2.1c4,4.1,5.7,9,5.2,14.7c-0.1,0.8,0.5,1.5,1.3,1.5c0,0,0.1,0,0.1,0l0,0c1.8,0,3.6,0,5.4,0c2.6,0,4.7,1,6.1,2.8
		c0.3,0.4,0.7,0.6,1.1,0.6c9.6,0,19.3,0,28.9,0c0.8,0,1.6,0,2.4-0.2c2.9-0.6,4.3-2.3,4.3-5.2c0-11.2,0-22.4,0-33.5
		C109.5,34.3,108.2,32.6,105.9,32z M46.3,37.7c0-0.8,0.6-1.4,1.4-1.4c0,0,0,0,0,0h2.7c0.8,0,1.4,0.6,1.4,1.4c0,0,0,0,0,0v2
		c0,0.8-0.6,1.4-1.4,1.4c0,0,0,0,0,0h-2.7c-0.8,0-1.4-0.6-1.4-1.4c0,0,0,0,0,0V37.7z M51.9,49.7c0,0.8-0.6,1.4-1.4,1.4c0,0,0,0,0,0
		h-2.7c-0.8,0-1.4-0.6-1.4-1.4c0,0,0,0,0,0v-2c0-0.8,0.6-1.4,1.4-1.4c0,0,0,0,0,0h2.7c0.8,0,1.4,0.6,1.4,1.4c0,0,0,0,0,0V49.7z"/>
	<g>
		<path class="st5" d="M78.3,38.9l-11.9-6.7c-1.2-0.6-1.8-1.3-2-2.1c-0.2-0.9,0.2-1.8,1.2-2.9c2-2.1,4.2-2.7,7.2-2
			c4,0.9,8.1,1.6,12.1,2.3c2.1,0.4,4.3,0.8,6.4,1.2c0.5,0.1,0.7,0,1.2-0.4c0.5-0.4,0.9-0.8,1.4-1.2c2.2-1.9,4.4-3.9,6.8-5.6
			c1.6-1.2,3.1-1.9,4.6-2.1c1.9-0.4,3.8,0.3,5.1,1.6c1.2,1.3,1.6,3.1,1.1,4.9c-0.6,2.1-2.1,4.1-4.5,6.2c-0.1,0.1-0.1,0.1-0.2,0.2
			l-0.1,0.1l-6.3,6.3l-1.2-1.2l6.4-6.4l0.1-0.1c0.1,0,0.1-0.1,0.2-0.1c2.1-1.9,3.4-3.6,3.9-5.4c0.4-1.2,0.1-2.4-0.7-3.3
			c-0.8-0.9-2.2-1.3-3.5-1.1c-1.2,0.2-2.5,0.8-3.9,1.8c-2.3,1.7-4.5,3.7-6.7,5.5c-0.5,0.4-0.9,0.8-1.4,1.2c-0.8,0.7-1.6,0.9-2.6,0.7
			c-2.1-0.4-4.3-0.8-6.4-1.2c-4-0.7-8.1-1.4-12.1-2.3c-2.4-0.5-4.1-0.1-5.7,1.5c-0.5,0.6-0.8,1-0.8,1.4c0,0.3,0.4,0.6,1,0.9l0.1,0
			l11.9,6.7L78.3,38.9z"/>
	</g>
</g>
</svg>
