<svg width="71" height="71" viewBox="0 0 71 71" fill="none" xmlns="http://www.w3.org/2000/svg">
<g filter="url(#filter0_d_4388_16281)">
<path d="M35.5552 8.35156C24.4033 8.35156 15.3525 17.4024 15.3525 28.5543C15.3525 39.7061 24.4033 48.7569 35.5552 48.7569C46.7071 48.7569 55.7579 39.7061 55.7579 28.5543C55.7579 17.4024 46.7071 8.35156 35.5552 8.35156ZM35.5552 44.7164C26.6458 44.7164 19.3931 37.4636 19.3931 28.5543C19.3931 19.6449 26.6458 12.3921 35.5552 12.3921C44.4646 12.3921 51.7174 19.6449 51.7174 28.5543C51.7174 37.4636 44.4646 44.7164 35.5552 44.7164ZM36.1815 26.8168C32.6056 25.9077 31.4541 24.9178 31.4541 23.443C31.4541 21.7459 33.0501 20.554 35.6966 20.554C38.4846 20.554 39.5352 21.8874 39.616 23.8672H43.0706C42.9696 21.1601 41.313 18.6751 38.0402 17.867V14.4124H33.3329V17.8266C30.2823 18.4731 27.8378 20.453 27.8378 23.5036C27.8378 27.1199 30.848 28.9381 35.232 29.9886C39.1715 30.918 39.9594 32.312 39.9594 33.7665C39.9594 34.8373 39.1715 36.5747 35.7169 36.5747C32.4844 36.5747 31.2117 35.1201 31.0298 33.2615H27.555C27.757 36.6959 30.3025 38.6354 33.3329 39.2617V42.6961H38.0604V39.3223C41.1312 38.7364 43.5555 36.9788 43.5757 33.7261C43.5555 29.2816 39.7372 27.7461 36.1815 26.8168Z" fill="#22A958"/>
</g>
<defs>
<filter id="filter0_d_4388_16281" x="-3.47012" y="-3.89979" width="78.0506" height="78.0525" filterUnits="userSpaceOnUse" color-interpolation-filters="sRGB">
<feFlood flood-opacity="0" result="BackgroundImageFix"/>
<feColorMatrix in="SourceAlpha" type="matrix" values="0 0 0 0 0 0 0 0 0 0 0 0 0 0 0 0 0 0 127 0" result="hardAlpha"/>
<feOffset dy="6.56983"/>
<feGaussianBlur stdDeviation="7.39106"/>
<feColorMatrix type="matrix" values="0 0 0 0 0.0425347 0 0 0 0 0.729167 0 0 0 0 0.410491 0 0 0 0.2 0"/>
<feBlend mode="normal" in2="BackgroundImageFix" result="effect1_dropShadow_4388_16281"/>
<feBlend mode="normal" in="SourceGraphic" in2="effect1_dropShadow_4388_16281" result="shape"/>
</filter>
</defs>
</svg>
