<svg fill="none" viewBox="0 0 128 128" xmlns="http://www.w3.org/2000/svg" fit="" height="100%" width="100%" preserveAspectRatio="xMidYMid meet" focusable="false"><defs></defs><path fill="#FFAD00" d="M88.404 74.127l26.055-3.133s.907-31.206-1.916-33.897c-2.824-2.692-30.758-9.96-30.758-9.96l-16.641 1.725-19.763 4.915-.303 14.067 34.141-1.327 9.185 27.61z"></path><path fill="#FFCA00" d="M40.712 30.114c.84-1.296 9.245-2.088 18.343-2.658 9.09-.841 22.59-.32 22.59-.32v21.802s-41.67 0-42.008-.07c-.338-.068-.767-15.91 1.075-18.754zM114.598 60.418v11.8l-26.563 1.806-.753-2.976-1.173-6.59s3.3 11.186 15.154 4.677c1.935-1.064 13.335-8.717 13.335-8.717z"></path><path fill="#AEB8C2" d="M64 101.025c29.823 0 54-3.159 54-7.056 0-3.896-24.177-7.055-54-7.055s-54 3.159-54 7.055c0 3.897 24.177 7.056 54 7.056z" opacity=".25"></path><path fill="#161616" d="M40.943 88.397c0 4.408-2.838 7.981-6.338 7.981s-6.337-3.573-6.337-7.98c0-4.408 2.837-7.421 6.337-7.421 3.5 0 6.338 3.013 6.338 7.42z"></path><path fill="#161616" d="M34.712 88.397c0 4.408-2.837 7.981-6.337 7.981-3.5 0-6.337-3.573-6.337-7.98 0-4.408 2.837-7.421 6.338-7.421 3.5 0 6.336 3.013 6.336 7.42zM79.711 86.452c0 5.89-2.817 10.105-6.291 10.105-3.475 0-6.292-4.215-6.292-10.105 0-5.89 2.817-11.225 6.291-11.225 3.475 0 6.292 5.334 6.292 11.225zM110.446 82.626c0 5.362-2.463 9.15-5.501 9.15-3.037 0-5.5-3.788-5.5-9.15 0-5.361 2.463-9.708 5.5-9.708 3.038 0 5.501 4.347 5.501 9.708z"></path><path fill="#00E46C" d="M115.17 71.789c-.265-.782-.501-1.168-1.332-1.17 0 0-21.023 3.157-23.158 2.34-2.134-.819-3.03-1.808-3.522-3.828-.44-1.807-1.57-11.73-2.208-14.632-.877-3.984-.182-5.065-4.088-6.205-2.917-.851-7.049-.734-9.232-.868-4.454-.274-7.57-.416-12.032-.408h-.264c-3.384.01-9.026-.04-12.408.11-2.985.132-11.406-.245-14.301.528-2.348.626-3.202 2.02-4.162 5.422-1.08 3.82-1.328 11.2-2.412 12.12-.574.487-2.338 0-4.783.212-1.212.105-2.303.425-3.37.744 0 0-2.028.744-3.629 2.127-1.122.968-1.61 4.368-1.649 5.769-.017.638.117 1.26.134 1.902.002.074.003.148.002.222-.005.515-.125 1.576-.145 2.09-.013.368-.003.737-.003 1.105 0 .647.006 1.293.017 1.939.014.773.036 1.545.07 2.317.026.582.07 1.164.113 1.745.87-.005 1.774.546 1.834 1.65.054 1.014 2.715 1.805 3.641 2.081 1.605.505 3.266.811 4.947.91 3.133.142 6.279-.28 9.379.366 2.096.436 4.084 1.656 6.2 2.023a1.56 1.56 0 01.544-.982 1.572 1.572 0 011.064-.365c4.226.007 8.826.167 13.044.421-.006-.049-.03-.091-.032-.141-.043-.927.824-1.717 1.729-1.717h9.675c1.334-.42 2.665-.869 3.716-1.82 1.162-1.054 2.032-2.38 3.204-3.426.311-.26.698-.416 1.103-.443.386-1.624 1.046-3.14 2.462-4.54 1.156-1.143 3.457-1.664 4.994-1.125 1.996.7 3.018.187 3.27 2.316.256 2.164-.06 4.376.316 6.522.094.539.157 1.332.28 2.082.192-.075.395-.115.6-.119 4.65.016 8.768.706 13.318-.535.894-.243 1.871-.526 2.587-1.134.651-.553 1.083-1.326 1.468-2.073.9-1.746 1.456-3.648 2.43-5.358a1.521 1.521 0 011.475-.808 7.01 7.01 0 012.687-1.932c1.604-.617 3.445-.835 4.137.729.337.76 2.442 3.819 2.29 3.003-.049-.265 1.459-4.87 0-9.166z"></path><rect width="8.929" height="11.268" x="55.283" y="69.773" fill="#fff" rx="4.465"></rect><path fill="#161616" d="M29.665 64.453c0-2.126.83-7.309 1.276-10.1.51-3.189 1.42-4.178 3.826-4.465 1.83-.217 20.242-.085 22.082-.106 4.025-.046 3.659-.044 7.684.106.667.025 1.814.107 2.561.213.287.004 1.03.181 1.281.319.252.137.64.425.747.957.15.744 0 3.402 0 3.402v7.123s0 2.731-.339 3.296c-.34.564-4.368.312-4.952.294-.718-.02-31.54.13-32.38.13-.688.01-1.786.175-1.786-1.169zM109.669 89.348h-4.614v2.427h4.614v-2.427zM79.098 94.12h-5.761v2.437h5.76v-2.438z"></path><path fill="#00B258" fill-rule="evenodd" d="M50.727 69.662H26.154c-1.002 0-1.775 1.13-1.908 2.496-.036.373.41 4.724.573 6.293.043.483.15.925.307 1.271.436.817.991 1.247 1.56 1.207h22.83c.727 0 1.384-.62 1.711-1.58.068-.217.119-.458.149-.714.187-1.378.825-6.088.828-6.477.012-1.365-.474-2.496-1.477-2.496z" clip-rule="evenodd"></path><path fill="#00E46C" fill-rule="evenodd" d="M48.224 72.96H28.34c-.81 0-1.436.065-1.543.142-.03.021.331.268.463.356.035.028.122.053.248.072.353.046.803.07 1.263.069h18.472c.589 0 1.121-.035 1.385-.09a.44.44 0 00.12-.04c.153-.078.669-.345.671-.367.01-.077-.383-.141-1.195-.141zM48.224 75.088H28.34c-.81 0-1.436.064-1.543.141-.03.021.331.267.463.356.035.028.122.053.248.072.353.047.803.07 1.263.069h18.472c.589 0 1.121-.035 1.385-.09a.435.435 0 00.12-.04c.153-.078.669-.345.671-.367.01-.077-.383-.141-1.195-.141zM48.224 77.215H28.34c-.81 0-1.436.064-1.543.141-.03.021.331.268.463.356.035.028.122.053.248.072.353.046.803.07 1.263.069h18.472c.589 0 1.121-.035 1.385-.09a.442.442 0 00.12-.04c.153-.078.669-.345.671-.367.01-.077-.383-.141-1.195-.141z" clip-rule="evenodd"></path><path fill="#161616" d="M34.605 94.094h-5.63v2.284h5.63v-2.284zM77.256 78.224l-.012-.004c-1.067-.344.464-2.2-.197-1.932-3.71 1.505-1.7.773-5.173 4.044-1.217 1.146-1.978 2.062-3.394 2.988-1.652 1.08-29.407 2.073-43.833 1.705-1.944-.05-6.408-.184-8.178-1.074-2.033-1.022-2.268-3.746-3.86-5.219-.01 1.823.02 5.946.452 8.51.15.896.384 1.298 1.037 1.961.764.776 1.94 1.021 3.04 1.212 17.952 3.115 32.473 2.433 50.696 1.525.833-.041 1.7-.092 2.423-.485 1.357-.736 1.763-2.388 1.96-3.86.321-2.41.462-4.39 1.675-6.528a6.517 6.517 0 013.364-2.843zM105.991 75.787c-.942.363-2.34 4.102-2.764 4.933a45.896 45.896 0 01-1.294 2.362c-.53.906-1.188 1.564-2.253 1.914-1.021.337-10.801 1.236-11.832.931-1.862-.55-2.19-2.296-3.135-3.913.01 1.385-1.068 3.104-.815 4.465.17.925.21 2.666.771 3.452.67.94 15.807.214 16.941-1.376.548-.768.691-2.434.932-3.296.738-2.647.964-2.484 2.399-4.865a8.006 8.006 0 012.353-2.49c.17-1.477-.054-2.598-1.303-2.117z"></path><path fill="#161616" d="M115.169 82.626c0 5.362-2.463 9.15-5.5 9.15-3.038 0-5.5-3.788-5.5-9.15 0-5.361 2.463-9.708 5.5-9.708s5.5 4.347 5.5 9.708z"></path><path fill="#fff" d="M113.596 82.86c0 4.1-1.765 6.864-3.943 6.864s-3.943-2.765-3.943-6.865 1.765-7.423 3.943-7.423 3.943 3.323 3.943 7.423z"></path><path fill="#DAD9D9" d="M112.254 77.252c.455 1.339.68 2.744.668 4.158 0 4.1-1.744 6.864-3.894 6.864-.976 0-1.868-.127-2.551-1.258.7 1.97 1.883 2.706 3.226 2.706 2.15 0 3.894-2.764 3.894-6.864 0-2.24-.521-4.245-1.343-5.606z"></path><path fill="#00B258" d="M79.178 75.808c-8.645-2.268-10.5 3.533-18.624 6.728-6.388 2.512-25.3 1.927-32.053 1.259-7.117-.704-16.84-3.086-15.66-7.082.014-.047-.074-.037-.116-.056-.031.505-.104 1.568-.112 2.074-.008.448-.005.897-.005 1.345v-.858c1.592 1.714 1.827 4.884 3.86 6.073 1.772 1.035 6.234 1.192 8.179 1.25 14.425.427 24.184.27 38.601-.468 2.012-.103 3.579-.26 5.231-1.517 1.418-1.078 2.177-2.143 3.394-3.476.811-.89 4.127-4.211 5.174-4.706.662-.312-.87 1.848.208 2.254a3.813 3.813 0 012.958-.098c.244.1.494.186.747.26.294-1.476-.916-2.755-1.781-2.982z"></path><rect width="8.929" height="11.268" x="12.551" y="69.348" fill="#fff" rx="4.465"></rect><path fill="#161616" d="M85.236 86.452c0 5.89-2.912 10.106-6.504 10.106-3.592 0-6.504-4.215-6.504-10.106 0-5.89 2.912-10.665 6.504-10.665 3.592 0 6.504 4.775 6.504 10.665z"></path><path fill="#fff" d="M83.54 86.534c0 4.378-2.093 7.366-4.674 7.366-2.582 0-4.675-2.988-4.675-7.366 0-4.377 2.094-7.925 4.675-7.925 2.58 0 4.674 3.549 4.674 7.925z"></path><path fill="#DAD9D9" d="M82.014 80.723c.543 1.403.814 2.895.801 4.398 0 4.377-2.133 7.365-4.763 7.365-1.25 0-2.388-.802-3.238-2.113.854 2.126 2.31 3.527 3.963 3.527 2.63 0 4.763-2.989 4.763-7.366 0-2.296-.587-4.364-1.526-5.811z"></path><path fill="#161616" d="M72.034 64.135c.023-.575 0-1.914 0-2.977 0-.976-.062-7.442-.062-7.442s-.106-1.382.213-2.02c.319-.638 1.063-1.17 3.295-1.17s4.239-.034 5.421.32c.85.254 1.09.297 1.382 1.7 0 0 1.359 9.938 1.645 12.072a.681.681 0 01-.644.796l-2.437.036-5.215.077h-1.853s-.393.038-.638-.01c-.419-.084-.754-.278-.85-.426-.096-.147-.279-.425-.257-.956z"></path><path fill="#00B258" d="M114.372 75.51c-.276-.425-1.055-1.476-1.495-1.914-.426-.425-1.387-1.063-2.241-1.275-.839-.21-2.485-.213-3.415.613-2.045 1.819-2.561 2.48-3.201 3.012-1.281 1.276-2.014 1.709-4.269 3.285-3.439 2.39-6.707 2.964-10.893 2.651-1.931-.144-3.69-.746-5.033-2.09.664 1.794.551 4.451 2.118 5.78.314.27.654.504 1.017.702 1.257.677 2.765.46 4.128.37 1.94-.126 3.129-.243 5.066-.395a15.09 15.09 0 003.526-.718c1.064-.37 1.723-1.067 2.253-2.024 1.601-2.887 2.54-6.412 4.731-8.924.729-.837 1.69-1.562 2.8-1.649a3.591 3.591 0 012.505.875 6.886 6.886 0 011.638 2.137 13.055 13.055 0 011.484 5.218c.277-.294.348-.657.348-.657s.106-.745.106-1.383c0-.744-.292-1.7-.426-2.126-.135-.425-.472-1.063-.747-1.488z"></path></svg>