<svg width="71" height="61" viewBox="0 0 71 61" fill="none" xmlns="http://www.w3.org/2000/svg">
<g filter="url(#filter0_d_2199_147061)">
<path d="M29.4969 28.0914C24.7694 28.0914 15.355 30.4551 15.355 35.1624V38.6978H43.6387V35.1624C43.6387 30.4551 34.2243 28.0914 29.4969 28.0914ZM20.0824 34.6573C21.7794 33.4855 25.8806 32.132 29.4969 32.132C33.1131 32.132 37.2143 33.4855 38.9113 34.6573H20.0824ZM29.4969 24.5559C33.396 24.5559 36.5678 21.3841 36.5678 17.485C36.5678 13.5859 33.396 10.4141 29.4969 10.4141C25.5977 10.4141 22.4259 13.5859 22.4259 17.485C22.4259 21.3841 25.5977 24.5559 29.4969 24.5559ZM29.4969 14.4546C31.1737 14.4546 32.5273 15.8082 32.5273 17.485C32.5273 19.1618 31.1737 20.5154 29.4969 20.5154C27.82 20.5154 26.4665 19.1618 26.4665 17.485C26.4665 15.8082 27.82 14.4546 29.4969 14.4546ZM43.7196 28.2126C46.0631 29.9097 47.6793 32.1724 47.6793 35.1624V38.6978H55.7604V35.1624C55.7604 31.0814 48.6894 28.7581 43.7196 28.2126ZM41.6185 24.5559C45.5176 24.5559 48.6894 21.3841 48.6894 17.485C48.6894 13.5859 45.5176 10.4141 41.6185 10.4141C40.5275 10.4141 39.5174 10.6767 38.5881 11.1212C39.8608 12.9192 40.6083 15.1213 40.6083 17.485C40.6083 19.8487 39.8608 22.0508 38.5881 23.8489C39.5174 24.2933 40.5275 24.5559 41.6185 24.5559Z" fill="#575EFF"/>
</g>
<defs>
<filter id="filter0_d_2199_147061" x="-3.46768" y="-7.89979" width="78.0506" height="78.0525" filterUnits="userSpaceOnUse" color-interpolation-filters="sRGB">
<feFlood flood-opacity="0" result="BackgroundImageFix"/>
<feColorMatrix in="SourceAlpha" type="matrix" values="0 0 0 0 0 0 0 0 0 0 0 0 0 0 0 0 0 0 127 0" result="hardAlpha"/>
<feOffset dy="6.56983"/>
<feGaussianBlur stdDeviation="7.39106"/>
<feColorMatrix type="matrix" values="0 0 0 0 0.341176 0 0 0 0 0.368627 0 0 0 0 1 0 0 0 0.3 0"/>
<feBlend mode="normal" in2="BackgroundImageFix" result="effect1_dropShadow_2199_147061"/>
<feBlend mode="normal" in="SourceGraphic" in2="effect1_dropShadow_2199_147061" result="shape"/>
</filter>
</defs>
</svg>
