<svg width="128" height="128" viewBox="0 0 128 128" fill="none" xmlns="http://www.w3.org/2000/svg">
<path d="M100.599 46.4594L107.846 43.7917C107.846 43.7917 108.341 34.848 107.523 34.0877C106.705 33.3275 98.8589 31.3418 98.8589 31.3418L93.7948 31.7617L88.071 33.1499L87.9834 37.1237V47.8337L100.599 46.4594Z" fill="#FFAD00"/>
<path d="M88.7666 32.2809C89.204 31.7068 98.872 31.3418 98.872 31.3418V47.0832L88.7666 47.9539C88.7666 47.9539 88.3293 32.855 88.7666 32.2809Z" fill="#FFCA00"/>
<path d="M111.388 58.6445L117.867 55.644C117.867 55.644 118.309 45.5843 117.578 44.7292C116.847 43.8741 109.833 41.6406 109.833 41.6406L105.306 42.113L100.19 43.6743L100.111 48.1439V60.1903L111.388 58.6445Z" fill="#FFAD00"/>
<path d="M99.917 42.6898C100.354 42.0484 109.833 41.6406 109.833 41.6406V59.2241L99.917 60.5907C99.917 60.5907 99.4797 43.3311 99.917 42.6898Z" fill="#FFCA00"/>
<path d="M98.7664 63.3625L105.211 60.8857C105.211 60.8857 105.687 47.5816 104.956 46.5484C104.225 45.5151 97.2109 42.8164 97.2109 42.8164L92.6842 43.3871L87.5676 45.2738L87.4893 50.6745V65.2303L98.7664 63.3625Z" fill="#FFAD00"/>
<path d="M87.295 44.0841C87.7323 43.3092 97.2111 42.8164 97.2111 42.8164V64.0629L87.2949 65.2411C87.2949 65.2411 86.8576 44.8591 87.295 44.0841Z" fill="#FFCA00"/>
<path opacity="0.25" d="M62.3576 118.286C91.2739 118.286 114.715 113.8 114.715 108.266C114.715 102.732 91.2739 98.2461 62.3576 98.2461C33.4413 98.2461 10 102.732 10 108.266C10 113.8 33.4413 118.286 62.3576 118.286Z" fill="#AEB8C2"/>
<path d="M99.8535 59.9048C99.3126 59.7832 98.7652 59.6922 98.2141 59.6323L98.4833 61.8573L96.5234 69.455L98.0931 70.779C98.5619 70.6998 98.8053 71.436 99.9385 70.1123C100.258 69.7389 101.266 64.9205 102.018 64.0711C103.474 63.3102 113.054 57.759 113.054 57.759L111.315 57.4941C111.315 57.4941 105.848 59.7965 104.352 59.8907C102.686 59.9954 101.466 60.2985 99.8535 59.9048Z" fill="#8E8E8E"/>
<path d="M104.963 62.0234C107.439 61.1831 111.92 59.3692 112.853 57.9336L109.835 59.2997C107.893 59.9732 106.022 60.6208 104.527 60.7144C102.861 60.8197 101.447 60.1553 99.8337 59.7622C99.2927 59.6407 98.7454 59.5499 98.1942 59.4901L98.4635 61.7148L96.5039 69.3124L98.0736 70.6365C98.2407 70.607 98.8552 69.7243 99.5912 68.5965C99.4146 67.6332 99.982 70.444 100.236 69.499C100.245 69.4651 99.9037 64.4617 101.049 63.1974" fill="#CCCCCC"/>
<path d="M29.9884 70.3121C30.2826 70.4486 28.7165 71.9919 28.9728 72.2493C31.6396 74.9233 34.5014 77.5967 36.2859 81.2913C38.2758 85.4106 38.2923 90.9257 38.3049 95.586C38.3102 97.4965 38.1443 99.9068 39.4906 101.256C40.4237 102.192 41.6941 102.465 42.8612 102.575C43.1184 102.599 57.0716 103.801 57.5793 103.252C58.1584 102.625 60.8575 100.363 60.7992 99.4175C60.4198 92.9212 58.7564 86.5646 55.9051 80.7149C54.7095 78.3022 53.281 75.9969 51.3844 74.4001C49.6087 72.9052 47.5114 72.1037 45.4226 71.4643C40.9186 70.0797 36.2373 69.3562 31.5254 69.3164C31.0113 69.6457 30.4883 69.9602 29.9884 70.3121Z" fill="#161616"/>
<path d="M28.3174 111.932C33.6936 111.932 38.0518 105.198 38.0518 96.891C38.0518 88.5839 33.6936 81.8496 28.3174 81.8496C22.9413 81.8496 18.583 88.5839 18.583 96.891C18.583 105.198 22.9413 111.932 28.3174 111.932Z" fill="#161616"/>
<path d="M70.121 53.9529C69.7289 53.9654 69.3395 53.8837 68.9855 53.7144C68.6316 53.5452 68.3234 53.2935 68.087 52.9805C68.087 53.2453 68.087 53.666 68.087 53.666C66.9425 53.666 60.9251 55.2802 59.2981 56.3032C57.9766 57.1243 56.9057 58.292 56.2017 59.6792C55.3409 61.4037 55.8277 63.2792 55.865 65.0725C55.9189 67.6829 55.8583 70.2966 55.8583 72.9076V83.3346H65.4726C65.4726 77.781 65.2457 70.8456 66.4549 65.3459C66.663 64.397 66.8831 63.4519 68.0119 62.9202C68.8065 62.5445 70.4465 62.8081 71.3694 62.8081C75.5699 62.8081 78.9761 60.1227 78.9761 56.8096V53.9753L70.121 53.9529Z" fill="#777777"/>
<path d="M36.2312 108.467H27.6719V111.905H36.2312V108.467Z" fill="#161616"/>
<path d="M36.8643 111.932C42.2405 111.932 46.5987 105.198 46.5987 96.891C46.5987 88.5839 42.2405 81.8496 36.8643 81.8496C31.4881 81.8496 27.1299 88.5839 27.1299 96.891C27.1299 105.198 31.4881 111.932 36.8643 111.932Z" fill="#161616"/>
<path d="M36.7421 108.184C40.737 108.184 43.9755 103.18 43.9755 97.0071C43.9755 90.8342 40.737 85.8301 36.7421 85.8301C32.7473 85.8301 29.5088 90.8342 29.5088 97.0071C29.5088 103.18 32.7473 108.184 36.7421 108.184Z" fill="white"/>
<path d="M41.6589 88.8105C42.4796 90.7746 42.8932 92.8847 42.8748 95.0132C42.8748 101.186 39.6378 106.19 35.6415 106.19C33.7428 106.19 32.016 105.059 30.7256 103.21C32.0228 106.208 34.2331 108.184 36.7427 108.184C40.7378 108.184 43.976 103.18 43.976 97.0067C43.976 93.7678 43.0835 90.8522 41.6589 88.8105Z" fill="#DAD9D9"/>
<path d="M88.7685 109.534C92.1993 109.534 94.9805 104.208 94.9805 97.639C94.9805 91.0697 92.1993 85.7441 88.7685 85.7441C85.3378 85.7441 82.5566 91.0697 82.5566 97.639C82.5566 104.208 85.3378 109.534 88.7685 109.534Z" fill="#161616"/>
<path d="M95.4183 106.789H88.5625V109.508H95.4183V106.789Z" fill="#161616"/>
<path d="M95.4228 109.534C98.8536 109.534 101.635 104.208 101.635 97.639C101.635 91.0697 98.8536 85.7441 95.4228 85.7441C91.9921 85.7441 89.2109 91.0697 89.2109 97.639C89.2109 104.208 91.9921 109.534 95.4228 109.534Z" fill="#161616"/>
<path d="M95.3452 106.57C97.8944 106.57 99.961 102.613 99.961 97.7313C99.961 92.8498 97.8944 88.8926 95.3452 88.8926C92.796 88.8926 90.7295 92.8498 90.7295 97.7313C90.7295 102.613 92.796 106.57 95.3452 106.57Z" fill="white"/>
<path d="M98.4819 91.25C99.0102 92.8309 99.2725 94.4884 99.2579 96.1551C99.2579 101.036 97.1912 104.994 94.6422 104.994C93.4303 104.994 92.3286 104.099 91.5049 102.636C92.3327 105.008 93.7434 106.57 95.3449 106.57C97.8942 106.57 99.9607 102.613 99.9607 97.7313C99.9604 95.1701 99.3912 92.8639 98.4819 91.25Z" fill="#DAD9D9"/>
<path d="M37.0604 84.6906L34.7292 94.6888C34.5239 95.5694 35.0713 96.4496 35.9519 96.6549C36.8325 96.8601 37.7128 96.3127 37.9181 95.4322L40.2493 85.4339C40.4547 84.5534 39.9072 83.6732 39.0266 83.4679C38.146 83.2627 37.2657 83.8101 37.0604 84.6906Z" fill="#161616"/>
<path d="M29.7385 38.7173C29.1132 38.6866 28.5814 39.1686 28.5507 39.7938C28.52 40.419 29.002 40.9507 29.6273 40.9814L37.5439 41.37C38.1691 41.4007 38.7009 40.9188 38.7316 40.2936C38.7623 39.6684 38.2803 39.1367 37.655 39.106L29.7385 38.7173Z" fill="#161616"/>
<path d="M98.7463 65.756C99.1465 65.4162 98.9391 62.3185 98.5609 60.7306C97.95 58.1737 95.8241 57.0586 93.5061 56.9388C88.9366 56.7034 84.3753 57.7565 79.8057 57.5535C78.3343 57.4878 76.7732 57.3831 75.3274 57.6753C73.9078 57.9619 73.0644 59.4457 71.882 59.4863C68.6355 59.5978 64.0801 58.5768 60.9019 58.5945C59.7731 58.6006 58.1919 59.1179 57.8709 60.1245C57.4843 61.4679 57.2577 62.8522 57.1958 64.2487C56.918 67.9854 56.7394 71.7342 57.1875 75.4669C57.4868 77.9561 57.5913 80.4782 58.4703 82.903C59.7963 83.8075 60.158 85.8918 60.6391 85.0447C61.6014 83.352 62.1694 79.9321 62.4763 78.1273C62.7832 76.3225 63.1361 74.8202 65.5368 74.3611C66.3499 74.2064 71.601 72.3095 72.3302 71.919C76.9097 70.1778 81.5019 68.46 86.0641 66.6882C89.1982 65.4709 93.7521 64.6406 97.4597 65.2782C97.8423 64.5935 98.5091 65.9576 98.7463 65.756Z" fill="#161616"/>
<path d="M69.7622 27.5706C66.0479 30.0316 65.095 33.8948 62.4795 36.7645C61.3665 37.9853 59.4925 38.2857 57.8299 38.6087C55.6625 39.0298 53.5431 39.6521 51.4146 40.1991C50.1083 40.5348 48.9577 41.2583 49.2269 42.5794C49.3194 42.9672 49.5228 43.3198 49.8123 43.5939C50.1018 43.8681 50.4649 44.052 50.8572 44.1232C51.3922 44.1953 51.9346 44.1911 52.4684 44.1109C55.9159 43.7578 59.3995 43.395 62.6595 42.3723C63.8661 41.9936 65.0891 41.501 66.0017 40.7054C67.0246 39.8136 68.1116 38.8812 68.8411 37.8128C69.6972 36.56 70.3055 34.38 71.2542 33.1784C71.6839 32.6349 72.0308 32.8712 72.4608 32.3278C72.8907 31.7843 73.268 30.9725 73.8068 30.5118L74.029 30.1914C74.6231 29.3357 74.3762 28.2353 73.454 27.6283L73.3489 27.5592C72.7977 27.1964 72.5702 26.3631 71.8507 26.5117C71.3246 26.6206 70.1904 27.2867 69.7622 27.5706Z" fill="#5B5B5B"/>
<path d="M105.988 89.2683C105.764 88.0252 105.509 86.7871 105.268 85.5469L99.776 87.7489C97.7473 88.3538 95.6523 88.5919 93.5459 88.7658C96.1188 89.5843 103.467 91.1835 104.239 91.2047C105.7 91.245 106.221 90.5665 105.988 89.2683Z" fill="#161616"/>
<path d="M89.2493 54.0009L70.0329 53.955C68.7311 53.955 67.6758 53.1676 67.6758 52.196C68.1313 49.7539 68.8744 47.3356 69.1066 44.8744C69.4703 41.0279 68.4933 37.1949 67.9913 33.3787C67.7953 31.8905 67.6275 30.5835 68.4468 29.1774C69.784 26.8845 72.8939 25.3633 76.2451 25.3633H79.5234C83.1012 25.3633 86.5861 26.7644 88.6754 28.9167C90.4435 30.7383 90.5621 32.83 90.939 34.9823C91.8048 39.9254 92.7447 44.7761 92.4425 49.7789C92.3392 51.4396 92.2327 54.0079 89.2493 54.0009Z" fill="#696969"/>
<path d="M64.4133 41.208C63.7694 41.1764 63.2217 41.6727 63.1901 42.3166C63.1584 42.9605 63.6548 43.5081 64.2988 43.5397L72.4514 43.9399C73.0953 43.9715 73.643 43.4752 73.6746 42.8313C73.7062 42.1875 73.2098 41.6399 72.5659 41.6083L64.4133 41.208Z" fill="#161616"/>
<path d="M48.8915 80.2323C47.2223 74.6696 44.2419 71.5357 37.2805 70.7413C36.6025 70.6611 35.919 70.6363 35.237 70.6672C34.0305 70.726 34.0714 72.4964 35.28 72.5352L35.3429 72.5373C45.2625 72.8904 48.7655 81.4596 46.9519 89.5648C46.8342 90.0923 46.6414 90.1373 46.14 90.1506L46.3301 90.245C47.4672 90.601 48.6526 90.7786 49.8441 90.7717C50.3115 90.8046 50.778 90.6965 51.1833 90.4616C50.4827 87.0397 49.9003 83.5942 48.8915 80.2323Z" fill="#00B258"/>
<path d="M106.097 83.6452C105.129 79.3379 104.062 75.0536 101.401 71.3901C98.7017 67.6278 99.8844 65.9869 99.7396 65.9062C92.7411 62.0088 80.4468 67.8861 74.0003 70.9917C72.6496 71.6423 67.4736 72.3334 66.3491 73.292C65.8144 73.7472 64.9545 74.3116 64.8692 75.0792C64.5726 77.7464 65.4916 80.0408 65.1538 82.7045C64.7547 85.8528 64.1744 88.9716 63.7009 92.1082C63.5726 92.9597 63.3772 93.5205 62.5621 92.5525C61.023 90.8797 60.857 88.6727 60.3991 86.6184C59.5408 82.8132 58.9789 78.9472 58.7185 75.0551C58.5561 72.5541 58.3204 70.0505 58.5375 67.5736C58.9904 62.4134 60.1249 57.3161 59.9565 52.0971C60.2555 50.8133 59.8371 49.7794 59.1031 48.6913C57.9449 46.9709 56.331 45.9579 54.5351 45.1338C55.8493 44.435 57.21 43.8709 58.6844 43.7659C61.8099 43.5429 62.9461 43.7217 65.8156 42.1661C66.3677 41.8666 67.0136 41.3173 66.7541 40.7453C66.5207 40.2316 65.8032 40.2631 65.2394 40.2548C62.6203 40.2163 60.8603 38.6477 58.9589 36.8859C57.1188 35.1808 55.919 33.7779 53.3167 33.2309C51.2162 32.7896 46.197 32.7649 44.1821 33.5051C42.8796 33.9833 41.7543 34.8371 40.6507 35.6789L38.7406 37.136C38.0187 37.6868 37.4187 38.3632 36.4682 38.5009C36.0229 38.5653 35.3231 38.5656 35.2993 39.1885C35.3107 39.4227 35.3974 39.6469 35.5465 39.8279C36.3078 40.9165 37.4369 41.4668 38.6847 41.8142C38.8295 41.8546 38.9748 41.8922 39.1208 41.9284C40.4801 42.2656 41.9576 42.586 42.882 43.6394C42.9797 43.7506 43.0632 43.8733 43.1495 43.9924C43.1259 44.0333 43.0835 44.0433 43.047 44.0742C42.718 44.3526 40.5251 44.6383 40.0233 44.8013C36.9935 45.7449 34.344 47.6307 32.4604 50.1843C30.2342 53.2643 28.5112 57.2184 27.018 60.7069C25.1143 65.1551 23.1189 70.2903 24.492 75.1557C24.5218 75.2382 24.5336 75.326 24.5267 75.4135C24.476 75.5756 24.3632 75.711 24.213 75.7904C20.5934 78.3725 16.4623 84.0288 17.3663 88.7545C17.4802 89.3512 18.0237 89.8991 18.6673 89.7696C24.9328 88.5076 36.8569 87.7915 46.0225 90.0933C46.6443 90.2495 46.817 90.1171 46.9474 89.5342C48.7478 81.429 45.1579 71.015 35.3117 70.6628C35.2911 70.6628 35.1407 70.6304 35.3187 70.6369C35.9429 70.6593 36.6153 70.6269 37.3472 70.7107C44.2583 71.5052 47.2158 74.639 48.8729 80.2021C50.1018 84.3284 50.6903 88.5824 51.6452 92.7614C52.3003 95.6301 52.9256 98.5177 54.6272 101.01C56.0103 103.036 57.9319 103.859 60.8723 103.364C65.6902 102.554 70.1438 101.717 79.4195 103.3C80.2138 103.428 81.024 103.422 81.8164 103.282C82.5826 103.19 83.3334 102.998 84.0499 102.711C86.8053 101.438 87.1516 95.8976 87.3441 94.643C87.666 92.5454 88.5541 91.0239 90.7421 90.6435C90.9316 90.6108 100.319 90.8574 105.311 85.723C105.884 85.134 106.283 84.4705 106.097 83.6452Z" fill="#00E46C"/>
<path d="M46.1977 60.0606C46.572 56.2284 44.571 52.8967 41.7283 52.6191C38.8856 52.3416 36.2777 55.2231 35.9034 59.0553C35.529 62.8875 37.53 66.2192 40.3727 66.4967C43.2154 66.7743 45.8233 63.8927 46.1977 60.0606Z" fill="#FEFDFD"/>
<path d="M50.4638 39.5289C50.677 37.3463 49.5374 35.4488 47.9183 35.2907C46.2993 35.1327 44.814 36.7738 44.6009 38.9563C44.3877 41.1389 45.5273 43.0364 47.1463 43.1945C48.7653 43.3525 50.2506 41.7114 50.4638 39.5289Z" fill="white"/>
<path d="M64.2622 73.6693C63.4276 74.1227 62.7932 74.5072 62.656 75.4741C62.4015 77.2689 61.7517 83.7714 60.1423 84.6697C60.1214 84.5023 60.0967 84.3364 60.0785 84.1695C59.492 78.7521 59.0214 73.3124 59.0347 67.8582C59.0411 65.314 59.082 62.7339 59.459 60.2146C59.7671 58.155 60.2032 56.1019 60.2512 54.0137C60.308 51.5369 60.1279 48.3056 56.7979 46.4746C59.7542 48.8335 58.8531 52.271 58.2675 55.5034C56.8073 63.5624 56.8099 71.9465 57.6954 80.0741C58.1821 84.5314 58.2648 92.9853 62.8082 95.4206C63.091 95.5722 68.1317 95.5922 68.4103 95.4333C68.5182 95.3694 68.6097 95.2815 68.6779 95.1763C68.746 95.0712 68.7889 94.9517 68.8032 94.8272C69.3862 92.2147 69.6319 89.5416 69.842 86.8779C69.9856 85.0593 70.1042 83.2374 70.1054 81.4126C70.1054 79.6692 69.8405 77.8659 70.3223 76.1614C70.7637 74.5961 71.0636 72.2684 73.0187 71.3787C71.7207 71.7476 65.5962 72.946 64.2622 73.6693Z" fill="#00B258"/>
<path d="M106.191 83.6442C105.219 79.3373 104.152 75.0527 101.486 71.3892C100.65 70.2414 100.05 68.9395 99.7203 67.5586C100.298 71.1968 101.497 76.0913 99.1538 79.7454C97.8637 81.7567 95.9267 83.2785 93.8627 84.484C91.0082 86.1514 87.5195 87.0394 85.2812 89.5877C83.1392 92.0263 82.1151 95.3806 79.8845 97.7312C76.4576 101.343 66.7971 101.575 62.1598 101.019C60.1991 100.784 58.3169 100.393 56.5265 99.5313C55.0742 98.8319 52.8442 97.098 52.2441 95.2991C52.4566 96.2789 52.731 97.2444 53.0655 98.1896C54.9856 103.377 57.8916 104.011 60.815 103.395C66.9427 102.144 73.2579 102.122 79.3942 103.33C80.1889 103.472 81.0029 103.466 81.7955 103.313C82.5626 103.22 83.3144 103.028 84.032 102.741C86.7918 101.469 87.139 95.9281 87.3318 94.6735C87.6555 92.5759 88.5442 91.0545 90.736 90.6743C90.9255 90.6414 100.329 90.8882 105.33 85.7536C105.905 85.1634 106.376 84.4699 106.191 83.6442Z" fill="#00B258"/>
<path d="M39.7788 36.3203C39.0572 36.8708 37.3463 38.3935 36.3946 38.5312C35.9494 38.5956 35.2496 38.5956 35.2257 39.2188C35.2373 39.4529 35.324 39.6771 35.4729 39.8582C36.2342 40.9468 37.3636 41.4967 38.6111 41.8442C38.7559 41.8846 38.9012 41.9228 39.0472 41.9587C40.4065 42.2956 41.8843 42.6163 42.8084 43.6693C42.9061 43.7809 42.9899 43.9033 43.0762 44.0224C43.0464 44.0549 43.0117 44.0826 42.9735 44.1045C41.6133 44.6497 40.1207 44.7224 38.7506 45.2329C36.9862 45.9098 35.3825 46.9474 34.0421 48.2794C32.6455 49.642 31.7906 51.2217 30.7168 52.8105C34.101 47.8009 40.3359 45.8146 45.9548 44.6126C45.965 44.6114 45.9746 44.607 45.9822 44.6C45.9897 44.5929 45.9948 44.5837 45.9968 44.5735C45.9987 44.5634 45.9974 44.5529 45.9929 44.5436C45.9885 44.5343 45.9812 44.5266 45.9722 44.5217C42.6056 42.4383 40.038 40.6343 39.7788 36.3203Z" fill="#00B258"/>
<path d="M71.9211 44.0234H68.8824C68.8735 44.0234 68.8662 44.0307 68.8662 44.0396V44.6366C68.8662 44.6456 68.8735 44.6528 68.8824 44.6528H71.9211C71.93 44.6528 71.9373 44.6456 71.9373 44.6366V44.0396C71.9373 44.0307 71.93 44.0234 71.9211 44.0234Z" fill="#CCCCCC"/>
<path d="M71.4012 22.2807C71.533 22.2807 71.6636 22.2548 71.7854 22.2043C71.9072 22.1539 72.0179 22.0799 72.1112 21.9867C72.2044 21.8935 72.2784 21.7828 72.3288 21.661C72.3793 21.5392 72.4053 21.4087 72.4053 21.2768V16.4199C72.4053 16.1537 72.2995 15.8983 72.1112 15.7101C71.9229 15.5218 71.6675 15.416 71.4012 15.416H71.3488C71.0825 15.416 70.8271 15.5218 70.6388 15.7101C70.4505 15.8983 70.3447 16.1537 70.3447 16.4199V21.2247C70.3447 21.3634 70.3721 21.5008 70.4251 21.6289C70.4782 21.7571 70.5561 21.8735 70.6542 21.9715C70.7523 22.0696 70.8687 22.1474 70.9969 22.2004C71.1251 22.2535 71.2625 22.2808 71.4012 22.2807Z" fill="#00E46C"/>
<path d="M79.6167 23.8208C79.6167 22.5725 78.6046 21.5605 77.3562 21.5605C76.1078 21.5605 75.0957 22.5725 75.0957 23.8208V26.115C75.0957 27.3633 76.1078 28.3752 77.3562 28.3752C78.6046 28.3752 79.6167 27.3633 79.6167 26.115V23.8208Z" fill="#E0E0E0"/>
<path d="M66.4254 43.971C66.5035 44.0395 66.5968 44.0886 66.6976 44.114C66.8397 44.1435 66.9851 44.1534 67.1299 44.1434C67.8921 44.1249 68.7402 44.1673 69.4323 43.8136C69.8897 43.58 70.1404 43.153 70.4853 42.8061C70.8812 42.4368 71.4031 42.2323 71.9446 42.2344C72.0389 42.2383 72.1333 42.2284 72.2247 42.205C72.5278 42.1056 72.3951 41.7475 72.2924 41.5548C72.2312 41.4059 72.1266 41.2788 71.9923 41.19C71.858 41.1012 71.7001 41.0547 71.5391 41.0566L70.0221 41.0249C69.0136 41.0037 67.7176 40.8318 67.0107 41.6645C66.8036 41.906 66.5964 42.1476 66.3892 42.3895C66.0723 42.7579 66.0131 43.6088 66.4254 43.971Z" fill="#E0E0E0"/>
<path d="M73.9749 86.0391H68.7871V89.6952H73.9749V86.0391Z" fill="#E0E0E0"/>
<path d="M77.6435 25.5705H76.0441C74.7838 25.5718 73.5746 25.0724 72.6824 24.1823C71.7903 23.2921 71.2884 22.0841 71.2871 20.824V17.4806C71.2878 16.8567 71.4113 16.239 71.6507 15.6628C71.8902 15.0866 72.2407 14.5632 72.6825 14.1224C73.1242 13.6817 73.6484 13.3323 74.2252 13.0941C74.802 12.856 75.4201 12.7337 76.0441 12.7344H77.6435C78.2676 12.7337 78.8856 12.856 79.4624 13.0941C80.0392 13.3323 80.5634 13.6817 81.0051 14.1224C81.4469 14.5632 81.7975 15.0866 82.0369 15.6628C82.2763 16.239 82.3998 16.8567 82.4005 17.4806V20.824C82.3999 21.448 82.2763 22.0657 82.0369 22.6419C81.7975 23.2182 81.447 23.7416 81.0052 24.1824C80.5635 24.6231 80.0393 24.9726 79.4625 25.2107C78.8857 25.4489 78.2676 25.5712 77.6435 25.5705Z" fill="#E0E0E0"/>
<path d="M84.9008 17.2716C84.9008 18.9273 84.4176 21.0255 83.4703 22.2695C83.018 22.8629 81.6593 22.85 81.1337 22.3301C80.7638 21.9646 80.8239 21.3159 80.8571 20.8424C80.9531 19.4778 81.2397 18.0637 80.9637 16.702C80.9533 16.5481 80.8847 16.4039 80.7719 16.2987C80.659 16.1936 80.5103 16.1353 80.356 16.1359C78.5421 16.1021 76.7284 16.0606 74.9139 16.0582C73.1526 16.0562 71.3926 16.1909 69.6337 16.1821C69.0007 16.1789 69.5713 14.8254 69.7022 14.4785C69.9401 13.8512 70.2691 13.2624 70.6787 12.7311C71.5229 11.6563 72.6399 10.8275 73.9134 10.331C74.9603 9.92023 76.0755 9.71118 77.2001 9.71489C81.5625 9.71489 84.9008 13.1068 84.9008 17.2716Z" fill="#00E46C"/>
<path d="M89.772 53.9883C89.772 53.9883 84.1419 53.9933 78.9576 53.9786V54.1222C77.7805 54.1222 71.6972 56.0053 70.0228 57.1972C68.628 58.2007 67.5288 59.5606 66.8402 61.1346C65.955 63.1451 66.4555 65.3327 66.4935 67.423C66.5494 70.4671 66.4864 73.5136 66.4864 76.5595V88.7192H76.3771C76.3771 82.2431 76.1437 74.1547 77.3871 67.7425C77.6013 66.635 77.8285 65.5331 78.9891 64.9132C79.8069 64.4759 81.4934 64.7834 82.4425 64.7834C86.7636 64.7834 90.566 61.6513 90.566 57.7881V53.8145C90.4003 53.8371 89.9589 53.9883 89.772 53.9883Z" fill="#858585"/>
<path d="M83.7399 32.1099C83.8435 32.5566 83.9995 32.9896 84.2045 33.3998C85.16 35.3076 89.8941 39.7155 85.3287 40.7209C81.1278 41.6463 77.3352 41.4624 73.0358 41.2961C71.9314 41.2535 70.9149 41.7487 70.513 42.5251C68.1864 47.0189 83.8634 45.7682 86.5593 45.436C89.3008 45.0985 92.9905 44.6392 94.3047 42.5201C95.3744 40.7959 95.0487 38.6472 94.393 36.8709C93.3951 34.1601 91.246 31.8066 89.2058 29.4907C88.4813 28.6683 86.9269 28.0472 85.768 28.5094C85.062 28.7774 84.4724 29.2846 84.1018 29.9424C83.7312 30.6003 83.6031 31.3673 83.7399 32.1099Z" fill="#777777"/>
<path d="M65.4171 95.5164H75.1989C75.4808 95.5166 75.7512 95.4049 75.9507 95.2059C76.1502 95.0068 76.2624 94.7366 76.2627 94.4548V90.5948C76.2624 90.313 76.1502 90.0428 75.9507 89.8438C75.7512 89.6447 75.4808 89.533 75.1989 89.5332H67.4444C66.6256 89.5327 65.8401 89.8573 65.2607 90.4357C64.6812 91.0141 64.3553 91.799 64.3545 92.6176V94.4548C64.3548 94.7364 64.4669 95.0064 64.6661 95.2054C64.8654 95.4045 65.1355 95.5163 65.4171 95.5164Z" fill="#545454"/>
<rect y="90" width="90" height="38" rx="19" fill="#4A4DCC"/>
<path d="M20.6413 114C20.2813 114 19.9613 113.94 19.6613 113.86C19.3213 117.38 16.4813 119.92 12.7213 119.92C8.88133 119.92 5.86133 117.64 6.22133 113.12C6.36133 111.4 7.16133 109.5 7.64133 108.46L9.94133 109.5C9.44133 110.7 8.96133 111.8 8.90133 113.12C8.80133 115.28 10.2413 116.16 12.7213 116.16C15.3213 116.16 17.1813 114.78 17.1813 113.12C17.1813 112.16 15.9813 108.98 15.7813 108.44L18.3413 107.02C18.5813 107.6 18.8013 108.18 18.9813 108.78C19.4013 109.86 19.7413 110.24 20.6413 110.24H20.8013L21.0013 112.12L20.8013 114H20.6413ZM11.0013 106.9C11.7213 106.2 12.4213 105.48 13.1413 104.78L15.2613 106.9C14.5613 107.62 13.8413 108.32 13.1413 109.04L11.0013 106.9ZM20.6134 114L20.4134 112.12L20.6134 110.24H22.6534C25.2534 110.24 26.0934 109.78 26.0934 109.1C26.0934 108.6 25.0934 106.2 24.9934 105.96L27.5334 104.56C27.9134 105.36 28.7534 107.66 28.7534 109.34C28.7534 112.28 26.8934 114 23.2534 114H20.6134ZM20.5734 117.46L22.4334 115.58C23.0134 116.16 23.6134 116.76 24.1734 117.32C24.7534 116.76 25.3334 116.16 25.9134 115.58L27.7934 117.46C27.1734 118.08 26.5334 118.7 25.9134 119.32L24.1734 117.58C23.6134 118.16 23.0134 118.74 22.4334 119.32L20.5734 117.46ZM36.6934 114C36.2934 114 35.9334 113.94 35.6134 113.82C35.2734 116.38 33.0134 118.44 29.7734 119.9L28.1934 116.76C30.9334 115.52 33.1334 113.86 33.1334 113.14C33.1334 112.3 31.8934 108.38 31.8934 108.38L34.5934 107.3C34.7734 107.78 34.9334 108.28 35.0534 108.8C35.3934 109.86 35.8534 110.24 36.6934 110.24H36.9134L37.1134 112.12L36.9134 114H36.6934ZM36.6866 114V110.24H37.7666C40.3666 110.24 41.2066 109.78 41.2066 109.1C41.2066 108.6 40.2066 106.2 40.1066 105.96L42.6466 104.56C43.0266 105.36 43.8666 107.66 43.8666 109.34C43.8666 112.28 42.0066 114 38.3666 114H36.6866ZM36.6666 102.2L38.5466 100.34C39.1266 100.92 39.7066 101.5 40.2866 102.08C40.8466 101.5 41.4466 100.92 42.0266 100.34L43.8866 102.2C43.2666 102.82 42.6466 103.46 42.0266 104.08L40.2866 102.34C39.7066 102.9 39.1266 103.5 38.5466 104.08L36.6666 102.2ZM49.2773 108.46C48.7773 109.66 48.2973 110.76 48.2373 112.08C48.1373 114.24 49.5773 115.12 52.0573 115.12C54.6573 115.12 56.5173 113.74 56.5173 112.08C56.5173 111.12 55.3173 107.94 55.1173 107.4L57.6773 105.98C58.5573 108.1 59.0373 110.32 59.0373 112.08C59.0373 115.98 56.0773 118.88 52.0573 118.88C48.2173 118.88 45.1973 116.6 45.5573 112.08C45.6973 110.36 46.4973 108.46 46.9773 107.42L49.2773 108.46ZM50.3373 105.88C51.0573 105.18 51.7573 104.46 52.4773 103.76L54.5973 105.88C53.8973 106.6 53.1773 107.3 52.4773 108.02L50.3373 105.88ZM60.6787 113.88C61.2187 110.7 60.7387 102.06 60.2387 99.3L63.3387 98.6C63.7187 101.24 64.1987 109.92 63.5387 114.18L60.6787 113.88ZM63.6621 116.76C66.4021 115.52 68.6021 113.86 68.6021 113.14C68.6021 112.3 67.3621 108.38 67.3621 108.38L70.0621 107.3C70.7421 109.16 71.1221 111.36 71.1221 113.14C71.1221 116.02 68.7621 118.32 65.2421 119.9L63.6621 116.76ZM66.2221 103.46C66.9421 102.76 67.6421 102.04 68.3621 101.34L70.4821 103.46C69.7821 104.18 69.0621 104.88 68.3621 105.6L66.2221 103.46ZM71.3379 116.76C74.0779 115.52 76.2779 113.86 76.2779 113.14C76.2779 112.3 75.0379 108.38 75.0379 108.38L77.7379 107.3C78.4179 109.16 78.7979 111.36 78.7979 113.14C78.7979 116.02 76.4379 118.32 72.9179 119.9L71.3379 116.76ZM80.6591 113.88C81.1991 110.7 80.7191 102.06 80.2191 99.3L83.3191 98.6C83.6991 101.24 84.1791 109.92 83.5191 114.18L80.6591 113.88Z" fill="white"/>
</svg>
