<svg width="83" height="48" viewBox="0 0 83 48" fill="none" xmlns="http://www.w3.org/2000/svg">
<path fill-rule="evenodd" clip-rule="evenodd" d="M31.4792 31.6547C31.7877 31.6547 32.078 31.7157 32.3502 31.8372C32.6219 31.9592 32.8609 32.1264 33.0669 32.3392C33.2726 32.5524 33.4344 32.7994 33.552 33.0805C33.6694 33.3622 33.7286 33.6624 33.7286 33.9817C33.7286 34.301 33.6694 34.6015 33.552 34.8827C33.4344 35.1644 33.2726 35.4114 33.0669 35.6242C32.8609 35.8374 32.6219 36.0046 32.3502 36.1261C32.078 36.2481 31.7877 36.3086 31.4792 36.3086C31.1704 36.3086 30.8797 36.2481 30.6081 36.1261C30.3358 36.0046 30.0972 35.8374 29.8913 35.6242C29.685 35.4114 29.5234 35.1644 29.4062 34.8827C29.2882 34.6015 29.2297 34.301 29.2297 33.9817C29.2297 33.6624 29.2882 33.3622 29.4062 33.0805C29.5234 32.7994 29.685 32.5524 29.8913 32.3392C30.0972 32.1264 30.3358 31.9592 30.6081 31.8372C30.8797 31.7157 31.1704 31.6547 31.4792 31.6547ZM26.3394 31.6547C26.6479 31.6547 26.9382 31.7157 27.2104 31.8372C27.4822 31.9592 27.7209 32.1264 27.9271 32.3392C28.1329 32.5524 28.2946 32.7994 28.4121 33.0805C28.5297 33.3622 28.589 33.6624 28.589 33.9817C28.589 34.301 28.5297 34.6015 28.4121 34.8827C28.2946 35.1644 28.1329 35.4114 27.9271 35.6242C27.7209 35.8374 27.4822 36.0046 27.2104 36.1261C26.9382 36.2481 26.6479 36.3086 26.3394 36.3086C26.0307 36.3086 25.7399 36.2481 25.4684 36.1261C25.196 36.0046 24.9574 35.8374 24.7517 35.6242C24.5453 35.4114 24.3836 35.1644 24.2664 34.8827C24.1485 34.6015 24.09 34.301 24.09 33.9817C24.09 33.6624 24.1485 33.3622 24.2664 33.0805C24.3836 32.7994 24.5453 32.5524 24.7517 32.3392C24.9574 32.1264 25.196 31.9592 25.4684 31.8372C25.7399 31.7157 26.0307 31.6547 26.3394 31.6547ZM21.1999 31.6547C21.5083 31.6547 21.7986 31.7157 22.0708 31.8372C22.3426 31.9592 22.5815 32.1264 22.7875 32.3392C22.9933 32.5524 23.1549 32.7994 23.2724 33.0805C23.3899 33.3622 23.4492 33.6624 23.4492 33.9817C23.4492 34.301 23.3899 34.6015 23.2724 34.8827C23.1549 35.1644 22.9933 35.4114 22.7875 35.6242C22.5815 35.8374 22.3426 36.0046 22.0708 36.1261C21.7986 36.2481 21.5083 36.3086 21.1999 36.3086C20.891 36.3086 20.6006 36.2481 20.3285 36.1261C20.0563 36.0046 19.8177 35.8374 19.6119 35.6242C19.4058 35.4114 19.2442 35.1644 19.1265 34.8827C19.0088 34.6015 18.9502 34.301 18.9502 33.9817C18.9502 33.6624 19.0088 33.3622 19.1265 33.0805C19.2442 32.7994 19.4058 32.5524 19.6119 32.3392C19.8177 32.1264 20.0563 31.9592 20.3285 31.8372C20.6006 31.7157 20.891 31.6547 21.1999 31.6547ZM35.493 17.9611L39.5121 17.9624V23.7673C39.5121 24.3449 39.5526 24.8125 39.6334 25.1703C39.6384 25.1924 39.6459 25.2119 39.6515 25.2336L39.7203 25.3853C39.817 25.5823 39.9352 25.7579 40.0755 25.9123C40.2504 26.1054 40.4594 26.256 40.7019 26.3648C40.9305 26.4668 41.1711 26.5191 41.4245 26.5251H41.5812C41.8344 26.5191 42.0753 26.4668 42.3036 26.3648C42.5464 26.256 42.7553 26.1054 42.9305 25.9123C43.0992 25.7263 43.2363 25.5095 43.3422 25.2617C43.3465 25.2523 43.3595 25.2145 43.3623 25.205C43.366 25.1936 43.3694 25.1823 43.3723 25.1703C43.4533 24.8125 43.4937 24.3449 43.4937 23.7673V17.9638L47.5125 17.9626L47.5134 23.9435C47.5317 24.2739 47.5658 24.5613 47.6189 24.7965C47.6996 25.1537 47.8432 25.4386 48.049 25.6521C48.2253 25.8343 48.4236 25.9636 48.6443 26.0396C48.6443 26.0396 48.841 26.1388 49.194 26.1747H61.2585C61.5116 26.1686 61.7527 26.1164 61.9812 26.0142C62.2238 25.9058 62.4325 25.7549 62.6078 25.5619C62.7827 25.3691 62.9236 25.1427 63.0313 24.8831C63.037 24.8616 63.0446 24.8422 63.0496 24.8198C63.1303 24.4624 63.1709 23.9947 63.1709 23.4169V17.994L67.1899 17.9952L67.1909 25.4434V25.4723C67.1902 25.5527 67.1885 25.632 67.1849 25.7103L67.1834 25.7296C67.172 25.958 67.1473 26.1794 67.1091 26.3961L67.1007 26.4028C66.6625 28.6813 64.6694 30.4024 62.276 30.4024L50.0886 30.4112C49.2945 30.4112 48.6146 30.2778 48.0487 30.012C47.4829 29.7457 47.0011 29.3688 46.6041 28.8824C46.5237 28.7842 46.4501 28.683 46.3824 28.5794C45.4812 29.6736 44.1219 30.3725 42.5987 30.3725L41.6082 30.3823H41.3976L40.4071 30.3725C38.8936 30.3725 37.5419 29.6834 36.6405 28.6014C36.5891 28.6755 36.5384 28.7495 36.4805 28.8206C36.0835 29.3071 35.6018 29.6839 35.0358 29.95C34.47 30.2161 33.79 30.3948 32.9959 30.3948L32.9976 30.3953H16.8602L17.4939 27.8333C17.4939 27.8333 17.7103 26.6619 18.9617 26.2879C19.1532 26.2244 19.3678 26.1777 19.6134 26.1596H33.8904C34.2435 26.1237 34.4403 26.0246 34.4403 26.0246C34.661 25.9485 34.8592 25.8192 35.0358 25.637C35.2415 25.4236 35.3849 25.1386 35.4656 24.7814C35.4756 24.7368 35.4834 24.6853 35.4921 24.6374L35.493 17.9611ZM73.2345 12.3087V30.3951H68.912V12.3087H73.2345ZM12.3754 24.9925C13.8166 24.9925 14.9866 26.2029 14.9866 27.6937C14.9866 29.1845 13.8166 30.3953 12.3754 30.3953C10.934 30.3953 9.76391 29.1845 9.76391 27.6937C9.76391 26.2029 10.934 24.9925 12.3754 24.9925ZM18.0142 12.3086L15.6947 21.5061C15.4135 22.6332 14.4307 23.4208 13.3053 23.4208H10.9799L13.777 12.3086H18.0142ZM41.4485 12.3184C41.7572 12.3184 42.0474 12.3796 42.3197 12.5012C42.5916 12.6229 42.8302 12.7901 43.0362 13.003C43.2421 13.2161 43.4038 13.4631 43.5215 13.7443C43.6391 14.0259 43.6982 14.3262 43.6982 14.6455C43.6982 14.9648 43.6391 15.2656 43.5215 15.5464C43.4038 15.8283 43.2421 16.0751 43.0362 16.288C42.8302 16.5012 42.5916 16.6683 42.3197 16.7898C42.0474 16.9119 41.7572 16.9723 41.4485 16.9723C41.1399 16.9723 40.8495 16.9119 40.5777 16.7898C40.3053 16.6683 40.0665 16.5012 39.8607 16.288C39.6548 16.0751 39.4932 15.8283 39.3757 15.5464C39.2577 15.2656 39.1992 14.9648 39.1992 14.6455C39.1992 14.3262 39.2577 14.0259 39.3757 13.7443C39.4932 13.4631 39.6548 13.2161 39.8607 13.003C40.0665 12.7901 40.3053 12.6229 40.5777 12.5012C40.8495 12.3796 41.1399 12.3184 41.4485 12.3184ZM11.2434 12.3086L11.4953 12.9935L11.7474 12.3086H12.1406V13.4662H11.8971V12.532H11.8913L11.5669 13.4662H11.4231L11.0992 12.532H11.0938V13.4662H10.8499V12.3086H11.2434ZM10.7141 12.3086V12.532H10.3733V13.4662H10.1048V12.532H9.76392V12.3086H10.7141Z" fill="#22A958"/>
</svg>
