<svg width="48" height="48" viewBox="0 0 48 48" fill="none" xmlns="http://www.w3.org/2000/svg">
<rect x="2" y="2" width="44" height="44" rx="10" fill="url(#paint0_linear_23576_14995)"/>
<path fill-rule="evenodd" clip-rule="evenodd" d="M30.419 11.2347C29.9602 9.90417 28.6956 9 27.2642 9H20.6245L20.4536 9.00431C19.0366 9.07588 17.8119 10.0325 17.4186 11.3964L16.8001 13.5432H15.6089L15.5117 13.5488C15.0972 13.5965 14.7754 13.9456 14.7754 14.3692C14.7754 14.8254 15.1486 15.1953 15.6089 15.1953L15.7605 15.1948C15.1876 15.6612 14.8279 16.3468 14.7807 17.0925L14.7754 17.2604V22.2166H15.1922V23.0426L15.1978 23.1389C15.2459 23.5498 15.5982 23.8686 16.0257 23.8686H16.1917V25.1261H16.1925V23.8686H17.276L17.3732 23.8631C17.7878 23.8154 18.1096 23.4662 18.1096 23.0426V22.2166H29.7792V23.0426L29.7848 23.1389C29.8329 23.5498 30.1852 23.8686 30.6127 23.8686H31.863L31.9602 23.8631C32.3748 23.8154 32.6966 23.4662 32.6966 23.0426V22.2166H33.1133V17.2604L33.1077 17.0877C33.0593 16.3439 32.6999 15.6602 32.1282 15.1948L32.2798 15.1953C32.7402 15.1953 33.1133 14.8254 33.1133 14.3692C33.1133 13.913 32.7402 13.5432 32.2798 13.5432H31.0887L30.4701 11.3964L30.419 11.2347ZM29.6511 17.2604H31.863C32.0932 17.2604 32.2798 17.4453 32.2798 17.6734V18.9124C32.2798 19.1405 32.0932 19.3254 31.863 19.3254H28.3109C28.0807 19.3254 27.8941 19.1405 27.8941 18.9124C27.8941 18.8599 27.9042 18.8078 27.9239 18.759L28.1121 18.2929C28.3638 17.6693 28.9733 17.2604 29.6511 17.2604ZM16.0257 17.2604H18.2377C18.8703 17.2604 19.4434 17.6166 19.7216 18.1711L19.7767 18.2929L19.9648 18.759C19.9845 18.8078 19.9946 18.8599 19.9946 18.9124C19.9946 19.1152 19.8472 19.2838 19.6528 19.3188L19.5778 19.3254H16.0257C15.8211 19.3254 15.6509 19.1793 15.6156 18.9867L15.6089 18.9124V17.6734C15.6089 17.4706 15.7564 17.302 15.9508 17.267L16.0257 17.2604ZM21.7324 17.2604H26.1564C26.576 17.2604 26.9161 17.5975 26.9161 18.0133C26.9161 18.1091 26.8977 18.204 26.8618 18.2929C26.6101 18.9165 26.0006 19.3254 25.3228 19.3254H22.5659C21.8882 19.3254 21.2787 18.9165 21.027 18.2929C20.8711 17.9068 21.0606 17.4686 21.4502 17.3142C21.54 17.2786 21.6357 17.2604 21.7324 17.2604ZM19.8985 10.6311H27.9161C28.3435 10.6311 28.8259 10.9517 28.9882 11.3435L29.7792 14.7823H18.1096L18.8264 11.3435C18.9887 10.9517 19.4712 10.6311 19.8985 10.6311ZM17.4652 25.1261L13.0283 38.3409C12.9196 38.6649 13.1606 39 13.5023 39H22.5561V25.1261H17.4652ZM25.1016 25.1261V39H34.1554C34.4971 39 34.7381 38.6649 34.6294 38.3409L30.1925 25.1261H25.1016Z" fill="url(#paint1_linear_23576_14995)"/>
<defs>
<linearGradient id="paint0_linear_23576_14995" x1="24" y1="2" x2="24" y2="46" gradientUnits="userSpaceOnUse">
<stop stop-color="#00FF89"/>
<stop offset="1" stop-color="#00B964"/>
</linearGradient>
<linearGradient id="paint1_linear_23576_14995" x1="23.8289" y1="9" x2="23.8289" y2="39" gradientUnits="userSpaceOnUse">
<stop offset="0.642919" stop-color="white"/>
<stop offset="1" stop-color="#6EF7B7"/>
</linearGradient>
</defs>
</svg>
