<svg fill="none" viewBox="0 0 128 128" xmlns="http://www.w3.org/2000/svg" fit="" height="100%" width="100%" preserveAspectRatio="xMidYMid meet" focusable="false"><defs></defs><path fill="#AEB8C2" d="M64 91c29.823 0 54-3.159 54-7.055s-24.177-7.054-54-7.054-54 3.158-54 7.054C10 87.841 34.177 91 64 91z" opacity=".25"></path><path fill="#009647" d="M83.18 61.347l30.636.485.147-7.684-32.28-.277 1.497 7.476z"></path><path fill="#161616" d="M40.943 78.375c0 4.407-2.838 7.98-6.338 7.98s-6.337-3.573-6.337-7.98 2.837-7.42 6.337-7.42c3.5 0 6.338 3.013 6.338 7.42z"></path><path fill="#161616" d="M34.712 78.375c0 4.407-2.837 7.98-6.337 7.98-3.5 0-6.337-3.573-6.337-7.98s2.837-7.42 6.338-7.42c3.5 0 6.336 3.013 6.336 7.42zM79.711 76.43c0 5.89-2.817 10.105-6.291 10.105-3.475 0-6.292-4.215-6.292-10.105 0-5.89 2.817-11.223 6.291-11.223 3.475 0 6.292 5.334 6.292 11.224zM110.446 72.604c0 5.36-2.463 9.147-5.501 9.147-3.037 0-5.5-3.786-5.5-9.147 0-5.361 2.463-9.707 5.5-9.707 3.038 0 5.501 4.346 5.501 9.707z"></path><path fill="#00E46C" d="M115.6 56.055c-.265-.781-.784-1.51-1.615-1.51L88.465 55.6c-.973-.003-1.447-.492-1.639-1.28-.147-.604-1.237-6.937-1.876-9.84-.877-3.983-.902-4.553-4.808-5.694-2.918-.85-6.329-1.243-8.512-1.377-4.454-.275-7.57-.417-12.032-.408h-.264c-3.384.01-9.026-.041-12.408.109-2.984.132-5.107.248-8.003 1.02-3.96 1.056-6.43 4.575-8.433 7.778-1.249 1.999-5.044 8.088-6.128 9.006-.575.488-1.332.812-1.999 1.152-1.099.56-2.212 1.093-3.322 1.631-.959.465-1.918.929-2.867 1.413-.653.334-1.353.59-1.948 1.026-1.196.876-1.568 2.491-1.606 3.892-.017.638.117 1.26.134 1.903.002.073.003.147.002.221-.005.516-.125 1.576-.145 2.09-.013.368-.003.737-.003 1.105 0 .647.006 1.293.017 1.939.014.772.036 1.545.07 2.317.026.582.07 1.163.113 1.745.87-.006 1.774.545 1.834 1.65.054 1.012 2.715 1.803 3.641 2.08 1.605.505 3.266.81 4.947.91 3.133.142 6.279-.28 9.379.365 2.096.437 4.084 1.657 6.2 2.023a1.56 1.56 0 01.544-.982 1.572 1.572 0 011.064-.364c4.226.007 8.826.167 13.044.42-.006-.048-.03-.091-.032-.14-.043-.928.824-1.717 1.729-1.717h9.675c1.334-.42 2.665-.87 3.716-1.82 1.162-1.054 2.032-2.38 3.204-3.426.311-.26.698-.415 1.103-.443.386-1.623 1.046-3.139 2.462-4.539 1.156-1.143 3.457-1.664 4.994-1.125 1.996.7 3.018.187 3.27 2.316.256 2.163-.06 4.375.316 6.521.094.539.157 1.332.28 2.082.192-.075.395-.115.6-.12 4.65.016 8.768.706 13.318-.534.894-.243 1.871-.526 2.587-1.134.651-.553 1.083-1.326 1.468-2.073.9-1.745 1.456-3.647 2.43-5.357a1.522 1.522 0 011.475-.808 7.01 7.01 0 012.687-1.932c1.604-.616 3.445-.834 4.137.729.337.76 2.442 3.818 2.29 3.002-.049-.264 1.888-10.581.43-14.877z"></path><path fill="#161616" d="M28.201 53.732c.656-1.61 5.843-9.157 7.29-10.971 1.652-2.073 4.313-3.19 6.72-3.476 1.83-.217 12.803-.544 14.644-.565 4.024-.046 5.838.015 9.863.165.667.025.776.047 1.443.066a1.761 1.761 0 011.444.788c.602.93-.11 3.113-.11 3.113l-2.986 9.132s-.504 1.733-.97 2.31c-.447.55-1.124.558-1.708.54-.718-.02-33.29.264-33.435.267-.687.01-2.89.336-2.195-1.369zM109.669 79.324h-4.614v2.427h4.614v-2.427zM79.098 84.098h-5.761v2.437h5.76v-2.437zM34.605 84.07h-5.63v2.284h5.63V84.07zM77.256 68.203l-.012-.004c-1.067-.345.464-2.2-.197-1.932-3.71 1.505-1.7.772-5.173 4.043-1.217 1.146-1.978 2.061-3.394 2.988-1.652 1.08-29.407 2.072-43.833 1.704-1.944-.05-6.408-.183-8.178-1.073-2.033-1.022-2.268-3.746-3.86-5.219-.01 1.823.02 5.945.452 8.509.15.896.384 1.298 1.037 1.961.764.776 1.94 1.02 3.04 1.212 17.952 3.114 32.473 2.433 50.696 1.524.833-.041 1.7-.092 2.423-.484 1.357-.737 1.763-2.389 1.96-3.86.321-2.41.462-4.39 1.675-6.527a6.517 6.517 0 013.364-2.842zM105.991 65.767c-.942.364-2.34 4.102-2.764 4.933a45.846 45.846 0 01-1.294 2.362c-.53.905-1.188 1.564-2.253 1.913-1.021.337-10.801 1.236-11.832.931-1.862-.55-2.19-2.296-3.135-3.913.01 1.386-1.068 3.104-.815 4.465.17.925.21 2.666.771 3.451.67.94 15.807.214 16.941-1.376.548-.767.691-2.433.932-3.295.738-2.646.964-2.483 2.399-4.864a8.004 8.004 0 012.353-2.49c.17-1.476-.054-2.598-1.303-2.117z"></path><path fill="#161616" d="M115.169 72.604c0 5.36-2.463 9.147-5.5 9.147-3.038 0-5.5-3.786-5.5-9.147 0-5.361 2.463-9.707 5.5-9.707s5.5 4.346 5.5 9.707z"></path><path fill="#fff" d="M113.596 72.837c0 4.1-1.765 6.863-3.943 6.863s-3.943-2.764-3.943-6.863c0-4.1 1.765-7.423 3.943-7.423s3.943 3.323 3.943 7.423z"></path><path fill="#DAD9D9" d="M112.254 67.232c.455 1.34.68 2.745.668 4.158 0 4.1-1.744 6.863-3.894 6.863-.976 0-1.868-.127-2.551-1.258.7 1.97 1.883 2.706 3.226 2.706 2.15 0 3.894-2.764 3.894-6.863 0-2.24-.521-4.245-1.343-5.606z"></path><path fill="#00B258" d="M79.178 65.786c-8.645-2.267-10.5 3.533-18.624 6.727-6.388 2.512-25.3 1.927-32.053 1.26-7.117-.704-16.84-3.086-15.66-7.081.014-.047-.074-.037-.116-.057-.031.506-.104 1.568-.112 2.075-.008.447-.005.896-.005 1.344v-.858c1.592 1.714 1.827 4.883 3.86 6.072 1.772 1.035 6.234 1.192 8.179 1.25 14.425.427 24.184.27 38.601-.468 2.012-.103 3.579-.26 5.231-1.516 1.418-1.079 2.177-2.144 3.394-3.476.811-.89 4.127-4.21 5.174-4.705.662-.312-.87 1.847.208 2.253a3.813 3.813 0 012.958-.098c.244.1.494.186.747.26.294-1.475-.916-2.755-1.781-2.982z"></path><path fill="#161616" d="M85.236 76.43c0 5.888-2.912 10.104-6.504 10.104-3.592 0-6.504-4.215-6.504-10.105 0-5.89 2.912-10.663 6.504-10.663 3.592 0 6.504 4.774 6.504 10.663z"></path><path fill="#fff" d="M83.54 76.514c0 4.376-2.093 7.364-4.674 7.364-2.582 0-4.675-2.988-4.675-7.364 0-4.377 2.094-7.924 4.675-7.924 2.58 0 4.674 3.547 4.674 7.924z"></path><path fill="#DAD9D9" d="M82.014 70.701c.543 1.403.814 2.895.801 4.398 0 4.376-2.133 7.364-4.763 7.364-1.25 0-2.388-.802-3.238-2.113.854 2.126 2.31 3.526 3.963 3.526 2.63 0 4.763-2.988 4.763-7.364 0-2.296-.587-4.364-1.526-5.81z"></path><path fill="#161616" d="M68.584 54.036c.023-.574.312-1.1.506-1.629.233-.634 2.474-7.896 3.04-9.615l.259-.789c.447-1.407 1.78-2.269 3.159-2.04 0 0 3.086.297 4.269.65 1.298.389 2.288 1.323 2.58 2.726 0 0 1.244 8.488 1.53 10.622a.681.681 0 01-.643.796l-2.437.036-5.215.077-4.859.072-1.057.016c-.276.004-.662.045-.875-.17a.967.967 0 01-.257-.752z"></path><path fill="#00B258" fill-rule="evenodd" d="M74.201 52.582c.238-.162.52-.246.81-.24l1.123.032c.43.012.764.435.747.945l-.052 1.534-7.306.105 4.678-2.376z" clip-rule="evenodd"></path><path fill="#00B258" d="M115.353 55.505a1.264 1.264 0 00-.452-.445 1.564 1.564 0 00-.779-.13c-1.837.047-3.611.855-4.98 2.072-2.046 1.818-2.354 3.303-3.649 5.588a18.41 18.41 0 01-5.479 6.025c-3.439 2.39-6.97 3.558-11.156 3.246-1.931-.145-3.69-.747-5.033-2.09.664 1.793.551 4.45 2.118 5.779.314.269.654.504 1.017.701 1.257.677 2.765.46 4.128.37 1.94-.125 3.129-.243 5.066-.395 1.2-.097 2.384-.338 3.526-.717 1.064-.37 1.723-1.067 2.253-2.024 1.601-2.887 2.54-6.412 4.731-8.924.729-.835 1.69-1.56 2.8-1.648a3.591 3.591 0 012.505.875 6.886 6.886 0 011.638 2.137 13.052 13.052 0 011.484 5.217c.277-.294.301-.735.318-1.137.088-2.051.369-4.096.658-6.126.238-1.475.322-2.97.252-4.462-.081-1.242-.269-2.835-.966-3.912z"></path><path fill="#00B258" d="M85.587 47.661l26.599-.537a.727.727 0 01.539.2.702.702 0 01.168.236c.04.089.061.185.062.282l.012 1.776c-.348-.005-.568-.015-.845-.015l-26.071.556.339 1.858 25.798-.548c.83-.095.953.521.955.722l.025 2.387.817-.034a1.402 1.402 0 011.071.534l-.222-7.248a2.599 2.599 0 00-.812-1.855 2.622 2.622 0 00-1.899-.716l-26.897.546c.117.58.238 1.208.36 1.856z"></path><path fill="#00B258" fill-rule="evenodd" d="M51.267 61.438H23.77c-1.12 0-1.986.563-2.134 1.245-.04.186.459 2.357.64 3.14.05.24.17.461.344.634.488.408 1.11.622 1.746.602H49.91c.814 0 1.55-.309 1.916-.788a1.1 1.1 0 00.166-.356c.21-.688.923-3.038.927-3.232.014-.681-.53-1.245-1.652-1.245z" clip-rule="evenodd"></path><ellipse cx="58.13" cy="62.193" fill="#fff" rx="2.455" ry="2.445"></ellipse><ellipse cx="16.084" cy="62.193" fill="#fff" rx="2.455" ry="2.445"></ellipse><ellipse cx="58.13" cy="67.296" fill="#fff" rx="2.455" ry="2.445"></ellipse><ellipse cx="16.084" cy="67.296" fill="#fff" rx="2.455" ry="2.445"></ellipse></svg>