<svg fill="none" viewBox="0 0 129 128" xmlns="http://www.w3.org/2000/svg" fit="" height="100%" width="100%" preserveAspectRatio="xMidYMid meet" focusable="false"><defs></defs><path fill="#FFAD00" d="M84.994 65.7l30.909-1.523s.702-21.792-1.483-23.671c-2.185-1.88-29.13-6.483-29.13-6.483l-7.543.732-15.29 3.432-.234 9.824 22.575-.678.196 18.368z"></path><path fill="#FFCA00" d="M52.446 36.297c1.48-1.843 32.843-2.274 32.843-2.274l.107 15.202s-33.48 0-33.75-.045c-.272-.045-.68-11.04.8-12.883zM87.233 60.5l-.562-.995s10.736.335 21.047-2.043c6.378-1.471 8.291-4.413 8.291-4.413v7.116l-27.315.435-1.461-.1z"></path><path fill="#B8B8B8" d="M64.5 93.977c29.823 0 54-3.365 54-7.514 0-4.15-24.177-7.514-54-7.514s-54 3.364-54 7.514 24.177 7.514 54 7.514z" opacity=".25"></path><path fill="#161616" d="M31.043 89.235c3.5 0 6.337-3.586 6.337-8.009s-2.837-8.01-6.337-8.01c-3.5 0-6.338 3.587-6.338 8.01s2.838 8.01 6.338 8.01z"></path><path fill="#161616" d="M36.8 89.235c3.5 0 6.337-3.586 6.337-8.009s-2.837-8.01-6.337-8.01c-3.5 0-6.338 3.587-6.338 8.01s2.837 8.01 6.338 8.01zM73.72 89.414c3.474 0 6.29-4.792 6.29-10.703s-2.816-10.703-6.29-10.703c-3.475 0-6.292 4.792-6.292 10.703s2.817 10.703 6.291 10.703zM107.167 85.626c3.038 0 5.5-4.362 5.5-9.742 0-5.381-2.462-9.743-5.5-9.743s-5.5 4.362-5.5 9.743c0 5.38 2.462 9.742 5.5 9.742z"></path><path fill="#00E46C" d="M15.442 80.196c.15.942.382 1.925 1.037 2.622.765.814 1.94 1.071 3.04 1.272 17.952 3.27 30.39 2.366 48.614 1.413.833-.042 1.7-.097 2.423-.509 1.356-.773 1.763-2.507 1.96-4.052.418-3.292.53-6.772 3.1-9.322 1.155-1.147 3.457-1.67 4.996-1.13 1.995.702 3.019.188 3.27 2.325.255 2.172-.061 4.391.316 6.545.17.981.21 3.391.771 4.224.67.996 16.978 1.238 18.112-.449.547-.815.531-3.263.773-4.177.738-2.808 1.123-2.516 2.558-5.042.866-1.524 2.161-2.827 3.801-3.457 1.605-.618 3.444-.837 4.138.731.336.763 2.441 3.832 2.29 3.014-.049-.265 1.615-8.8.157-13.112-.266-.785-.681-1.488-1.511-1.49l-25.958.448c-1.369-.002-1.65-1-1.871-2.346-.206-1.262-1.188-5.366-1.646-8.252-.555-3.503-1.583-7.039-5.372-8.15-2.917-.854-5.765-1.621-7.948-1.756-4.454-.275-10.201-.418-14.662-.41h-.264c-5.323.016-10.755-.4-15.487 2.625-2.785 1.765-5.195 4.042-7.522 6.357-1.67 1.66-7.514 8.103-9.382 8.93-2.502 1.108-5.573 2.633-7.953 3.785a4.705 4.705 0 00-1.588 1.118c-1.939 2.062.018 5.595-.634 8.346.001 0-.124 6.366.442 9.9z"></path><path fill="#161616" d="M31.036 55.001c.484-1.117 10.197-10.045 12.153-11.404 2.17-1.51 4.444-2.156 7.031-2.445a47.803 47.803 0 015.17-.306c4.07-.046 7.406.01 11.477.152.674.023 1.349.043 2.023.06a1.807 1.807 0 011.46.75c.545.793.233 1.972-.104 2.9-1.046 2.885-1.97 5.726-3.016 8.611-.255.705-.51 1.65-.983 2.198-.451.525-1.136.532-1.727.516-.726-.02-31.118.269-31.266.271-.694.01-2.922.321-2.218-1.303z"></path><path fill="#fff" fill-rule="evenodd" d="M51.146 63.723l-2.122 3.833c-.625 1.127.137 2.552 1.364 2.552H60.5a1.595 1.595 0 001.49-1.114l1.306-3.834c.376-1.103-.39-2.27-1.49-2.27H52.51a1.568 1.568 0 00-1.364.833z" clip-rule="evenodd"></path><path fill="#161616" d="M111.139 83.19h-3.972v2.435h3.972V83.19zM79.397 86.969h-5.761v2.446h5.76V86.97z"></path><path fill="#00B258" fill-rule="evenodd" d="M45.16 65.418H30.97c-.735 0-1.246.418-.995.813l.912 1.675c.153.24.55.399.996.399H43.97c.446 0 .843-.16.995-.399l.913-1.675c.25-.395.018-.813-.717-.813z" clip-rule="evenodd"></path><path fill="#161616" d="M36.8 86.941h-5.631v2.293h5.63V86.94zM77.556 70.545l-.012-.004c-1.067-.362.464-2.31-.197-2.029-1.047.447-4.361 3.443-5.173 4.245-1.217 1.203-1.978 2.164-3.395 3.137-1.652 1.133-29.391 2.176-43.816 1.79-1.946-.052-4.342-.006-6.112-.94-2.033-1.073-2.268-3.933-3.86-5.479-.01 1.913.02 6.241.451 8.933.151.941.383 1.924 1.038 2.62.765.815 1.94 1.072 3.04 1.273 17.952 3.27 30.39 2.367 48.614 1.413.832-.043 1.699-.097 2.424-.509 1.356-.773 1.763-2.507 1.959-4.052.322-2.53.462-5.17 1.675-7.414a6.611 6.611 0 013.364-2.984zM107.461 69.026c-.942.386-2.339 4.352-2.763 5.234a50.316 50.316 0 01-1.294 2.507c-.532.96-1.189 1.658-2.254 2.03-1.02.358-12 .423-13.032.1-1.862-.584-2.162-2.557-3.107-4.273.011 1.47-1.067 3.292-.814 4.737.17.981.21 3.39.771 4.224.67.997 16.978 1.238 18.112-.45.547-.814.531-3.262.773-4.177.738-2.807 1.123-2.515 2.558-5.04a8.301 8.301 0 012.352-2.644c.171-1.568-.053-2.758-1.302-2.248z"></path><path fill="#161616" d="M111.14 85.626c3.037 0 5.5-4.362 5.5-9.742 0-5.381-2.463-9.743-5.5-9.743-3.038 0-5.5 4.362-5.5 9.743 0 5.38 2.462 9.742 5.5 9.742z"></path><path fill="#fff" d="M111.124 83.566c2.177 0 3.943-3.335 3.943-7.45s-1.766-7.45-3.943-7.45c-2.178 0-3.943 3.335-3.943 7.45s1.765 7.45 3.943 7.45z"></path><path fill="#DAD9D9" d="M113.706 70.49a12.52 12.52 0 01.677 4.173c0 4.115-1.765 7.45-3.943 7.45-.989 0-1.893-.689-2.584-1.824.709 1.977 1.908 3.277 3.267 3.277 2.178 0 3.943-3.335 3.943-7.45 0-2.247-.527-4.26-1.36-5.626z"></path><path fill="#00B258" d="M116.797 60.984c-.151-.32-.503-1.046-.815-1.174.047.02-.33.373-.375.404-.683.471-1.63.439-2.41.621-2.16.504-3.423 2.418-4.656 4.103-1.154 1.576-2.362 3.152-3.668 4.606-2.495 2.778-16.592 8.353-20.93 2.063a14.822 14.822 0 011.502 5.43c.742.836 1.612 1.527 2.676 1.86 1.03.324 12.01.258 13.032-.099 1.064-.372 1.722-1.07 2.253-2.031.455-.823.886-1.659 1.294-2.507.991-2.06 1.763-4.255 3.136-6.117.815-1.103 2.047-2.034 3.421-1.995 1.359.038 2.524 1.01 3.302 2.12 1.241 1.771 1.767 3.947 2.008 6.094.16.08.27-.174.27-.352.009-4.653 2.341-7.957-.04-13.026zM79.478 68c-6.368-1.507-14.843 3.995-20.69 6.07-6.389 2.267-21.339 1.74-28.093 1.136-7.116-.634-8.87-2.97-15.471-5.697l-.116-.051a5.233 5.233 0 01-.107.838s-.013.694-.01 1.742v-.774c1.59 1.545 1.826 4.406 3.859 5.479 1.77.934 4.166.888 6.111.94 14.426.385 23.606.245 38.022-.422 2.012-.093 4.143-.234 5.795-1.368 1.417-.973 2.178-1.935 3.395-3.137.812-.802 4.126-3.799 5.173-4.245.661-.282-.87 1.666.197 2.029l.012.003a4.196 4.196 0 012.957-.088c.267.098.515.172.748.234.294-1.33-.916-2.484-1.782-2.689z"></path><path fill="#161616" d="M79.244 89.414c3.474 0 6.291-4.792 6.291-10.703s-2.817-10.703-6.291-10.703c-3.475 0-6.292 4.792-6.292 10.703s2.817 10.703 6.292 10.703z"></path><path fill="#fff" d="M79.165 86.748c2.582 0 4.675-3.56 4.675-7.953 0-4.392-2.093-7.953-4.675-7.953s-4.675 3.56-4.675 7.953c0 4.393 2.093 7.953 4.675 7.953z"></path><path fill="#DAD9D9" d="M82.342 72.963c.533 1.41.8 2.906.787 4.413 0 4.393-2.093 7.954-4.675 7.954-1.227 0-2.344-.806-3.178-2.121.838 2.134 2.267 3.54 3.889 3.54 2.582 0 4.675-3.562 4.675-7.954 0-2.305-.577-4.38-1.498-5.832z"></path><path fill="#fff" d="M15 70.11h10.502c1.214 0 1.968-1.45 1.35-2.597l-2.1-3.9a1.545 1.545 0 00-1.349-.845h-8.342c-.843 2.043.358 4.957-.061 7.342z"></path><path fill="#161616" d="M69.357 55.292l3.665-11.308a2.78 2.78 0 013.067-1.942l1.003.162c.664.106 1.994.475 3.141.812a3.65 3.65 0 012.507 2.771s1.208 7.401 1.486 9.432a.656.656 0 01-.626.756l-13.628.198a.664.664 0 01-.615-.881z"></path><path fill="#00B258" fill-rule="evenodd" d="M74.464 53.604a1.3 1.3 0 01.809-.262l1.124.035c.43.013.763.474.746 1.029l-.052 1.67-7.307.114 4.68-2.586z" clip-rule="evenodd"></path></svg>