<svg fill="none" viewBox="0 0 128 128" xmlns="http://www.w3.org/2000/svg" fit="" height="100%" width="100%" preserveAspectRatio="xMidYMid meet" focusable="false"><defs></defs><path fill="#B8B8B8" d="M64 91.426c29.823 0 54-3.364 54-7.514s-24.177-7.514-54-7.514-54 3.364-54 7.514 24.177 7.514 54 7.514z" opacity=".25"></path><path fill="#161616" d="M82.98 61.022h31.807v-3.97L82 54.927l.98 6.094zM30.543 86.683c3.5 0 6.337-3.586 6.337-8.01 0-4.423-2.837-8.009-6.337-8.009-3.5 0-6.338 3.586-6.338 8.01 0 4.423 2.838 8.008 6.338 8.008z"></path><path fill="#161616" d="M36.3 86.683c3.5 0 6.337-3.586 6.337-8.01 0-4.423-2.837-8.009-6.337-8.009-3.5 0-6.338 3.586-6.338 8.01 0 4.423 2.837 8.008 6.338 8.008zM73.22 86.864c3.474 0 6.29-4.792 6.29-10.704 0-5.911-2.816-10.703-6.29-10.703-3.475 0-6.292 4.792-6.292 10.703 0 5.912 2.817 10.704 6.291 10.704zM106.667 83.074c3.038 0 5.5-4.362 5.5-9.743s-2.462-9.743-5.5-9.743-5.5 4.362-5.5 9.743c0 5.38 2.462 9.743 5.5 9.743z"></path><path fill="#00E46C" d="M14.942 77.646c.15.942.382 1.924 1.037 2.621.765.815 1.94 1.072 3.04 1.272 17.952 3.27 30.39 2.367 48.614 1.413.833-.042 1.7-.097 2.423-.509 1.356-.773 1.763-2.507 1.96-4.052.418-3.292.53-6.771 3.1-9.322 1.155-1.147 3.457-1.67 4.996-1.13 1.995.702 3.019.188 3.27 2.325.255 2.172-.061 4.391.316 6.546.17.98.21 3.39.771 4.223.67.997 16.978 1.238 18.112-.449.547-.815.531-3.263.773-4.177.738-2.808 1.123-2.516 2.558-5.041.866-1.525 2.161-2.828 3.801-3.458 1.605-.618 3.444-.837 4.138.731.336.763 2.441 3.833 2.29 3.014-.049-.265 1.615-8.8.157-13.112-.266-.784-.681-1.488-1.511-1.49l-25.958.449c-1.369-.003-1.65-1-1.871-2.347-.206-1.262-1.188-5.366-1.646-8.252-.555-3.502-1.583-7.039-5.372-8.149-2.917-.855-5.765-1.622-7.948-1.757-4.454-.275-10.201-.417-14.662-.41h-.264c-5.323.016-10.755-.4-15.487 2.625-2.785 1.765-5.195 4.042-7.522 6.357-1.67 1.66-7.514 8.103-9.382 8.93-2.502 1.109-5.573 2.634-7.953 3.785a4.705 4.705 0 00-1.588 1.118c-1.939 2.062.018 5.595-.634 8.346.001 0-.124 6.366.442 9.9z"></path><path fill="#161616" d="M30.536 52.449c.484-1.118 10.197-10.046 12.153-11.405 2.17-1.51 4.444-2.156 7.031-2.445a47.803 47.803 0 015.17-.306c4.07-.046 7.406.011 11.477.152.674.023 1.349.043 2.023.06a1.808 1.808 0 011.46.75c.545.793.233 1.972-.104 2.901-1.046 2.884-1.97 5.725-3.016 8.61-.255.705-.51 1.65-.983 2.199-.451.524-1.136.531-1.727.516-.726-.02-31.118.268-31.266.27-.694.01-2.922.321-2.218-1.302z"></path><path fill="#fff" fill-rule="evenodd" d="M50.646 61.172l-2.122 3.834c-.625 1.126.137 2.55 1.364 2.55H60a1.595 1.595 0 001.49-1.113l1.306-3.833c.376-1.104-.39-2.27-1.49-2.27H52.01a1.568 1.568 0 00-1.364.832z" clip-rule="evenodd"></path><path fill="#161616" d="M110.639 80.639h-3.972v2.435h3.972V80.64zM78.897 84.418h-5.761v2.446h5.76v-2.446z"></path><path fill="#00B258" fill-rule="evenodd" d="M44.66 62.867H30.47c-.735 0-1.246.418-.995.813l.912 1.675c.153.24.55.4.996.4H43.47c.446 0 .843-.16.995-.4l.913-1.675c.25-.395.018-.813-.717-.813z" clip-rule="evenodd"></path><path fill="#161616" d="M36.3 84.39h-5.631v2.293h5.63V84.39zM77.056 67.992l-.012-.004c-1.067-.362.464-2.31-.197-2.029-1.047.447-4.361 3.443-5.173 4.246-1.217 1.202-1.978 2.163-3.395 3.136-1.652 1.134-29.391 2.176-43.816 1.79-1.946-.052-4.342-.006-6.112-.94-2.033-1.073-2.268-3.933-3.86-5.479-.01 1.914.02 6.241.451 8.933.151.942.383 1.925 1.038 2.62.765.816 1.94 1.072 3.04 1.273 17.952 3.27 30.39 2.367 48.614 1.413.832-.042 1.699-.096 2.424-.508 1.356-.773 1.763-2.508 1.959-4.053.322-2.53.462-5.17 1.675-7.414a6.612 6.612 0 013.364-2.984zM106.961 66.475c-.942.386-2.339 4.352-2.763 5.235a50.357 50.357 0 01-1.294 2.506c-.532.96-1.189 1.658-2.254 2.031-1.02.357-12 .423-13.032.1-1.862-.585-2.162-2.558-3.107-4.274.011 1.47-1.067 3.293-.814 4.737.17.981.21 3.39.771 4.224.67.997 16.978 1.238 18.112-.45.547-.814.531-3.262.773-4.176.738-2.808 1.123-2.516 2.558-5.041a8.302 8.302 0 012.352-2.643c.171-1.569-.053-2.76-1.302-2.249z"></path><path fill="#161616" d="M110.64 83.074c3.037 0 5.5-4.362 5.5-9.743s-2.463-9.743-5.5-9.743c-3.038 0-5.5 4.362-5.5 9.743 0 5.38 2.462 9.743 5.5 9.743z"></path><path fill="#fff" d="M110.624 81.015c2.177 0 3.943-3.335 3.943-7.45 0-4.114-1.766-7.45-3.943-7.45-2.178 0-3.943 3.336-3.943 7.45 0 4.115 1.765 7.45 3.943 7.45z"></path><path fill="#DAD9D9" d="M113.206 67.94a12.52 12.52 0 01.677 4.172c0 4.115-1.765 7.45-3.943 7.45-.989 0-1.893-.688-2.584-1.824.709 1.978 1.908 3.278 3.267 3.278 2.178 0 3.943-3.336 3.943-7.45 0-2.248-.527-4.26-1.36-5.627z"></path><path fill="#00B258" d="M116.297 58.434c-.151-.321-.503-1.047-.815-1.174.047.02-.33.372-.375.404-.683.47-1.63.438-2.41.62-2.16.504-3.423 2.418-4.656 4.103-1.154 1.576-2.362 3.152-3.668 4.606-2.495 2.779-16.592 8.353-20.93 2.064a14.822 14.822 0 011.502 5.43c.742.835 1.612 1.526 2.676 1.86 1.03.323 12.01.258 13.032-.1 1.064-.372 1.722-1.07 2.253-2.03.455-.824.886-1.66 1.294-2.507.991-2.061 1.763-4.256 3.136-6.117.815-1.104 2.047-2.035 3.421-1.996 1.359.038 2.524 1.01 3.302 2.12 1.241 1.772 1.767 3.947 2.008 6.095.16.079.27-.174.27-.352.009-4.654 2.341-7.957-.04-13.026zM78.978 65.45c-6.368-1.508-14.843 3.995-20.69 6.07-6.389 2.266-21.339 1.739-28.093 1.136-7.116-.635-8.87-2.97-15.471-5.698l-.116-.05a5.233 5.233 0 01-.107.838s-.013.693-.01 1.74v-.773c1.59 1.546 1.826 4.406 3.859 5.479 1.77.934 4.166.888 6.111.94 14.426.386 23.606.245 38.022-.422 2.012-.093 4.143-.234 5.795-1.368 1.417-.973 2.178-1.935 3.395-3.136.812-.803 4.126-3.8 5.173-4.246.661-.281-.87 1.667.197 2.029l.012.004a4.196 4.196 0 012.957-.088c.267.097.515.171.748.233.294-1.33-.916-2.484-1.782-2.689z"></path><path fill="#161616" d="M78.744 86.864c3.474 0 6.291-4.792 6.291-10.704 0-5.911-2.817-10.703-6.291-10.703-3.475 0-6.292 4.792-6.292 10.703 0 5.912 2.817 10.704 6.292 10.704z"></path><path fill="#fff" d="M78.665 84.198c2.582 0 4.675-3.561 4.675-7.954 0-4.392-2.093-7.953-4.675-7.953s-4.675 3.56-4.675 7.953c0 4.393 2.093 7.954 4.675 7.954z"></path><path fill="#DAD9D9" d="M81.842 70.412c.533 1.41.8 2.906.787 4.414 0 4.392-2.093 7.953-4.675 7.953-1.227 0-2.344-.805-3.178-2.12.838 2.133 2.267 3.538 3.889 3.538 2.582 0 4.675-3.56 4.675-7.953 0-2.305-.577-4.38-1.498-5.832z"></path><path fill="#fff" d="M14.5 67.559h10.502c1.214 0 1.968-1.45 1.35-2.597l-2.1-3.9a1.545 1.545 0 00-1.349-.845h-8.342c-.843 2.044.358 4.958-.061 7.342z"></path><path fill="#161616" d="M68.857 52.74l3.665-11.307a2.78 2.78 0 013.067-1.942l1.003.162c.664.106 1.994.476 3.141.812a3.649 3.649 0 012.507 2.772s1.208 7.4 1.486 9.431a.656.656 0 01-.626.757l-13.628.198a.664.664 0 01-.615-.882z"></path><path fill="#00B258" fill-rule="evenodd" d="M73.964 51.053c.232-.175.517-.267.809-.262l1.124.035c.43.013.763.474.746 1.029l-.052 1.67-7.307.114 4.68-2.586z" clip-rule="evenodd"></path></svg>